<?xml version="1.0" encoding="utf-8"?>
<!-- Generator: Adobe Illustrator 25.3.0, SVG Export Plug-In . SVG Version: 6.00 Build 0)  -->
<svg version="1.1" id="Camada_1" xmlns="http://www.w3.org/2000/svg" xmlns:xlink="http://www.w3.org/1999/xlink" x="0px" y="0px"
	 viewBox="0 0 500 500" style="enable-background:new 0 0 500 500;" xml:space="preserve">
<style type="text/css">
	.st0{fill-rule:evenodd;clip-rule:evenodd;fill:#E87C28;}
	.st1{fill-rule:evenodd;clip-rule:evenodd;fill:#FCE7D5;}
	.st2{fill-rule:evenodd;clip-rule:evenodd;fill:#FBDBC5;}
	.st3{fill-rule:evenodd;clip-rule:evenodd;fill:#F8D0B0;}
	.st4{fill-rule:evenodd;clip-rule:evenodd;fill:#F9D6BA;}
	.st5{fill-rule:evenodd;clip-rule:evenodd;fill:#CF6E15;}
	.st6{fill-rule:evenodd;clip-rule:evenodd;fill:#D77E2B;}
	.st7{fill-rule:evenodd;clip-rule:evenodd;fill:#F5C08C;}
	.st8{fill-rule:evenodd;clip-rule:evenodd;fill:#F1A15A;}
	.st9{fill-rule:evenodd;clip-rule:evenodd;fill:#E97A14;}
	.st10{fill-rule:evenodd;clip-rule:evenodd;fill:#EC8C3A;}
	.st11{fill-rule:evenodd;clip-rule:evenodd;fill:#FFFFFF;}
	.st12{fill-rule:evenodd;clip-rule:evenodd;fill:#F9DCC4;}
	.st13{fill-rule:evenodd;clip-rule:evenodd;fill:#E17926;}
	.st14{fill-rule:evenodd;clip-rule:evenodd;fill:#179188;}
</style>
<g>
	<g>
		
			<ellipse transform="matrix(0.7071 -0.7071 0.7071 0.7071 -151.892 133.9884)" class="st0" cx="85.8" cy="250.3" rx="55.4" ry="55.4"/>
		<g>
			<path class="st1" d="M82,247.3l-39.2-39.2c-21.6,21.6-21.6,56.7,0,78.4L82,247.3z"/>
			<path class="st2" d="M82,247.3l-39.2-39.2c21.6-21.6,56.7-21.6,78.4,0L82,247.3z"/>
			<path class="st3" d="M82,247.3l39.2,39.2c-21.6,21.6-56.7,21.6-78.4,0L82,247.3z"/>
			<path class="st4" d="M82,247.3l39.2,39.2c21.6-21.6,21.6-56.7,0-78.4L82,247.3z"/>
		</g>
		<g>
			<path class="st5" d="M89.8,252.8l-39.2-39.2C29,235.3,29,270.3,50.7,292L89.8,252.8z"/>
			<path class="st5" d="M89.8,252.8l-39.2-39.2c21.6-21.6,56.7-21.6,78.4,0L89.8,252.8z"/>
			<path class="st5" d="M89.8,252.8L129,292c-21.6,21.6-56.7,21.6-78.4,0L89.8,252.8z"/>
			<path class="st6" d="M89.8,252.8L129,292c21.6-21.6,21.6-56.7,0-78.4L89.8,252.8z"/>
		</g>
		<g>
			<path class="st7" d="M85.8,250.3l-39.2-39.2c-21.6,21.6-21.6,56.7,0,78.4L85.8,250.3z"/>
			<path class="st8" d="M85.8,250.3l-39.2-39.2c21.6-21.6,56.7-21.6,78.4,0L85.8,250.3z"/>
			<path class="st9" d="M85.8,250.3l39.2,39.2c-21.6,21.6-56.7,21.6-78.4,0L85.8,250.3z"/>
			<path class="st10" d="M85.8,250.3l39.2,39.2c21.6-21.6,21.6-56.7,0-78.4L85.8,250.3z"/>
		</g>
		<path class="st11" d="M93.8,247.7c0-12.1,1-23.2-15.2-22.7c-0.2,17.8-0.1,18.3,0,36.1c0,17.8-0.1,19.4,0,37.2
			c15.4,0.6,15.2-8.9,15.2-22.7c0.1-6.1,0.1-10.2,0.1-13.5C94,254.5,93.9,262.2,93.8,247.7L93.8,247.7z M77.8,202.3
			c11.6-0.4,14.6,4.7,15.3,11.2c0.2,2.1,0,4.3-0.1,7c-11.4,0.4-14.6-2.4-15.2-8.7C77.5,209.7,77.8,205.1,77.8,202.3z"/>
		<g>
			<defs>
				<path id="SVGID_1_" d="M93.8,247.7c0-12.1,1-23.2-15.2-22.7c-0.2,17.8-0.1,18.3,0,36.1c0,17.8-0.1,19.4,0,37.2
					c15.4,0.6,15.2-8.9,15.2-22.7c0.1-6.1,0.1-10.2,0.1-13.5C94,254.5,93.9,262.2,93.8,247.7L93.8,247.7z M77.8,202.3
					c11.6-0.4,14.6,4.7,15.3,11.2c0.2,2.1,0,4.3-0.1,7c-11.4,0.4-14.6-2.4-15.2-8.7C77.5,209.7,77.8,205.1,77.8,202.3z"/>
			</defs>
			<clipPath id="SVGID_2_">
				<use xlink:href="#SVGID_1_"  style="overflow:visible;"/>
			</clipPath>
		</g>
		<path class="st12" d="M79.1,225.1c-0.6,0-1.3,0-1.9,0c-0.2,17.8-0.1,18.3,0,36.1c0,17.8-0.1,19.4,0,37.2c0.7,0,1.4,0,2,0l-0.5,0
			c-0.2-17.8-0.1-19.4,0-37.2c0-17.8-0.1-18.3,0-36.1L79.1,225.1L79.1,225.1z M76.3,202.3c0.7,0,1.4,0,2.1,0l-0.6,0
			c0,2.8-0.3,7.4-0.1,9.6c0.6,5.7,3.3,8.6,12.4,8.7c-10.3,0.2-13.2-2.7-13.9-8.7C76,209.7,76.3,205.1,76.3,202.3z"/>
		<g>
			<defs>
				<path id="SVGID_3_" d="M79.1,225.1c-0.6,0-1.3,0-1.9,0c-0.2,17.8-0.1,18.3,0,36.1c0,17.8-0.1,19.4,0,37.2c0.7,0,1.4,0,2,0
					l-0.5,0c-0.2-17.8-0.1-19.4,0-37.2c0-17.8-0.1-18.3,0-36.1L79.1,225.1L79.1,225.1z M76.3,202.3c0.7,0,1.4,0,2.1,0l-0.6,0
					c0,2.8-0.3,7.4-0.1,9.6c0.6,5.7,3.3,8.6,12.4,8.7c-10.3,0.2-13.2-2.7-13.9-8.7C76,209.7,76.3,205.1,76.3,202.3z"/>
			</defs>
			<clipPath id="SVGID_4_">
				<use xlink:href="#SVGID_3_"  style="overflow:visible;"/>
			</clipPath>
		</g>
		<path class="st13" d="M95.3,247.7c0-11.9,1-23-14.7-22.7h0h0l0,0h0h0l0,0h0l0,0h0l0.1,0l0,0h0l0,0h0l0,0h0l0,0h0l0,0h0l0,0h0l0,0
			l0,0h0l0,0h0l0,0l0,0h0l0,0l0,0h0l0,0l0,0h0l0,0l0,0l0,0l0,0l0.1,0l0,0l0,0l0,0l0,0h0l0,0l0,0l0,0l0,0l0,0l0,0h0l0,0l0,0l0,0l0,0
			l0,0l0.1,0h0l0.5,0h0l0.1,0l0.4,0l0,0l0.1,0h0l0.5,0.1l0,0l0,0l0,0l0,0l0,0l0,0l0,0l0,0l0,0l0,0l0,0l0,0l0,0l0,0l0,0l0,0l0,0l0,0
			l0,0l0,0l0.1,0l0,0l0,0l0,0l0,0l0,0l0,0l0,0l0,0l0,0l0.2,0l0,0l0,0l0,0l0,0l0,0l0,0l0,0l0.2,0.1l0,0l0,0l0,0l0,0l0,0l0,0l0,0l0,0
			l0,0l0.2,0.1l0,0l0,0h0l0.1,0l0.1,0l0.1,0l0.1,0l0.1,0l0,0l0.1,0l0.1,0l0.1,0l0.2,0.1l0.1,0l0.1,0l0.1,0l0.1,0l0.2,0.1l0.1,0
			l0.1,0l0.1,0l0.2,0.1l0.1,0l0.1,0l0.1,0l0.2,0.1l0.1,0l0.1,0l0.1,0l0.1,0.1l0.1,0l0.1,0l0.1,0l0.1,0.1l0.1,0l0.1,0l0.1,0l0.1,0
			l0.2,0.1l0.1,0l0.1,0l0.2,0.2l0.1,0.1l0.1,0.1l0.1,0.1l0.2,0.2l0.1,0.1l0.1,0.1l0.1,0.1l0,0l0,0l0.1,0.1l0.1,0.1l0.1,0.1l0,0.1
			l0,0c0.2,0.2,0.3,0.4,0.5,0.6l0,0l0.2,0.3l0,0l0,0l0.2,0.3l0,0.1l0.2,0.3l0,0l0,0l0,0l0.1,0.2l0,0l0.1,0.1L92,231l0,0l0,0.1
			l0.1,0.3l0,0l0,0.1l0.1,0.3l0,0.1l0,0l0,0l0,0l0,0l0,0l0,0l0,0l0,0l0,0l0,0l0,0l0,0l0,0l0,0l0,0l0,0l0,0l0,0l0,0l0,0l0,0l0,0.1
			l0,0l0,0l0,0l0,0l0,0l0,0l0,0l0,0l0,0l0,0l0,0l0,0l0,0l0,0l0,0v0l0,0l0,0l0,0l0,0l0,0l0,0l0,0l0,0l0,0l0,0l0,0l0,0l0,0l0,0l0,0
			l0,0l0,0.1l0,0l0,0l0,0l0,0l0,0l0,0l0,0l0,0l0,0l0,0l0,0l0,0l0,0l0,0.1l0,0l0,0l0,0l0,0l0,0l0,0l0,0l0,0l0,0l0,0l0,0l0,0l0,0l0,0
			l0,0l0,0l0,0l0,0l0,0l0,0l0,0l0,0l0,0l0,0l0,0l0,0l0,0l0,0l0,0l0,0l0,0l0,0l0,0l0,0l0,0l0,0l0,0l0,0l0,0l0,0l0,0l0,0l0,0l0,0l0,0
			l0,0l0,0l0,0l0,0l0,0l0,0l0,0l0,0l0.1,0.4v0l0.1,0.5l0,0l0.1,0.4l0,0l0.1,0.5l0,0.4l0,0.1l0,0.4l0,0.1l0,0.4l0,0.1l0,0.4l0,0.1
			l0,0.3l0,0.2l0,0.3l0,0.2l0,0.5l0,0.3l0,0.2l0,0.3l0,0.3l0,0.2l0,0.3l0,0.2l0,0.3l0,0.2l0,0.3v0.2v0.4v0.2v0.4v0.1l0,0.4l0,0.6
			v0.1l0,0.5v0.1l0,0.5l0,0.6v0v0.5c0.1,14.4,0.2,6.8,0.1,14.5c0,3.3-0.1,7.4-0.1,13.5v0.6v0v0.6v0.1v0.5v0.1l0,0.6l0,0.6l0,0.4
			l0,0.2l0,0.4l0,0.2l0,0.4l0,0.2l0,0.3l0,0.2l0,0.3l0,0.3l0,0.3l0,0.3l0,0.3l0,0.3l0,0.2l0,0.3l0,0.2l0,0.3l0,0.2l0,0.4l0,0.1
			l0,0.4l0,0.5l0,0.1l0,0.4l-0.1,0.5l0,0l-0.1,0.5l0,0l-0.1,0.5v0l-0.1,0.5l-0.1,0.5l-0.1,0.4l0,0.1c-0.1,0.2-0.1,0.5-0.2,0.7l0,0.1
			l0,0.1l-0.1,0.3l0,0l0,0.1l-0.1,0.2l0,0.1l0,0.1l0,0.1l-0.1,0.3l0,0l-0.1,0.2l0,0l0,0l-0.1,0.3l0,0l0,0.1l0,0l-0.1,0.2l-0.1,0.2
			l0,0.1l0,0.1l-0.1,0.2l-0.1,0.2l0,0l-0.1,0.1l-0.1,0.2l0,0l-0.1,0.2l-0.1,0.1l0,0l-0.1,0.2l0,0l-0.1,0.1l-0.1,0.2l0,0l-0.1,0.1
			l0,0l-0.2,0.2l0,0.1l-0.2,0.2l0,0l-0.2,0.3l0,0l-0.3,0.3l0,0l-0.3,0.3l0,0l-0.3,0.2l0,0l-0.3,0.2l0,0l0,0l0,0l0,0l-0.3,0.2l0,0
			l0,0l0,0l-0.1,0l-0.3,0.2l0,0l-0.1,0.1l-0.2,0.1l-0.2,0.1l0,0l-0.2,0.1l-0.2,0.1l0,0l-0.2,0.1l-0.1,0l-0.1,0l-0.3,0.1l-0.2,0.1h0
			l-0.3,0.1l-0.2,0.1l0,0l-0.3,0.1l-0.2,0.1l-0.2,0.1l0,0l-0.2,0l-0.3,0.1l-0.3,0.1l-0.2,0l-0.3,0.1l0,0l-0.3,0l-0.2,0l-0.3,0
			l-0.3,0l0,0l-0.1,0l0,0l-0.4,0l-0.1,0l0,0l0,0l0,0l0,0l0,0l0,0l0,0l0,0l0,0l0,0h0l0,0l0,0l0,0l0,0l0,0l0,0l0,0l0,0l-0.2,0l0,0l0,0
			h0l0,0l0,0l0,0h0l0,0l0,0l0,0h0l0,0l0,0l0,0h0l0,0l0,0h0l0,0l0,0h0l0,0l0,0h0l0,0l0,0h0l0,0l0,0l0,0h0h0l0,0h0l0,0l-0.6,0l-0.1,0
			c14.9,0.3,14.7-9,14.7-22.7c0.1-6.1,0.1-10.2,0.1-13.5C95.5,254.5,95.4,262.2,95.3,247.7L95.3,247.7z M79.9,202.3
			c11.2-0.2,14,4.9,14.7,11.2c0.2,2.1,0,4.3-0.1,7c-1,0-2,0.1-2.8,0l0,0h0h0h0l0,0h0h0l0,0h0h0h0l0,0h0h0h0l0,0h0h0l0,0h0h0l0,0h0h0
			l0,0h0h0l0,0h0h0l0,0h0l0,0h0h0l0,0h0l0,0h0h0l0,0h0h0l0,0h0l0,0h0l0,0h0l0,0h0l0,0h0l0,0h0l0,0h0l0,0h0l0,0h0l0,0h0l0,0
			c0-2.7,0.3-4.9,0.1-7l0-0.3l0-0.3l0,0l0-0.2l0-0.1l0-0.3l0-0.2l0-0.1l0-0.2l0-0.1l0-0.2l0-0.1l0-0.1l0-0.1l0-0.1l0-0.2l-0.1-0.3
			l0-0.1l-0.1-0.2l0-0.1l-0.1-0.2l0,0l-0.1-0.2l-0.1-0.3l0,0l-0.1-0.2v0L92,209l0,0l-0.1-0.2l0,0l-0.1-0.2l0-0.1l-0.1-0.2l0-0.1
			l-0.1-0.2l0,0l0,0l-0.1-0.2l0,0l-0.1-0.1l-0.1-0.1l-0.1-0.1l-0.1-0.1l-0.1-0.2l0,0L91,207l0,0l-0.1-0.2l0,0l0-0.1l-0.1-0.2l0-0.1
			l-0.1-0.2l0,0l-0.1-0.2l0,0l-0.2-0.2l0,0l-0.2-0.2l0,0l-0.2-0.2l-0.2-0.2l0,0l-0.2-0.2l0,0l-0.2-0.1l-0.1,0l-0.2-0.1l-0.2-0.1l0,0
			l-0.1-0.1l-0.1-0.1l-0.1-0.1l-0.1-0.1l-0.1-0.1l-0.1-0.1l0,0l-0.2-0.1l0,0l0,0l-0.2-0.1l-0.3-0.1l-0.1,0l-0.2-0.1l-0.1,0l-0.3-0.1
			l0,0l-0.3-0.1l0,0l-0.3-0.1l0,0l-0.3-0.1l-0.3-0.1c-0.3-0.1-0.6-0.2-0.9-0.2l-0.1,0l-0.1,0l-0.2,0l0,0l-0.3-0.1l-0.1,0l-0.2,0l0,0
			l-0.3-0.1l-0.1,0l-0.2,0l-0.3,0l-0.1,0l-0.3,0l-0.1,0l-0.3,0l-0.1,0l-0.4,0l-0.1,0l-0.4,0l-0.5,0h0L79.9,202.3L79.9,202.3z
			 M91.6,220.5L91.6,220.5L91.6,220.5L91.6,220.5z"/>
		<g>
			<defs>
				<path id="SVGID_5_" d="M95.3,247.7c0-11.9,1-23-14.7-22.7h0h0l0,0h0h0l0,0h0l0,0h0l0.1,0l0,0h0l0,0h0l0,0h0l0,0h0l0,0h0l0,0h0
					l0,0l0,0h0l0,0h0l0,0l0,0h0l0,0l0,0h0l0,0l0,0h0l0,0l0,0l0,0l0,0l0.1,0l0,0l0,0l0,0l0,0h0l0,0l0,0l0,0l0,0l0,0l0,0h0l0,0l0,0
					l0,0l0,0l0,0l0.1,0h0l0.5,0h0l0.1,0l0.4,0l0,0l0.1,0h0l0.5,0.1l0,0l0,0l0,0l0,0l0,0l0,0l0,0l0,0l0,0l0,0l0,0l0,0l0,0l0,0l0,0
					l0,0l0,0l0,0l0,0l0,0l0.1,0l0,0l0,0l0,0l0,0l0,0l0,0l0,0l0,0l0,0l0.2,0l0,0l0,0l0,0l0,0l0,0l0,0l0,0l0.2,0.1l0,0l0,0l0,0l0,0
					l0,0l0,0l0,0l0,0l0,0l0.2,0.1l0,0l0,0h0l0.1,0l0.1,0l0.1,0l0.1,0l0.1,0l0,0l0.1,0l0.1,0l0.1,0l0.2,0.1l0.1,0l0.1,0l0.1,0l0.1,0
					l0.2,0.1l0.1,0l0.1,0l0.1,0l0.2,0.1l0.1,0l0.1,0l0.1,0l0.2,0.1l0.1,0l0.1,0l0.1,0l0.1,0.1l0.1,0l0.1,0l0.1,0l0.1,0.1l0.1,0
					l0.1,0l0.1,0l0.1,0l0.2,0.1l0.1,0l0.1,0l0.2,0.2l0.1,0.1l0.1,0.1l0.1,0.1l0.2,0.2l0.1,0.1l0.1,0.1l0.1,0.1l0,0l0,0l0.1,0.1
					l0.1,0.1l0.1,0.1l0,0.1l0,0c0.2,0.2,0.3,0.4,0.5,0.6l0,0l0.2,0.3l0,0l0,0l0.2,0.3l0,0.1l0.2,0.3l0,0l0,0l0,0l0.1,0.2l0,0
					l0.1,0.1L92,231l0,0l0,0.1l0.1,0.3l0,0l0,0.1l0.1,0.3l0,0.1l0,0l0,0l0,0l0,0l0,0l0,0l0,0l0,0l0,0l0,0l0,0l0,0l0,0l0,0l0,0l0,0
					l0,0l0,0l0,0l0,0l0,0l0,0.1l0,0l0,0l0,0l0,0l0,0l0,0l0,0l0,0l0,0l0,0l0,0l0,0l0,0l0,0l0,0v0l0,0l0,0l0,0l0,0l0,0l0,0l0,0l0,0
					l0,0l0,0l0,0l0,0l0,0l0,0l0,0l0,0l0,0.1l0,0l0,0l0,0l0,0l0,0l0,0l0,0l0,0l0,0l0,0l0,0l0,0l0,0l0,0.1l0,0l0,0l0,0l0,0l0,0l0,0
					l0,0l0,0l0,0l0,0l0,0l0,0l0,0l0,0l0,0l0,0l0,0l0,0l0,0l0,0l0,0l0,0l0,0l0,0l0,0l0,0l0,0l0,0l0,0l0,0l0,0l0,0l0,0l0,0l0,0l0,0
					l0,0l0,0l0,0l0,0l0,0l0,0l0,0l0,0l0,0l0,0l0,0l0,0l0,0l0,0l0,0l0,0l0,0l0.1,0.4v0l0.1,0.5l0,0l0.1,0.4l0,0l0.1,0.5l0,0.4l0,0.1
					l0,0.4l0,0.1l0,0.4l0,0.1l0,0.4l0,0.1l0,0.3l0,0.2l0,0.3l0,0.2l0,0.5l0,0.3l0,0.2l0,0.3l0,0.3l0,0.2l0,0.3l0,0.2l0,0.3l0,0.2
					l0,0.3v0.2v0.4v0.2v0.4v0.1l0,0.4l0,0.6v0.1l0,0.5v0.1l0,0.5l0,0.6v0v0.5c0.1,14.4,0.2,6.8,0.1,14.5c0,3.3-0.1,7.4-0.1,13.5v0.6
					v0v0.6v0.1v0.5v0.1l0,0.6l0,0.6l0,0.4l0,0.2l0,0.4l0,0.2l0,0.4l0,0.2l0,0.3l0,0.2l0,0.3l0,0.3l0,0.3l0,0.3l0,0.3l0,0.3l0,0.2
					l0,0.3l0,0.2l0,0.3l0,0.2l0,0.4l0,0.1l0,0.4l0,0.5l0,0.1l0,0.4l-0.1,0.5l0,0l-0.1,0.5l0,0l-0.1,0.5v0l-0.1,0.5l-0.1,0.5
					l-0.1,0.4l0,0.1c-0.1,0.2-0.1,0.5-0.2,0.7l0,0.1l0,0.1l-0.1,0.3l0,0l0,0.1l-0.1,0.2l0,0.1l0,0.1l0,0.1l-0.1,0.3l0,0l-0.1,0.2
					l0,0l0,0l-0.1,0.3l0,0l0,0.1l0,0l-0.1,0.2l-0.1,0.2l0,0.1l0,0.1l-0.1,0.2l-0.1,0.2l0,0l-0.1,0.1l-0.1,0.2l0,0l-0.1,0.2l-0.1,0.1
					l0,0l-0.1,0.2l0,0l-0.1,0.1l-0.1,0.2l0,0l-0.1,0.1l0,0l-0.2,0.2l0,0.1l-0.2,0.2l0,0l-0.2,0.3l0,0l-0.3,0.3l0,0l-0.3,0.3l0,0
					l-0.3,0.2l0,0l-0.3,0.2l0,0l0,0l0,0l0,0l-0.3,0.2l0,0l0,0l0,0l-0.1,0l-0.3,0.2l0,0l-0.1,0.1l-0.2,0.1l-0.2,0.1l0,0l-0.2,0.1
					l-0.2,0.1l0,0l-0.2,0.1l-0.1,0l-0.1,0l-0.3,0.1l-0.2,0.1h0l-0.3,0.1l-0.2,0.1l0,0l-0.3,0.1l-0.2,0.1l-0.2,0.1l0,0l-0.2,0
					l-0.3,0.1l-0.3,0.1l-0.2,0l-0.3,0.1l0,0l-0.3,0l-0.2,0l-0.3,0l-0.3,0l0,0l-0.1,0l0,0l-0.4,0l-0.1,0l0,0l0,0l0,0l0,0l0,0l0,0l0,0
					l0,0l0,0l0,0h0l0,0l0,0l0,0l0,0l0,0l0,0l0,0l0,0l-0.2,0l0,0l0,0h0l0,0l0,0l0,0h0l0,0l0,0l0,0h0l0,0l0,0l0,0h0l0,0l0,0h0l0,0l0,0
					h0l0,0l0,0h0l0,0l0,0h0l0,0l0,0l0,0h0h0l0,0h0l0,0l-0.6,0l-0.1,0c14.9,0.3,14.7-9,14.7-22.7c0.1-6.1,0.1-10.2,0.1-13.5
					C95.5,254.5,95.4,262.2,95.3,247.7L95.3,247.7z M79.9,202.3c11.2-0.2,14,4.9,14.7,11.2c0.2,2.1,0,4.3-0.1,7c-1,0-2,0.1-2.8,0
					l0,0h0h0h0l0,0h0h0l0,0h0h0h0l0,0h0h0h0l0,0h0h0l0,0h0h0l0,0h0h0l0,0h0h0l0,0h0h0l0,0h0l0,0h0h0l0,0h0l0,0h0h0l0,0h0h0l0,0h0
					l0,0h0l0,0h0l0,0h0l0,0h0l0,0h0l0,0h0l0,0h0l0,0h0l0,0h0l0,0c0-2.7,0.3-4.9,0.1-7l0-0.3l0-0.3l0,0l0-0.2l0-0.1l0-0.3l0-0.2
					l0-0.1l0-0.2l0-0.1l0-0.2l0-0.1l0-0.1l0-0.1l0-0.1l0-0.2l-0.1-0.3l0-0.1l-0.1-0.2l0-0.1l-0.1-0.2l0,0l-0.1-0.2l-0.1-0.3l0,0
					l-0.1-0.2v0L92,209l0,0l-0.1-0.2l0,0l-0.1-0.2l0-0.1l-0.1-0.2l0-0.1l-0.1-0.2l0,0l0,0l-0.1-0.2l0,0l-0.1-0.1l-0.1-0.1l-0.1-0.1
					l-0.1-0.1l-0.1-0.2l0,0L91,207l0,0l-0.1-0.2l0,0l0-0.1l-0.1-0.2l0-0.1l-0.1-0.2l0,0l-0.1-0.2l0,0l-0.2-0.2l0,0l-0.2-0.2l0,0
					l-0.2-0.2l-0.2-0.2l0,0l-0.2-0.2l0,0l-0.2-0.1l-0.1,0l-0.2-0.1l-0.2-0.1l0,0l-0.1-0.1l-0.1-0.1l-0.1-0.1l-0.1-0.1l-0.1-0.1
					l-0.1-0.1l0,0l-0.2-0.1l0,0l0,0l-0.2-0.1l-0.3-0.1l-0.1,0l-0.2-0.1l-0.1,0l-0.3-0.1l0,0l-0.3-0.1l0,0l-0.3-0.1l0,0l-0.3-0.1
					l-0.3-0.1c-0.3-0.1-0.6-0.2-0.9-0.2l-0.1,0l-0.1,0l-0.2,0l0,0l-0.3-0.1l-0.1,0l-0.2,0l0,0l-0.3-0.1l-0.1,0l-0.2,0l-0.3,0l-0.1,0
					l-0.3,0l-0.1,0l-0.3,0l-0.1,0l-0.4,0l-0.1,0l-0.4,0l-0.5,0h0L79.9,202.3L79.9,202.3z M91.6,220.5L91.6,220.5L91.6,220.5
					L91.6,220.5z"/>
			</defs>
			<clipPath id="SVGID_6_">
				<use xlink:href="#SVGID_5_"  style="overflow:visible;"/>
			</clipPath>
		</g>
		<g>
			<defs>
				<path id="SVGID_7_" d="M95.3,247.7c0-11.9,1-23-14.7-22.7h0h0l0,0h0h0l0,0h0l0,0h0l0.1,0l0,0h0l0,0h0l0,0h0l0,0h0l0,0h0l0,0h0
					l0,0l0,0h0l0,0h0l0,0l0,0h0l0,0l0,0h0l0,0l0,0h0l0,0l0,0l0,0l0,0l0.1,0l0,0l0,0l0,0l0,0h0l0,0l0,0l0,0l0,0l0,0l0,0h0l0,0l0,0
					l0,0l0,0l0,0l0.1,0h0l0.5,0h0l0.1,0l0.4,0l0,0l0.1,0h0l0.5,0.1l0,0l0,0l0,0l0,0l0,0l0,0l0,0l0,0l0,0l0,0l0,0l0,0l0,0l0,0l0,0
					l0,0l0,0l0,0l0,0l0,0l0.1,0l0,0l0,0l0,0l0,0l0,0l0,0l0,0l0,0l0,0l0.2,0l0,0l0,0l0,0l0,0l0,0l0,0l0,0l0.2,0.1l0,0l0,0l0,0l0,0
					l0,0l0,0l0,0l0,0l0,0l0.2,0.1l0,0l0,0h0l0.1,0l0.1,0l0.1,0l0.1,0l0.1,0l0,0l0.1,0l0.1,0l0.1,0l0.2,0.1l0.1,0l0.1,0l0.1,0l0.1,0
					l0.2,0.1l0.1,0l0.1,0l0.1,0l0.2,0.1l0.1,0l0.1,0l0.1,0l0.2,0.1l0.1,0l0.1,0l0.1,0l0.1,0.1l0.1,0l0.1,0l0.1,0l0.1,0.1l0.1,0
					l0.1,0l0.1,0l0.1,0l0.2,0.1l0.1,0l0.1,0l0.2,0.2l0.1,0.1l0.1,0.1l0.1,0.1l0.2,0.2l0.1,0.1l0.1,0.1l0.1,0.1l0,0l0,0l0.1,0.1
					l0.1,0.1l0.1,0.1l0,0.1l0,0c0.2,0.2,0.3,0.4,0.5,0.6l0,0l0.2,0.3l0,0l0,0l0.2,0.3l0,0.1l0.2,0.3l0,0l0,0l0,0l0.1,0.2l0,0
					l0.1,0.1L92,231l0,0l0,0.1l0.1,0.3l0,0l0,0.1l0.1,0.3l0,0.1l0,0l0,0l0,0l0,0l0,0l0,0l0,0l0,0l0,0l0,0l0,0l0,0l0,0l0,0l0,0l0,0
					l0,0l0,0l0,0l0,0l0,0l0,0.1l0,0l0,0l0,0l0,0l0,0l0,0l0,0l0,0l0,0l0,0l0,0l0,0l0,0l0,0l0,0v0l0,0l0,0l0,0l0,0l0,0l0,0l0,0l0,0
					l0,0l0,0l0,0l0,0l0,0l0,0l0,0l0,0l0,0.1l0,0l0,0l0,0l0,0l0,0l0,0l0,0l0,0l0,0l0,0l0,0l0,0l0,0l0,0.1l0,0l0,0l0,0l0,0l0,0l0,0
					l0,0l0,0l0,0l0,0l0,0l0,0l0,0l0,0l0,0l0,0l0,0l0,0l0,0l0,0l0,0l0,0l0,0l0,0l0,0l0,0l0,0l0,0l0,0l0,0l0,0l0,0l0,0l0,0l0,0l0,0
					l0,0l0,0l0,0l0,0l0,0l0,0l0,0l0,0l0,0l0,0l0,0l0,0l0,0l0,0l0,0l0,0l0,0l0.1,0.4v0l0.1,0.5l0,0l0.1,0.4l0,0l0.1,0.5l0,0.4l0,0.1
					l0,0.4l0,0.1l0,0.4l0,0.1l0,0.4l0,0.1l0,0.3l0,0.2l0,0.3l0,0.2l0,0.5l0,0.3l0,0.2l0,0.3l0,0.3l0,0.2l0,0.3l0,0.2l0,0.3l0,0.2
					l0,0.3v0.2v0.4v0.2v0.4v0.1l0,0.4l0,0.6v0.1l0,0.5v0.1l0,0.5l0,0.6v0v0.5c0.1,14.4,0.2,6.8,0.1,14.5c0,3.3-0.1,7.4-0.1,13.5v0.6
					v0v0.6v0.1v0.5v0.1l0,0.6l0,0.6l0,0.4l0,0.2l0,0.4l0,0.2l0,0.4l0,0.2l0,0.3l0,0.2l0,0.3l0,0.3l0,0.3l0,0.3l0,0.3l0,0.3l0,0.2
					l0,0.3l0,0.2l0,0.3l0,0.2l0,0.4l0,0.1l0,0.4l0,0.5l0,0.1l0,0.4l-0.1,0.5l0,0l-0.1,0.5l0,0l-0.1,0.5v0l-0.1,0.5l-0.1,0.5
					l-0.1,0.4l0,0.1c-0.1,0.2-0.1,0.5-0.2,0.7l0,0.1l0,0.1l-0.1,0.3l0,0l0,0.1l-0.1,0.2l0,0.1l0,0.1l0,0.1l-0.1,0.3l0,0l-0.1,0.2
					l0,0l0,0l-0.1,0.3l0,0l0,0.1l0,0l-0.1,0.2l-0.1,0.2l0,0.1l0,0.1l-0.1,0.2l-0.1,0.2l0,0l-0.1,0.1l-0.1,0.2l0,0l-0.1,0.2l-0.1,0.1
					l0,0l-0.1,0.2l0,0l-0.1,0.1l-0.1,0.2l0,0l-0.1,0.1l0,0l-0.2,0.2l0,0.1l-0.2,0.2l0,0l-0.2,0.3l0,0l-0.3,0.3l0,0l-0.3,0.3l0,0
					l-0.3,0.2l0,0l-0.3,0.2l0,0l0,0l0,0l0,0l-0.3,0.2l0,0l0,0l0,0l-0.1,0l-0.3,0.2l0,0l-0.1,0.1l-0.2,0.1l-0.2,0.1l0,0l-0.2,0.1
					l-0.2,0.1l0,0l-0.2,0.1l-0.1,0l-0.1,0l-0.3,0.1l-0.2,0.1h0l-0.3,0.1l-0.2,0.1l0,0l-0.3,0.1l-0.2,0.1l-0.2,0.1l0,0l-0.2,0
					l-0.3,0.1l-0.3,0.1l-0.2,0l-0.3,0.1l0,0l-0.3,0l-0.2,0l-0.3,0l-0.3,0l0,0l-0.1,0l0,0l-0.4,0l-0.1,0l0,0l0,0l0,0l0,0l0,0l0,0l0,0
					l0,0l0,0l0,0h0l0,0l0,0l0,0l0,0l0,0l0,0l0,0l0,0l-0.2,0l0,0l0,0h0l0,0l0,0l0,0h0l0,0l0,0l0,0h0l0,0l0,0l0,0h0l0,0l0,0h0l0,0l0,0
					h0l0,0l0,0h0l0,0l0,0h0l0,0l0,0l0,0h0h0l0,0h0l0,0l-0.6,0l-0.1,0c14.9,0.3,14.7-9,14.7-22.7c0.1-6.1,0.1-10.2,0.1-13.5
					C95.5,254.5,95.4,262.2,95.3,247.7L95.3,247.7z M79.9,202.3c11.2-0.2,14,4.9,14.7,11.2c0.2,2.1,0,4.3-0.1,7c-1,0-2,0.1-2.8,0
					l0,0h0h0h0l0,0h0h0l0,0h0h0h0l0,0h0h0h0l0,0h0h0l0,0h0h0l0,0h0h0l0,0h0h0l0,0h0h0l0,0h0l0,0h0h0l0,0h0l0,0h0h0l0,0h0h0l0,0h0
					l0,0h0l0,0h0l0,0h0l0,0h0l0,0h0l0,0h0l0,0h0l0,0h0l0,0h0l0,0c0-2.7,0.3-4.9,0.1-7l0-0.3l0-0.3l0,0l0-0.2l0-0.1l0-0.3l0-0.2
					l0-0.1l0-0.2l0-0.1l0-0.2l0-0.1l0-0.1l0-0.1l0-0.1l0-0.2l-0.1-0.3l0-0.1l-0.1-0.2l0-0.1l-0.1-0.2l0,0l-0.1-0.2l-0.1-0.3l0,0
					l-0.1-0.2v0L92,209l0,0l-0.1-0.2l0,0l-0.1-0.2l0-0.1l-0.1-0.2l0-0.1l-0.1-0.2l0,0l0,0l-0.1-0.2l0,0l-0.1-0.1l-0.1-0.1l-0.1-0.1
					l-0.1-0.1l-0.1-0.2l0,0L91,207l0,0l-0.1-0.2l0,0l0-0.1l-0.1-0.2l0-0.1l-0.1-0.2l0,0l-0.1-0.2l0,0l-0.2-0.2l0,0l-0.2-0.2l0,0
					l-0.2-0.2l-0.2-0.2l0,0l-0.2-0.2l0,0l-0.2-0.1l-0.1,0l-0.2-0.1l-0.2-0.1l0,0l-0.1-0.1l-0.1-0.1l-0.1-0.1l-0.1-0.1l-0.1-0.1
					l-0.1-0.1l0,0l-0.2-0.1l0,0l0,0l-0.2-0.1l-0.3-0.1l-0.1,0l-0.2-0.1l-0.1,0l-0.3-0.1l0,0l-0.3-0.1l0,0l-0.3-0.1l0,0l-0.3-0.1
					l-0.3-0.1c-0.3-0.1-0.6-0.2-0.9-0.2l-0.1,0l-0.1,0l-0.2,0l0,0l-0.3-0.1l-0.1,0l-0.2,0l0,0l-0.3-0.1l-0.1,0l-0.2,0l-0.3,0l-0.1,0
					l-0.3,0l-0.1,0l-0.3,0l-0.1,0l-0.4,0l-0.1,0l-0.4,0l-0.5,0h0L79.9,202.3L79.9,202.3z M91.6,220.5L91.6,220.5L91.6,220.5
					L91.6,220.5z"/>
			</defs>
			<clipPath id="SVGID_8_">
				<use xlink:href="#SVGID_7_"  style="overflow:visible;"/>
			</clipPath>
		</g>
	</g>
	<g>
		<path class="st0" d="M281.4,267.4c7.2,0,13-5.8,13-13s-5.8-13-13-13c-7.2,0-13,5.8-13,13S274.3,267.4,281.4,267.4z"/>
		<path class="st14" d="M384.4,251.9c2.5-8.6,8.7-15.7,18.4-15.8c10-0.1,16.9,7.5,17.1,15.7C413.4,252.2,391.8,251.8,384.4,251.9
			L384.4,251.9z M418.8,274c-1.2,1.4-1.7,2.7-3.2,4c-1.2,1.1-2.7,2.1-5.2,3.3c-12.7,6.5-24.1-4.8-25.9-17.2
			c24.2,0,27.5,0.3,34.6-0.4c8.1-0.5,12.2-5.4,12.5-11.8c0.2-3.7-0.9-8-3.2-12.2c-9.7-17.8-32.7-21.2-47.8-5.5
			c-6.5,6.8-8.2,14.9-8.5,22.9c-0.4,11.8,3.9,25.8,14.2,32.8c20.9,14.1,42.3-1,45.2-16.7C426,270.4,421.9,270.6,418.8,274z"/>
		<path class="st14" d="M211.2,235.8l-0.1-12.7c0-11.5,0.2-19.3-12.6-18.8c-0.1,14.3-0.1,31.2,0,45.5c0,6.1,0,12.3,0,18.4
			c0,11.3,1.6,17.6,8.1,22.6c3.1,2.5,7.1,4.1,11.4,4.7c3.9,0.6,8.1,0.3,12.4-0.9c0-5.3-1.4-9.7-7.3-11c-0.7-0.1-1.4-0.3-2.1-0.3
			c-0.9-0.1-2-0.3-2.9-0.6c-0.5-0.1-1-0.3-1.5-0.6c-4.2-1.8-5.3-5.2-5.3-11l0.1-22.7L211.2,235.8z"/>
		<path class="st14" d="M252.9,242.1c0-10,0.8-19.3-12.6-18.8c-0.1,14.8-0.1,26.7,0,41.5c0,14.8-0.1,16.1,0,31
			c12.8,0.5,12.6-7.4,12.6-18.8C253,259.8,253,259.2,252.9,242.1z"/>
		<path class="st14" d="M182,242.1c0-10,0.8-19.3-12.6-18.8c-0.1,14.8-0.1,26.7,0,41.5c0,14.8-0.1,16.1,0,31
			c12.8,0.5,12.6-7.4,12.6-18.8c0-5.1,0.1-8.5,0.1-11.2C182.1,259.3,182.1,254.2,182,242.1z"/>
		<path class="st14" d="M168.6,204.3c9.7-0.4,12.2,3.9,12.7,9.3c0.2,1.7,0,3.6-0.1,5.8c-9.5,0.4-12.1-2-12.7-7.2
			C168.4,210.5,168.6,206.7,168.6,204.3z"/>
		<path class="st14" d="M239.6,204.3c9.7-0.4,12.2,3.9,12.7,9.3c0.2,1.7,0,3.6-0.1,5.8c-9.5,0.4-12.1-2-12.7-7.2
			C239.4,210.5,239.6,206.7,239.6,204.3z"/>
		<path class="st14" d="M362.4,239.6L362.4,239.6v0.2v3.5l0,1.1c0.1,16.3,0.1,16.9,0,33.2c0,10.9,0.2,18.4-12,17.9
			c-0.2-18-0.1-36-0.1-54c0-3.3-4.7-5.1-9.6-5.5c-4.8-0.4-16.6,0.4-16.7,6.5c0,0.6,0,1.2,0,2.1c0.1,16.3,0.1,16.9,0,33.2
			c0,10.9,0.2,18.4-12,17.9c-0.2-23.5-0.1-47.1-0.1-70.6c2.3-0.1,10.4-0.7,12.1,0.6c0,0,0,2.3,0,2.3c2.8-2.4,9.5-3.6,15.5-3.5
			C350.6,224.7,363.4,229.5,362.4,239.6z"/>
		<path class="st14" d="M457.1,236.7l0-0.2l0.4,0l10.7,0c8.3-0.1,9.3-4.3,7.9-12.3h-19c0-11.3,0.2-19-12.4-18.6
			c-0.1,5.9-0.1,12.2-0.1,18.6h-6.7c-1.3,6.8-1.2,12.1,6.7,12.3c0,4.8,0,9.5,0,14c0,6,0,12.1,0,18.1c0,11.1,1.6,17.3,8,22.3
			c3.1,2.4,7,4,11.2,4.6c3.9,0.5,8,0.3,12.2-0.9c0-5.3-1.4-9.6-7.2-10.9c-0.6-0.1-1.3-0.2-2.1-0.3c-0.9-0.1-2-0.3-2.8-0.6
			c-0.5-0.1-1-0.3-1.5-0.5c-4.2-1.7-5.2-5.1-5.2-10.8l0.1-22.3L457.1,236.7z"/>
	</g>
</g>
</svg>
