<svg width="54" height="54" viewBox="0 0 54 54" fill="none" xmlns="http://www.w3.org/2000/svg">
<path d="M26.5 4C22.8411 4 19.2643 5.08501 16.222 7.11781C13.1796 9.15062 10.8085 12.0399 9.40824 15.4204C8.00802 18.8008 7.64165 22.5205 8.35548 26.1092C9.06931 29.6978 10.8313 32.9942 13.4185 35.5815C16.0058 38.1687 19.3022 39.9307 22.8908 40.6445C26.4795 41.3583 30.1992 40.992 33.5796 39.5918C36.9601 38.1915 39.8494 35.8203 41.8822 32.778C43.915 29.7357 45 26.1589 45 22.5C45 20.0705 44.5215 17.6649 43.5918 15.4204C42.6621 13.1758 41.2994 11.1364 39.5815 9.41852C37.8636 7.70064 35.8242 6.33794 33.5796 5.40823C31.3351 4.47852 28.9295 4 26.5 4ZM26.5 31.75C26.1341 31.75 25.7764 31.6415 25.4722 31.4382C25.168 31.2349 24.9309 30.946 24.7908 30.608C24.6508 30.2699 24.6142 29.8979 24.6856 29.5391C24.7569 29.1802 24.9331 28.8506 25.1919 28.5918C25.4506 28.3331 25.7802 28.1569 26.1391 28.0855C26.498 28.0142 26.8699 28.0508 27.208 28.1908C27.546 28.3308 27.8349 28.568 28.0382 28.8722C28.2415 29.1764 28.35 29.5341 28.35 29.9C28.35 30.3906 28.1551 30.8612 27.8082 31.2081C27.4612 31.5551 26.9907 31.75 26.5 31.75ZM28.35 24.35C28.35 24.8406 28.1551 25.3112 27.8082 25.6581C27.4612 26.0051 26.9907 26.2 26.5 26.2C26.0094 26.2 25.5388 26.0051 25.1919 25.6581C24.8449 25.3112 24.65 24.8406 24.65 24.35V15.1C24.65 14.6093 24.8449 14.1388 25.1919 13.7919C25.5388 13.4449 26.0094 13.25 26.5 13.25C26.9907 13.25 27.4612 13.4449 27.8082 13.7919C28.1551 14.1388 28.35 14.6093 28.35 15.1V24.35Z" fill="#E98035"/>
</svg>
