<svg width="17" height="16" viewBox="0 0 17 16" fill="none" xmlns="http://www.w3.org/2000/svg">
<path fill-rule="evenodd" clip-rule="evenodd" d="M17.0004 1.97886C17.0004 1.83284 16.9395 1.69277 16.831 1.58936V1.58825L15.3304 0.161533C15.2216 0.0581035 15.074 0 14.9202 0C14.7663 0 14.6187 0.0581035 14.5099 0.161533L13.2994 1.3135L15.6206 3.52034L16.831 2.36837C16.9395 2.26495 17.0004 2.12489 17.0004 1.97886ZM12.4789 2.09251L14.8 4.29935L6.89303 11.8191C6.82904 11.8795 6.75116 11.9248 6.66555 11.9516L3.86392 12.8398C3.81285 12.8559 3.75807 12.8582 3.7057 12.8464C3.65334 12.8346 3.60545 12.8092 3.5674 12.773C3.52935 12.7369 3.50263 12.6913 3.49023 12.6416C3.47783 12.5918 3.48024 12.5397 3.49718 12.4911L4.43144 9.82748C4.45991 9.74598 4.508 9.67192 4.57187 9.61121L12.4789 2.09251Z" fill="#E98035"/>
<path fill-rule="evenodd" clip-rule="evenodd" d="M0.509887 15.5158C0.183412 15.2054 0 14.7844 0 14.3455V2.20786C0 1.76889 0.183412 1.34791 0.509887 1.03751C0.836363 0.727113 1.27916 0.552734 1.74086 0.552734H9.28461C9.43851 0.552734 9.58611 0.610861 9.69494 0.714326C9.80376 0.817792 9.8649 0.958121 9.8649 1.10444C9.8649 1.25077 9.80376 1.3911 9.69494 1.49456C9.58611 1.59803 9.43851 1.65615 9.28461 1.65615H1.74086C1.58696 1.65615 1.43936 1.71428 1.33054 1.81774C1.22171 1.92121 1.16058 2.06154 1.16058 2.20786V14.3455C1.16058 14.4918 1.22171 14.6321 1.33054 14.7356C1.43936 14.839 1.58696 14.8972 1.74086 14.8972H14.5072C14.6611 14.8972 14.8087 14.839 14.9175 14.7356C15.0264 14.6321 15.0875 14.4918 15.0875 14.3455V7.72495C15.0875 7.57863 15.1486 7.4383 15.2575 7.33484C15.3663 7.23137 15.5139 7.17324 15.6678 7.17324C15.8217 7.17324 15.9693 7.23137 16.0781 7.33484C16.1869 7.4383 16.2481 7.57863 16.2481 7.72495V14.3455C16.2481 14.7844 16.0647 15.2054 15.7382 15.5158C15.4117 15.8262 14.9689 16.0006 14.5072 16.0006H1.74086C1.27916 16.0006 0.836363 15.8262 0.509887 15.5158Z" fill="#1C9489"/>
</svg>
