<svg id="Camada_1" data-name="Camada 1" xmlns="http://www.w3.org/2000/svg" viewBox="0 0 450 266.76"><path d="M246.77,319.47c3.63-12.49,12.7-22.89,26.77-23,14.52-.13,24.52,10.85,24.93,22.88-9.61.5-41-.07-51.7.13Zm50,32.17c-1.81,2-2.54,3.85-4.65,5.79a28.51,28.51,0,0,1-7.59,4.79c-18.43,9.39-35-6.91-37.71-25,35.13,0,40,.37,50.33-.63,11.77-.79,17.7-7.86,18.22-17.12.3-5.42-1.27-11.59-4.61-17.69-14.16-25.84-47.55-30.89-69.48-8-9.46,9.88-11.91,21.66-12.32,33.32-.62,17.2,5.67,37.57,20.66,47.69,30.34,20.48,61.52-1.52,65.76-24.22C307.17,346.4,301.23,346.68,296.72,351.64Z" transform="translate(-25 -116.62)" style="fill:#f2f2f2;fill-rule:evenodd"/><path d="M84.89,299.08l-.15-17.77c0-16.09.28-27.09-17.73-26.45-.2,20.12-.11,43.74-.06,63.9q0,12.9,0,25.78c0,15.84,2.25,24.64,11.34,31.77a33.37,33.37,0,0,0,16,6.55,42.56,42.56,0,0,0,17.35-1.25c0-7.5-1.93-13.64-10.26-15.49a23.11,23.11,0,0,0-3-.44,21,21,0,0,1-4-.85c-.68-.21-1.39-.46-2.14-.77-5.94-2.47-7.4-7.33-7.46-15.45l.11-31.82Z" transform="translate(-25 -116.62)" style="fill:#f2f2f2;fill-rule:evenodd"/><path d="M143.44,308c0-14.09,1.19-27.13-17.73-26.45-.2,20.79-.11,37.41,0,58.24s-.15,22.65,0,43.44c18,.64,17.73-10.36,17.73-26.45C143.64,332.76,143.64,332,143.44,308Z" transform="translate(-25 -116.62)" style="fill:#f2f2f2;fill-rule:evenodd"/><path d="M43.89,308c0-14.09,1.19-27.13-17.73-26.45-.21,20.79-.11,37.41-.06,58.24s-.15,22.65.06,43.44c18,.64,17.73-10.36,17.73-26.45.06-7.14.1-11.92.12-15.74C44.07,332,44,324.84,43.89,308Z" transform="translate(-25 -116.62)" style="fill:#f2f2f2;fill-rule:evenodd"/><path d="M25.18,254.9c13.59-.52,17.08,5.54,17.8,13.11.24,2.43,0,5-.07,8.16-13.36.52-17-2.8-17.8-10.12C24.84,263.53,25.15,258.2,25.18,254.9Z" transform="translate(-25 -116.62)" style="fill:#f2f2f2;fill-rule:evenodd"/><path d="M124.85,254.9c13.59-.52,17.08,5.54,17.8,13.11.23,2.43-.05,5-.07,8.16-13.36.52-17-2.8-17.8-10.12C124.51,263.53,124.82,258.2,124.85,254.9Z" transform="translate(-25 -116.62)" style="fill:#f2f2f2;fill-rule:evenodd"/><path d="M383.21,279.77a42.6,42.6,0,0,1,15.59,7.71c-3.78,9.29-9.29,12.44-17.85,9.89-3.41-1-4.86-1.94-8.69-2.29a36.87,36.87,0,0,0-22.82,5.64c.07,3,0,3.84,0,7,.2,24,.2,25,0,49,0,16.09.28,27.09-17.73,26.45-.34-34.7-.18-69.44-.18-104.14,3.45-.13,15.37-1.07,17.92.87.06,0-.06,3.43,0,3.39,5.08-4.43,19.35-7.54,33.77-3.55Z" transform="translate(-25 -116.62)" style="fill:#f2f2f2;fill-rule:evenodd"/><path d="M424.54,281.31h0c7.53-2,15.57-3,22.79-2.11,21.33,2.16,27.85,20.48,27.53,42.13.1,13.21.32,26.83-.15,40-.23,6.36-.34,10.85-2.35,13.49a9.27,9.27,0,0,1-4.27,3.22c-20.88,7.77-51.24,8.54-63.38-7.22-6.09-7.9-7.33-20.2-4.14-30.5,4.34-14,18.72-21.15,32.44-22.53a75.43,75.43,0,0,1,24.25,1.64c1.07-19.53-9.38-25.16-24.09-22.42-2.6.48-4.62,1.3-7.09,1.92-8.79,2.24-14.3-1.44-17.78-11.59,1.29-.78,7.06-3.62,16.24-6Zm28,55.23c-8.72-1.26-13.28-1.59-17.65-1.21-7.84.68-15.55,4.25-17.61,11.29-1.32,4.56-.55,9.78,2.5,13.2,6.48,7.28,22.69,6.92,33.85,3.34a5.08,5.08,0,0,0,2.28-1.49c1.07-1.22,1.13-3.29,1.25-6.23.23-5.51.15-11.2.1-16.78C457.27,338.1,457.27,337.54,452.56,336.54Z" transform="translate(-25 -116.62)" style="fill:#f2f2f2;fill-rule:evenodd"/><path d="M191.82,299.08v-.26h.57l15.21,0c11.81-.2,13.25-6.14,11.2-17.5H191.67c0-16.08.28-27.08-17.73-26.44-.09,8.38-.12,17.36-.13,26.44h-9.6c-1.83,9.69-1.75,17.26,9.62,17.55,0,6.84,0,13.55,0,19.91q0,12.9,0,25.78c0,15.84,2.24,24.64,11.34,31.77a33.37,33.37,0,0,0,16,6.55,42.52,42.52,0,0,0,17.34-1.25c0-7.5-1.92-13.64-10.25-15.49a23.63,23.63,0,0,0-3-.44,20.69,20.69,0,0,1-4.05-.85c-.68-.21-1.39-.46-2.14-.77-5.94-2.47-7.4-7.33-7.46-15.45l.11-31.82Z" transform="translate(-25 -116.62)" style="fill:#f2f2f2;fill-rule:evenodd"/><path d="M375,202.32c-13.2,4.34-24.06,7.6-33.48,13.22-10.68,6.29-19.67,14.17-27.9,22.59a86.2,86.2,0,0,0,41.93,0v.2C366.81,227.81,374,216,375,202.32Z" transform="translate(-25 -116.62)" style="fill:#f2f2f2;fill-rule:evenodd"/><path d="M252.16,242.07c16.67-9.25,38.67-11,57-5.91.74.2,3.18.77,4.65,1.23A7.41,7.41,0,0,1,315,238a6.15,6.15,0,0,1-.89,1.29c-1.1,1.25-2.92,3-3.32,3.39a84.74,84.74,0,0,1-38.73,21c-8.63-5-17.26-11.85-19.91-21.59Z" transform="translate(-25 -116.62)" style="fill:#f2f2f2;fill-rule:evenodd"/><path d="M224.59,206.05c-12.83,10.6-14.17,13.65-17.48,29.79,20,6.87,21.68,8.56,41.77,7.54,1.52-.07,3.11-.48,4.64-.57,0-.08-1.12-2.25-1.24-2.62-2.09-6.31-3.93-9.32-7.24-15.85C239.74,217,232.87,210,224.59,206.05Z" transform="translate(-25 -116.62)" style="fill:#f2f2f2;fill-rule:evenodd"/><path d="M225,206.74c6.74-8.14,10-11.52,14.19-21.44,2.45-5.86,3.65-10.59,5.44-19.75-18.71,6.06-26.09,12.13-39.71,25.39,4.9,9.08,11.74,14.05,20.1,15.84Z" transform="translate(-25 -116.62)" style="fill:#f2f2f2;fill-rule:evenodd"/><path d="M306.49,136.47l0-.09c-1.14-.33-2.92-.41-4.27-.71-11.89-2.6-28.64-1.63-39.91,1.15-10.91,10.37-14.64,16.74-18.42,27.93l-.82,2.52c.7-.14,1.39-.3,2.09-.46,20.74-4.75,44-15.6,56.92-26.86C303.26,138.91,305.82,137.18,306.49,136.47Z" transform="translate(-25 -116.62)" style="fill:#f2f2f2;fill-rule:evenodd"/><path d="M360.63,135.57a72.86,72.86,0,0,1,39.14.68c2.15,5.08.71,12.61-2.72,19.86-2.15,4.54-2.77,4.42-5.51,7.77-2.87-1.4-5.48-2.75-7.88-4.15a52.4,52.4,0,0,1-18.59-17.65C363.55,140.1,362.15,137.55,360.63,135.57Z" transform="translate(-25 -116.62)" style="fill:#f2f2f2;fill-rule:evenodd"/><path d="M373.48,204.11c.79-15.12,3.6-23,12.57-33.91,1.91-2.31,3.09-4.74,4.79-6.57a2.22,2.22,0,0,0,.55-1.22,10.06,10.06,0,0,0,1.76,1.42c2.66,1.67,3.44,2,5.44,3.13,7.35,4.19,9.82,9.71,12.59,16.38C403,192.59,394.65,198,373.48,204.11Z" transform="translate(-25 -116.62)" style="fill:#f2f2f2;fill-rule:evenodd"/><path d="M304.07,137c1.21-2.64,15.89-11.95,18.71-13.28a130.12,130.12,0,0,1,20.52-7.14c10.43,5.13,15.09,8.95,19.22,19.48-15.58,3-28.54,3.84-43.14,2.47C315.84,138.24,307,137.73,304.07,137Z" transform="translate(-25 -116.62)" style="fill:#f2f2f2;fill-rule:evenodd"/></svg>