<svg id="Camada_1" data-name="Camada 1" xmlns="http://www.w3.org/2000/svg" viewBox="0 0 475 281.58"><defs><style>.cls-1{fill:#179188;}.cls-1,.cls-2{fill-rule:evenodd;}.cls-2{fill:#e87c28;}</style></defs><path class="cls-1" d="M246.59,323.33c3.83-13.18,13.41-24.16,28.25-24.29,15.33-.14,25.89,11.46,26.32,24.15-10.15.53-43.24-.07-54.57.14Zm52.73,33.95c-1.91,2.11-2.69,4.07-4.91,6.12a30.29,30.29,0,0,1-8,5.06c-19.46,9.9-37-7.3-39.81-26.44,37.08,0,42.19.39,53.13-.66,12.42-.84,18.68-8.3,19.23-18.07.31-5.72-1.34-12.24-4.87-18.68-14.94-27.27-50.19-32.61-73.34-8.44-10,10.43-12.56,22.86-13,35.17-.65,18.15,6,39.66,21.81,50.34,32,21.62,64.94-1.61,69.4-25.57C310.34,351.76,304.08,352.05,299.32,357.28Z" transform="translate(-12.5 -109.21)"/><path class="cls-1" d="M75.72,301.81l-.16-18.76c0-17,.3-28.6-18.72-27.92-.2,21.24-.12,46.17-.06,67.45,0,9.07,0,18.15,0,27.21,0,16.72,2.37,26,12,33.54a35.18,35.18,0,0,0,16.87,6.91A45,45,0,0,0,104,388.92c0-7.92-2-14.4-10.83-16.35A25.59,25.59,0,0,0,90,372.1a20.79,20.79,0,0,1-4.27-.89c-.72-.22-1.47-.49-2.27-.82-6.27-2.6-7.81-7.73-7.87-16.31l.12-33.58Z" transform="translate(-12.5 -109.21)"/><path class="cls-1" d="M137.52,311.2c0-14.87,1.26-28.64-18.71-27.92-.22,21.94-.12,39.49-.06,61.48s-.16,23.9.06,45.85c19,.68,18.71-10.94,18.71-27.92C137.74,337.36,137.74,336.53,137.52,311.2Z" transform="translate(-12.5 -109.21)"/><path class="cls-1" d="M32.44,311.2c0-14.87,1.25-28.64-18.72-27.92-.21,21.94-.12,39.49-.06,61.48s-.15,23.9.06,45.85c19,.68,18.72-10.94,18.72-27.92.06-7.53.11-12.58.13-16.61C32.63,336.54,32.59,329,32.44,311.2Z" transform="translate(-12.5 -109.21)"/><path class="cls-1" d="M12.69,255.17C27,254.62,30.72,261,31.48,269c.25,2.56-.05,5.32-.08,8.62-14.09.54-17.94-3-18.78-10.68C12.33,264.28,12.66,258.65,12.69,255.17Z" transform="translate(-12.5 -109.21)"/><path class="cls-1" d="M117.89,255.17c14.35-.55,18,5.85,18.8,13.84.24,2.56-.05,5.32-.08,8.62-14.1.54-17.94-3-18.79-10.68C117.53,264.28,117.86,258.65,117.89,255.17Z" transform="translate(-12.5 -109.21)"/><path class="cls-1" d="M390.61,281.43a45,45,0,0,1,16.46,8.13c-4,9.8-9.81,13.13-18.84,10.44-3.61-1.07-5.14-2-9.18-2.42a38.86,38.86,0,0,0-24.08,6c.07,3.13,0,4,0,7.44.22,25.33.22,26.38,0,51.71,0,17,.3,28.6-18.71,27.92-.36-36.63-.19-73.3-.19-109.93,3.64-.13,16.22-1.12,18.91.92.07,0-.06,3.63,0,3.58,5.36-4.68,20.43-7.95,35.65-3.75Z" transform="translate(-12.5 -109.21)"/><path class="cls-1" d="M434.24,283.05h0c7.94-2.09,16.43-3.16,24.05-2.23,22.51,2.29,29.4,21.62,29.06,44.47.1,13.95.34,28.33-.16,42.19-.24,6.71-.35,11.44-2.48,14.23a9.87,9.87,0,0,1-4.5,3.41c-22,8.19-54.09,9-66.91-7.63-6.42-8.34-7.74-21.33-4.36-32.19,4.58-14.74,19.76-22.33,34.24-23.79a80,80,0,0,1,25.59,1.73c1.14-20.61-9.9-26.56-25.43-23.66-2.74.51-4.87,1.37-7.47,2-9.29,2.36-15.1-1.52-18.77-12.24,1.36-.82,7.45-3.82,17.14-6.32Zm29.58,58.3c-9.21-1.33-14-1.68-18.63-1.28-8.29.72-16.42,4.49-18.59,11.92-1.4,4.81-.59,10.32,2.63,13.93,6.85,7.68,24,7.31,35.73,3.52a5.23,5.23,0,0,0,2.41-1.57c1.13-1.29,1.19-3.47,1.32-6.57.24-5.82.16-11.83.1-17.71C468.79,343,468.78,342.41,463.82,341.35Z" transform="translate(-12.5 -109.21)"/><path class="cls-1" d="M188.59,301.81v-.27h.61l16.05,0c12.47-.21,14-6.48,11.82-18.47H188.43c0-17,.29-28.59-18.72-27.91-.09,8.84-.12,18.32-.13,27.91H159.45c-1.94,10.23-1.85,18.22,10.15,18.52,0,7.22,0,14.3.05,21q0,13.6,0,27.21c0,16.72,2.37,26,12,33.54a35.14,35.14,0,0,0,16.87,6.91,45,45,0,0,0,18.31-1.32c0-7.92-2-14.4-10.83-16.35a25.48,25.48,0,0,0-3.18-.47,20.93,20.93,0,0,1-4.27-.89c-.71-.22-1.47-.49-2.26-.82-6.27-2.6-7.81-7.73-7.87-16.31l.11-33.58Z" transform="translate(-12.5 -109.21)"/><path class="cls-2" d="M381.89,199.67c-13.93,4.58-25.4,8-35.33,14-11.28,6.63-20.77,15-29.46,23.84a91,91,0,0,0,44.26,0v.21C373.3,226.58,380.85,214.11,381.89,199.67Z" transform="translate(-12.5 -109.21)"/><path class="cls-2" d="M252.28,241.63c17.6-9.76,40.82-11.61,60.22-6.24.78.21,3.36.82,4.91,1.3a8.18,8.18,0,0,1,1.21.59,6.28,6.28,0,0,1-.94,1.36c-1.16,1.32-3.08,3.17-3.5,3.58a89.52,89.52,0,0,1-40.88,22.2c-9.11-5.29-18.23-12.5-21-22.79Z" transform="translate(-12.5 -109.21)"/><path class="cls-2" d="M223.18,203.6c-13.54,11.2-15,14.42-18.46,31.46,21.11,7.24,22.89,9,44.1,8,1.61-.09,3.28-.52,4.89-.61,0-.08-1.18-2.37-1.31-2.77-2.2-6.66-4.14-9.83-7.64-16.73C239.17,215.16,231.91,207.78,223.18,203.6Z" transform="translate(-12.5 -109.21)"/><path class="cls-2" d="M223.63,204.34c7.11-8.59,10.58-12.17,15-22.64,2.59-6.18,3.86-11.17,5.74-20.85-19.75,6.41-27.53,12.81-41.91,26.81,5.17,9.58,12.39,14.83,21.21,16.72Z" transform="translate(-12.5 -109.21)"/><path class="cls-2" d="M309.63,130.17l0-.1c-1.21-.35-3.09-.44-4.51-.75-12.55-2.75-30.23-1.72-42.13,1.21-11.51,10.95-15.45,17.67-19.44,29.48l-.86,2.67,2.2-.49c21.89-5,46.44-16.47,60.08-28.36C306.21,132.74,308.93,130.91,309.63,130.17Z" transform="translate(-12.5 -109.21)"/><path class="cls-2" d="M366.78,129.21a76.88,76.88,0,0,1,41.31.72c2.27,5.37.75,13.32-2.87,21-2.27,4.8-2.92,4.66-5.82,8.2-3-1.47-5.78-2.9-8.32-4.38a55.35,55.35,0,0,1-19.62-18.62C369.86,134,368.38,131.3,366.78,129.21Z" transform="translate(-12.5 -109.21)"/><path class="cls-2" d="M380.34,201.57c.83-16,3.8-24.33,13.27-35.8,2-2.44,3.26-5,5.05-6.94a2.37,2.37,0,0,0,.59-1.28,10.81,10.81,0,0,0,1.86,1.5c2.8,1.76,3.62,2.09,5.73,3.29,7.76,4.43,10.37,10.26,13.3,17.3C411.51,189.4,402.69,195.16,380.34,201.57Z" transform="translate(-12.5 -109.21)"/><path class="cls-2" d="M307.07,130.76c1.29-2.78,16.77-12.6,19.76-14a136.83,136.83,0,0,1,21.65-7.54c11,5.41,15.93,9.45,20.29,20.57-16.45,3.15-30.13,4.05-45.53,2.6C319.5,132,310.19,131.5,307.07,130.76Z" transform="translate(-12.5 -109.21)"/></svg>