<svg width="25" height="31" viewBox="0 0 25 31" fill="none" xmlns="http://www.w3.org/2000/svg">
<g clip-path="url(#clip0_2383_64264)">
<path d="M1 17.3125V28C1 29.1046 1.89543 30 3 30H22C23.1046 30 24 29.1046 24 28V3C24 1.89543 23.1046 1 22 1H17.06" stroke="#1C9489" stroke-width="2" stroke-linecap="round" stroke-linejoin="round"/>
<path d="M9.81728 5.71606C10.0866 5.98535 10.3002 6.30504 10.4459 6.65688C10.5917 7.00873 10.6667 7.38583 10.6667 7.76667C10.6667 8.1475 10.5917 8.5246 10.4459 8.87645C10.3002 9.22829 10.0866 9.54799 9.81728 9.81728C9.54799 10.0866 9.2283 10.3002 8.87646 10.4459C8.52461 10.5917 8.14751 10.6667 7.76667 10.6667C7.38584 10.6667 7.00874 10.5917 6.65689 10.4459C6.30505 10.3002 5.98535 10.0866 5.71606 9.81728" stroke="#1C9489" stroke-width="1.5"/>
<path d="M14 14V1L1 14H14Z" stroke="#E98035" stroke-width="2" stroke-linejoin="round"/>
</g>
<defs>
<clipPath id="clip0_2383_64264">
<rect width="25" height="31" fill="white"/>
</clipPath>
</defs>
</svg>
