<svg width="100" height="100" viewBox="0 0 100 100" fill="none" xmlns="http://www.w3.org/2000/svg">
<g clip-path="url(#clip0_8005_43595)">
<path d="M15.625 50C16.4538 50 17.2487 49.6708 17.8347 49.0847C18.4208 48.4987 18.75 47.7038 18.75 46.875C18.75 46.0462 18.4208 45.2513 17.8347 44.6653C17.2487 44.0792 16.4538 43.75 15.625 43.75C14.7962 43.75 14.0013 44.0792 13.4153 44.6653C12.8292 45.2513 12.5 46.0462 12.5 46.875C12.5 47.7038 12.8292 48.4987 13.4153 49.0847C14.0013 49.6708 14.7962 50 15.625 50Z" fill="#E98035"/>
<path d="M31.25 6.25C27.9348 6.25 24.7554 7.56696 22.4112 9.91117C20.067 12.2554 18.75 15.4348 18.75 18.75V31.25H12.5C9.18479 31.25 6.00537 32.567 3.66117 34.9112C1.31696 37.2554 0 40.4348 0 43.75L0 62.5C0 65.8152 1.31696 68.9946 3.66117 71.3388C6.00537 73.683 9.18479 75 12.5 75H18.75V81.25C18.75 84.5652 20.067 87.7446 22.4112 90.0888C24.7554 92.433 27.9348 93.75 31.25 93.75H68.75C72.0652 93.75 75.2446 92.433 77.5888 90.0888C79.933 87.7446 81.25 84.5652 81.25 81.25V75H87.5C90.8152 75 93.9946 73.683 96.3388 71.3388C98.683 68.9946 100 65.8152 100 62.5V43.75C100 40.4348 98.683 37.2554 96.3388 34.9112C93.9946 32.567 90.8152 31.25 87.5 31.25H81.25V18.75C81.25 15.4348 79.933 12.2554 77.5888 9.91117C75.2446 7.56696 72.0652 6.25 68.75 6.25H31.25ZM25 18.75C25 17.0924 25.6585 15.5027 26.8306 14.3306C28.0027 13.1585 29.5924 12.5 31.25 12.5H68.75C70.4076 12.5 71.9973 13.1585 73.1694 14.3306C74.3415 15.5027 75 17.0924 75 18.75V31.25H25V18.75ZM31.25 50C27.9348 50 24.7554 51.317 22.4112 53.6612C20.067 56.0054 18.75 59.1848 18.75 62.5V68.75H12.5C10.8424 68.75 9.25268 68.0915 8.08058 66.9194C6.90848 65.7473 6.25 64.1576 6.25 62.5V43.75C6.25 42.0924 6.90848 40.5027 8.08058 39.3306C9.25268 38.1585 10.8424 37.5 12.5 37.5H87.5C89.1576 37.5 90.7473 38.1585 91.9194 39.3306C93.0915 40.5027 93.75 42.0924 93.75 43.75V62.5C93.75 64.1576 93.0915 65.7473 91.9194 66.9194C90.7473 68.0915 89.1576 68.75 87.5 68.75H81.25V62.5C81.25 59.1848 79.933 56.0054 77.5888 53.6612C75.2446 51.317 72.0652 50 68.75 50H31.25ZM75 62.5V81.25C75 82.9076 74.3415 84.4973 73.1694 85.6694C71.9973 86.8415 70.4076 87.5 68.75 87.5H31.25C29.5924 87.5 28.0027 86.8415 26.8306 85.6694C25.6585 84.4973 25 82.9076 25 81.25V62.5C25 60.8424 25.6585 59.2527 26.8306 58.0806C28.0027 56.9085 29.5924 56.25 31.25 56.25H68.75C70.4076 56.25 71.9973 56.9085 73.1694 58.0806C74.3415 59.2527 75 60.8424 75 62.5Z" fill="#1C9489"/>
</g>
<defs>
<clipPath id="clip0_8005_43595">
<rect width="100" height="100" fill="white"/>
</clipPath>
</defs>
</svg>
