<svg width="13" height="16" viewBox="0 0 13 16" fill="none" xmlns="http://www.w3.org/2000/svg">
<path d="M4 5.54688C4.13261 5.54688 4.25979 5.59955 4.35355 5.69332C4.44732 5.78709 4.5 5.91427 4.5 6.04688V12.0469C4.5 12.1795 4.44732 12.3067 4.35355 12.4004C4.25979 12.4942 4.13261 12.5469 4 12.5469C3.86739 12.5469 3.74021 12.4942 3.64645 12.4004C3.55268 12.3067 3.5 12.1795 3.5 12.0469V6.04688C3.5 5.91427 3.55268 5.78709 3.64645 5.69332C3.74021 5.59955 3.86739 5.54688 4 5.54688ZM6.5 5.54688C6.63261 5.54688 6.75979 5.59955 6.85355 5.69332C6.94732 5.78709 7 5.91427 7 6.04688V12.0469C7 12.1795 6.94732 12.3067 6.85355 12.4004C6.75979 12.4942 6.63261 12.5469 6.5 12.5469C6.36739 12.5469 6.24021 12.4942 6.14645 12.4004C6.05268 12.3067 6 12.1795 6 12.0469V6.04688C6 5.91427 6.05268 5.78709 6.14645 5.69332C6.24021 5.59955 6.36739 5.54688 6.5 5.54688ZM9.5 6.04688C9.5 5.91427 9.44732 5.78709 9.35355 5.69332C9.25979 5.59955 9.13261 5.54688 9 5.54688C8.86739 5.54688 8.74021 5.59955 8.64645 5.69332C8.55268 5.78709 8.5 5.91427 8.5 6.04688V12.0469C8.5 12.1795 8.55268 12.3067 8.64645 12.4004C8.74021 12.4942 8.86739 12.5469 9 12.5469C9.13261 12.5469 9.25979 12.4942 9.35355 12.4004C9.44732 12.3067 9.5 12.1795 9.5 12.0469V6.04688Z" fill="white"/>
<path fill-rule="evenodd" clip-rule="evenodd" d="M13 3.04688C13 3.31209 12.8946 3.56645 12.7071 3.75398C12.5196 3.94152 12.2652 4.04688 12 4.04688H11.5V13.0469C11.5 13.5773 11.2893 14.086 10.9142 14.4611C10.5391 14.8362 10.0304 15.0469 9.5 15.0469H3.5C2.96957 15.0469 2.46086 14.8362 2.08579 14.4611C1.71071 14.086 1.5 13.5773 1.5 13.0469V4.04688H1C0.734784 4.04688 0.48043 3.94152 0.292893 3.75398C0.105357 3.56645 0 3.31209 0 3.04688V2.04688C0 1.78166 0.105357 1.5273 0.292893 1.33977C0.48043 1.15223 0.734784 1.04688 1 1.04688H4.5C4.5 0.781659 4.60536 0.527305 4.79289 0.339768C4.98043 0.152232 5.23478 0.046875 5.5 0.046875L7.5 0.046875C7.76522 0.046875 8.01957 0.152232 8.20711 0.339768C8.39464 0.527305 8.5 0.781659 8.5 1.04688H12C12.2652 1.04688 12.5196 1.15223 12.7071 1.33977C12.8946 1.5273 13 1.78166 13 2.04688V3.04688ZM2.618 4.04688L2.5 4.10588V13.0469C2.5 13.3121 2.60536 13.5664 2.79289 13.754C2.98043 13.9415 3.23478 14.0469 3.5 14.0469H9.5C9.76522 14.0469 10.0196 13.9415 10.2071 13.754C10.3946 13.5664 10.5 13.3121 10.5 13.0469V4.10588L10.382 4.04688H2.618ZM1 3.04688V2.04688H12V3.04688H1Z" fill="white"/>
</svg>