<svg width="1280" height="1033" viewBox="0 0 1280 1033" fill="none" xmlns="http://www.w3.org/2000/svg">
<g clip-path="url(#clip0_4036_49073)">
<rect width="1280" height="1033" fill="white"/>
<path d="M0 0H1280.75V1257.03H0V0Z" fill="#429890"/>
<g style="mix-blend-mode:color-burn">
<path d="M1064.01 716.669L1526.18 -8.8374L1187.61 82.5226L1064.01 716.669Z" fill="#F2F2F2"/>
<path d="M880.293 -62.5788L1122.13 -272.169L1186.62 82.5225L880.293 -62.5788Z" fill="#F2F2F2"/>
<path d="M881.29 -62.5788L1123.13 -272.169L145.036 120.141L881.29 -62.5788Z" fill="white"/>
<path d="M-177.413 -352.781L1123.12 -272.169L145.034 120.141L-177.413 -352.781Z" fill="#F2F2F2"/>
<path d="M-177.41 -352.781L-607.34 894.015L145.037 120.141L-177.41 -352.781Z" fill="white"/>
<path d="M274.014 1555.03L-607.342 894.015L-757.817 1495.92L274.014 1555.03Z" fill="white"/>
<path d="M1063.01 716.669L880.293 -62.5781L1186.62 82.5231L1063.01 716.669Z" fill="#E6E6E6"/>
<path d="M1614.86 818.777L1526.18 -8.8374L1064.01 716.669L1614.86 818.777Z" fill="white"/>
<path d="M1614.86 818.777L1794.89 1189.59L1064.01 716.669L1614.86 818.777Z" fill="#F2F2F2"/>
<path d="M1520.81 1485.17L1794.89 1189.59L1064.01 716.669L1520.81 1485.17Z" fill="#E6E6E6"/>
<path d="M1519.81 1485.17L931.344 1256.77L1063.01 716.669L1519.81 1485.17Z" fill="white"/>
<path d="M932.344 1256.77L274.014 1555.03L1064.01 716.669L932.344 1256.77Z" fill="#F2F2F2"/>
<path d="M322.381 684.424L274.014 1555.03L1064.01 716.669L322.381 684.424Z" fill="#E6E6E6"/>
<path d="M322.382 684.424L274.015 1555.03L-166.663 980L322.382 684.424Z" fill="white"/>
<path d="M322.382 684.423L145.036 120.141L1064.01 716.668L322.382 684.423Z" fill="white"/>
<path d="M322.382 684.424L145.036 120.141L-166.663 980L322.382 684.424Z" fill="#F2F2F2"/>
<path d="M-607.34 894.014L145.037 120.141L-166.662 980L-607.34 894.014Z" fill="#E6E6E6"/>
<path d="M-607.34 894.015L274.016 1555.03L-166.662 980.001L-607.34 894.015Z" fill="#F2F2F2"/>
<path d="M881.29 -62.5781L145.036 120.142L1064.01 716.669L881.29 -62.5781Z" fill="#F2F2F2"/>
<path d="M1826.13 -573.12L1525.18 -8.83708L1186.61 82.5229L1826.13 -573.12Z" fill="#E6E6E6"/>
<path d="M1827.13 -573.12L1123.12 -272.169L1187.61 82.5229L1827.13 -573.12Z" fill="white"/>
</g>
</g>
<defs>
<clipPath id="clip0_4036_49073">
<rect width="1280" height="1033" fill="white"/>
</clipPath>
</defs>
</svg>
