<svg width="517" height="130" viewBox="0 0 517 130" fill="none" xmlns="http://www.w3.org/2000/svg">
<path fill-rule="evenodd" clip-rule="evenodd" d="M98.6037 95.8694C100.213 90.3231 104.236 85.6964 110.501 85.6389C116.967 85.5814 121.392 90.4668 121.593 95.8119C117.312 96.0418 103.374 95.7832 98.6037 95.8694ZM120.818 110.18C122.8 107.968 125.444 107.853 129.065 109.663C127.197 119.779 113.346 129.549 99.8394 120.44C93.2011 115.957 90.3849 106.876 90.6722 99.2316C90.8447 94.0589 91.9367 88.8287 96.1323 84.432C105.903 74.259 120.731 76.5005 127.025 87.9954C128.519 90.6967 129.209 93.4554 129.065 95.8694C128.835 99.9788 126.191 103.111 120.961 103.456C116.363 103.916 114.208 103.715 98.6037 103.743C99.8107 111.79 107.167 119.06 115.357 114.865C116.996 114.117 117.944 113.457 118.748 112.738C119.668 111.876 120.013 111.043 120.818 110.18Z" fill="#FEFEFE"/>
<path fill-rule="evenodd" clip-rule="evenodd" d="M26.6452 86.8187L26.5877 78.9159C26.5877 71.7604 26.7027 66.8751 18.7137 67.1624C18.6275 76.0997 18.6562 86.5888 18.685 95.5548C18.685 99.3768 18.7137 103.199 18.685 107.021C18.685 114.062 19.6908 117.97 23.7427 121.131C25.6969 122.683 28.1395 123.66 30.8408 124.062C33.2835 124.407 35.9273 124.235 38.5424 123.487C38.5424 120.154 37.6803 117.424 33.9732 116.619C33.5709 116.504 33.1398 116.447 32.6513 116.418C32.0765 116.361 31.3868 116.217 30.8408 116.044C30.5535 115.929 30.2373 115.815 29.8925 115.7C27.2487 114.608 26.6165 112.424 26.5877 108.831L26.6452 94.6927V86.8187Z" fill="#FEFEFE"/>
<path fill-rule="evenodd" clip-rule="evenodd" d="M52.6815 90.753C52.6815 84.517 53.1987 78.7121 44.8075 78.9995C44.7213 88.2529 44.75 95.6383 44.7787 104.892C44.75 114.145 44.7213 114.95 44.8075 124.203C52.7964 124.49 52.6815 119.605 52.6815 112.45C52.7677 101.788 52.7677 101.443 52.6815 90.753Z" fill="#FEFEFE"/>
<path fill-rule="evenodd" clip-rule="evenodd" d="M8.42756 90.753C8.42756 84.517 8.97357 78.7121 0.553568 78.9995C0.467357 88.2529 0.496094 95.6383 0.524831 104.892C0.496094 114.145 0.467357 114.95 0.553568 124.203C8.57125 124.49 8.42756 119.605 8.42756 112.45C8.4563 109.26 8.48504 107.162 8.48504 105.438C8.51377 101.443 8.48504 98.2534 8.42756 90.753Z" fill="#FEFEFE"/>
<path fill-rule="evenodd" clip-rule="evenodd" d="M0.121791 67.1611C6.1566 66.9312 7.70841 69.6325 8.02452 72.9948C8.13947 74.0868 7.99579 75.2363 7.99579 76.6157C2.04718 76.8456 0.4379 75.38 0.0930535 72.1327C-0.0218953 71.0119 0.0930535 68.6267 0.121791 67.1611Z" fill="#FEFEFE"/>
<path fill-rule="evenodd" clip-rule="evenodd" d="M44.4053 67.1611C50.4689 66.9312 52.0207 69.6325 52.3368 72.9948C52.423 74.0868 52.3081 75.2363 52.3081 76.6157C46.3595 76.8456 44.7502 75.38 44.3766 72.1327C44.2617 71.0119 44.4053 68.6267 44.4053 67.1611Z" fill="#FEFEFE"/>
<path fill-rule="evenodd" clip-rule="evenodd" d="M159.24 78.2253C161.654 78.8288 164.011 79.9783 166.166 81.6451C164.499 85.7832 162.057 87.1913 158.235 86.0419C156.712 85.6108 156.079 85.1797 154.384 85.036C151.223 84.7487 147.717 85.4096 144.24 87.5362C144.268 88.8581 144.24 89.2604 144.24 90.6685C144.326 101.33 144.326 101.79 144.24 112.451C144.24 119.607 144.355 124.492 136.366 124.205C136.193 108.773 136.279 93.3411 136.279 77.9092C137.802 77.8517 143.119 77.4494 144.24 78.3115C144.268 78.2828 144.211 79.8346 144.24 79.8059C146.481 77.8517 152.832 76.4724 159.24 78.2253Z" fill="#FEFEFE"/>
<path fill-rule="evenodd" clip-rule="evenodd" d="M177.602 78.9141C180.965 78.0233 184.528 77.5922 187.747 77.9658C197.23 78.9429 200.132 87.0755 199.989 96.7025C200.017 102.565 200.132 108.628 199.903 114.462C199.816 117.278 199.759 119.29 198.868 120.468C198.408 121.043 197.833 121.56 196.971 121.876C187.689 125.325 174.211 125.67 168.809 118.686C166.108 115.152 165.533 109.692 166.97 105.122C168.895 98.9152 175.275 95.7254 181.367 95.0932C185.017 94.7483 188.81 95.0645 192.143 95.8404C192.632 87.1617 187.977 84.6616 181.453 85.8685C180.304 86.0984 179.384 86.4433 178.292 86.7307C174.384 87.7077 171.941 86.0984 170.389 81.5867C170.964 81.2419 173.522 79.9774 177.602 78.9141ZM190.074 103.456C192.172 103.916 192.172 104.145 192.172 104.404C192.201 106.875 192.23 109.404 192.115 111.847C192.057 113.169 192.057 114.088 191.569 114.634C191.31 114.893 190.994 115.152 190.563 115.295C185.591 116.876 178.378 117.048 175.505 113.801C174.154 112.278 173.809 109.979 174.413 107.939C175.303 104.806 178.752 103.226 182.229 102.91C184.155 102.766 186.195 102.91 190.074 103.456Z" fill="#FEFEFE"/>
<path fill-rule="evenodd" clip-rule="evenodd" d="M74.1781 86.8187V86.7037H74.4368L81.19 86.675C86.4489 86.5888 87.0811 83.945 86.1615 78.9159H74.1207C74.1207 71.7604 74.2356 66.8751 66.2467 67.1624C66.1892 70.8695 66.1892 74.864 66.1892 78.9159H61.9073C61.1027 83.2265 61.1314 86.5888 66.1892 86.7037C66.1892 89.7499 66.1892 92.7385 66.2179 95.5548C66.2179 99.3768 66.2179 103.199 66.2179 107.021C66.2179 114.062 67.2237 117.97 71.2757 121.131C73.2298 122.683 75.6725 123.66 78.3738 124.062C80.8164 124.407 83.4315 124.235 86.0753 123.487C86.0753 120.154 85.2132 117.424 81.5061 116.619C81.1038 116.504 80.6727 116.447 80.1842 116.418C79.6095 116.361 78.9198 116.217 78.3738 116.044C78.0864 115.929 77.7703 115.815 77.4254 115.7C74.7816 114.608 74.1494 112.424 74.1207 108.831L74.1494 94.6927L74.1781 86.8187Z" fill="#FEFEFE"/>
<path fill-rule="evenodd" clip-rule="evenodd" d="M155.563 43.7969C149.7 45.7223 144.872 47.1879 140.705 49.688C135.964 52.4755 131.969 55.9815 128.291 59.7173C134.814 61.3553 140.964 61.1541 146.941 59.746C146.941 59.7748 146.941 59.8035 146.941 59.8322C151.97 55.1193 155.132 49.8892 155.563 43.7969Z" fill="#FEFEFE"/>
<path fill-rule="evenodd" clip-rule="evenodd" d="M100.989 61.4711C108.403 57.3617 118.174 56.5858 126.364 58.856C126.68 58.9423 127.772 59.2009 128.433 59.4021C128.72 59.4883 128.95 59.6607 128.922 59.632C128.922 59.632 128.835 59.8906 128.548 60.2067C128.059 60.7814 127.255 61.5573 127.054 61.7298C122.283 66.3565 116.248 69.4888 109.84 71.0694C106.018 68.8566 102.167 65.8105 100.989 61.4711C101.104 61.27 100.903 61.701 100.989 61.4711Z" fill="#FEFEFE"/>
<path fill-rule="evenodd" clip-rule="evenodd" d="M88.7473 45.4629C83.0574 50.1758 82.4539 51.5264 80.9883 58.7107C89.8681 61.7569 90.6152 62.5041 99.5525 62.0443C100.213 62.0155 100.932 61.8431 101.593 61.7856C101.622 61.7569 101.104 60.8086 101.047 60.6361C100.127 57.8199 99.2939 56.498 97.8283 53.5955C95.4718 50.3195 92.4257 47.2159 88.7473 45.4629Z" fill="#FEFEFE"/>
<path fill-rule="evenodd" clip-rule="evenodd" d="M88.949 45.7816C91.9377 42.1607 93.4033 40.6376 95.2424 36.2409C96.3345 33.6258 96.8805 31.5279 97.6564 27.4473C89.3513 30.1486 86.0753 32.8499 80.0117 38.741C82.1957 42.7929 85.2419 45.0057 88.949 45.7816Z" fill="#FEFEFE"/>
<path fill-rule="evenodd" clip-rule="evenodd" d="M125.158 14.543L125.129 14.4856C124.641 14.3419 123.836 14.3131 123.233 14.1695C117.945 13.02 110.502 13.451 105.502 14.6867C100.645 19.3134 99.0071 22.1297 97.3116 27.1012C96.9668 28.2219 96.9668 28.2219 96.9668 28.2219C97.2542 28.1645 97.5703 28.107 97.8864 28.0208C107.111 25.923 117.428 21.0951 123.175 16.0948C123.721 15.6063 124.842 14.8591 125.158 14.543Z" fill="#FEFEFE"/>
<path fill-rule="evenodd" clip-rule="evenodd" d="M149.211 14.1405C154.096 12.876 160.275 12.5312 166.597 14.4278C167.574 16.6981 166.913 20.0316 165.39 23.2501C164.442 25.2905 164.183 25.233 162.947 26.7274C161.683 26.0951 160.505 25.4917 159.441 24.8594C156.079 22.9053 153.636 20.7213 151.194 17.0429C150.504 16.1521 149.901 15.0026 149.211 14.1405Z" fill="#FEFEFE"/>
<path fill-rule="evenodd" clip-rule="evenodd" d="M154.93 44.6009C155.275 37.8764 156.51 34.3705 160.505 29.5139C161.367 28.5081 161.884 27.4161 162.631 26.6114C162.861 26.3528 162.861 26.0654 162.89 26.0654C162.89 26.0654 163.206 26.4103 163.666 26.6976C164.844 27.4448 165.189 27.5885 166.08 28.077C169.356 29.945 170.448 32.4164 171.683 35.3763C168.034 39.4857 164.327 41.8996 154.93 44.6009Z" fill="#FEFEFE"/>
<path fill-rule="evenodd" clip-rule="evenodd" d="M124.066 14.8017C124.612 13.6234 131.136 9.48528 132.4 8.8818C135.044 7.6461 138.061 6.66903 141.51 5.7207C146.137 7.99094 148.206 9.68644 150.045 14.3706C143.119 15.6925 137.372 16.0661 130.877 15.4626C129.297 15.3189 125.388 15.089 124.066 14.8017Z" fill="#FEFEFE"/>
<path d="M243.043 1.4416C243.043 0.713118 243.645 0.111328 244.373 0.111328C245.102 0.111328 245.704 0.713118 245.704 1.4416L254.73 65.0096L245.704 128.578C245.704 129.306 245.102 129.876 244.373 129.876C243.645 129.876 243.043 129.306 243.043 128.578V1.4416Z" fill="#E98442"/>
<path d="M305.997 42.7275C299.346 42.7275 297.73 45.103 297.73 53.1797C297.73 61.2247 299.346 63.5685 305.997 63.5685C308.373 63.5685 312.078 63.5685 312.649 62.3649C312.712 62.2065 312.712 62.1115 312.712 61.7948V53.7181C312.712 53.4331 312.585 53.2747 312.332 53.2747H310.526C310.241 53.2747 310.115 53.4331 310.115 53.7181V61.1613H305.997C301.278 61.1613 300.454 59.3876 300.454 53.1797C300.454 46.9717 301.278 45.1347 305.997 45.1347H311.223C311.508 45.1347 311.635 45.008 311.635 44.7229V43.456C311.635 43.2026 311.477 43.0126 311.192 43.0126C309.83 42.8226 307.644 42.7275 305.997 42.7275Z" fill="#FEFEFE"/>
<path d="M321.77 48.4307C316.671 48.4307 315.562 49.951 315.562 56.0322C315.562 62.0818 316.671 63.5704 321.77 63.5704C323.417 63.5704 324.938 63.5071 326.3 63.317C326.553 63.317 326.68 63.127 326.68 62.9053V61.7017C326.68 61.4167 326.553 61.29 326.3 61.29H321.834C318.92 61.29 318.286 60.4665 318.223 57.1725H326.87C327.693 57.1725 327.82 56.9507 327.82 56.4123V55.6205C327.788 49.8876 326.648 48.4307 321.77 48.4307ZM321.77 50.7111C324.589 50.7111 325.159 51.598 325.223 55.0504H318.191C318.255 51.598 318.825 50.7111 321.77 50.7111Z" fill="#FEFEFE"/>
<path d="M335.866 48.4307C332.952 48.4307 330.323 48.8424 330.323 51.8197V52.3898C330.323 53.9101 330.862 55.4621 332.952 56.2856L336.816 57.7426C338.052 58.281 338.368 58.7878 338.368 59.5796V59.8963C338.368 61.0683 337.703 61.3216 335.518 61.3216H330.513C330.228 61.3216 330.102 61.4483 330.102 61.7334V62.937C330.102 63.127 330.165 63.317 330.513 63.317C330.957 63.3804 333.111 63.5704 335.486 63.5704C339.128 63.5704 340.965 62.9686 340.965 59.928V59.643C340.965 58.1227 340.744 56.7607 338.242 55.8105L334.631 54.3535C333.301 53.8784 332.952 53.2133 332.952 52.4532V52.1048C332.952 51.1229 333.681 50.6795 334.916 50.6795H339.984C340.269 50.6795 340.395 50.5528 340.395 50.2994V49.1275C340.395 48.8741 340.269 48.7157 340.015 48.684C338.432 48.494 337.038 48.4307 335.866 48.4307Z" fill="#FEFEFE"/>
<path d="M345.05 44.9144C344.797 44.9461 344.67 45.0728 344.67 45.3262V48.5885H343.15C342.896 48.5885 342.77 48.7469 342.77 49.0002V50.2988C342.77 50.5522 342.896 50.6789 343.15 50.6789H344.67V60.4659C344.67 63.5382 346.919 63.5699 348.882 63.5699C349.104 63.5699 349.864 63.5382 350.403 63.4115C350.656 63.3482 350.815 63.2215 350.815 62.9681V61.6695C350.815 61.3845 350.656 61.2894 350.371 61.2894H349.072C347.616 61.2894 347.299 61.0044 347.299 59.8325V50.6789H350.149C350.434 50.6789 350.593 50.5522 350.593 50.2988V49.0002C350.593 48.7469 350.434 48.5885 350.149 48.5885H347.299V44.8194C347.299 44.5343 347.14 44.376 346.824 44.471L345.05 44.9144Z" fill="#FEFEFE"/>
<path d="M356.517 43.3291C355.155 43.3291 354.648 43.8359 353.983 45.9263C353.888 46.2747 353.983 46.4331 354.268 46.5281L354.901 46.6865C355.187 46.7815 355.25 46.7498 355.408 46.4331C355.757 45.673 355.978 45.4829 356.675 45.4829C357.594 45.4829 359.114 46.5915 360.349 46.5915C361.743 46.5915 362.25 46.053 362.883 43.9626C362.946 43.5825 362.883 43.4558 362.598 43.3608L361.965 43.2024C361.711 43.1074 361.585 43.1391 361.458 43.4875C361.141 44.1843 360.856 44.406 360.191 44.406C359.241 44.406 357.752 43.3291 356.517 43.3291ZM357.974 48.4285C356.834 48.4285 355.472 48.4919 353.888 48.7452C353.603 48.8086 353.508 48.8719 353.508 49.1887V50.2972C353.508 50.6456 353.571 50.709 353.888 50.709H357.974C360.539 50.709 361.521 51.4691 361.521 53.1478V54.9849L357.15 55.0165C354.046 55.0165 352.336 55.9351 352.336 59.1974C352.336 62.8398 353.983 63.5683 357.562 63.5683C360.286 63.5683 362.661 63.3149 363.612 62.9665C364.118 62.7765 364.118 62.4597 364.118 62.2063V52.7044C364.118 49.7271 362.218 48.4285 357.974 48.4285ZM361.521 57.107V61.0028C360.476 61.2878 358.861 61.3512 358.037 61.3512C355.788 61.3512 354.901 60.9394 354.901 59.134C354.901 57.5821 355.693 57.107 357.182 57.107H361.521Z" fill="#FEFEFE"/>
<path d="M373.62 48.4307C368.394 48.4307 367.285 49.951 367.285 56.0322C367.285 62.0818 368.394 63.5704 373.62 63.5704C378.878 63.5704 379.923 62.0818 379.923 56.0322C379.923 49.951 378.878 48.4307 373.62 48.4307ZM373.62 50.7111C376.914 50.7111 377.326 51.788 377.326 56.0322C377.326 60.2448 376.914 61.29 373.62 61.29C370.326 61.29 369.914 60.2448 369.914 56.0322C369.914 51.788 370.326 50.7111 373.62 50.7111Z" fill="#FEFEFE"/>
<path d="M390.121 42.8555C389.867 42.8555 389.709 43.0138 389.709 43.2989V63.0313C389.709 63.3163 389.867 63.443 390.121 63.443H392.053C392.338 63.443 392.465 63.3163 392.465 63.0313V43.2989C392.465 43.0138 392.338 42.8555 392.053 42.8555H390.121Z" fill="#FEFEFE"/>
<path d="M402.6 48.4307C401.302 48.4307 399.085 48.4623 396.963 48.8741C396.677 48.9374 396.551 48.9374 396.551 49.3175V63.032C396.551 63.3171 396.677 63.4437 396.963 63.4437H398.736C399.021 63.4437 399.148 63.3171 399.148 63.032V50.7111H402.885C405.483 50.7111 406.306 50.8695 406.306 55.0187V63.032C406.306 63.3171 406.433 63.4437 406.718 63.4437H408.46C408.713 63.4437 408.903 63.3171 408.903 63.032V54.797C408.903 49.0325 407.478 48.4307 402.6 48.4307Z" fill="#FEFEFE"/>
<path d="M413.622 44.9144C413.401 44.9461 413.274 45.0728 413.274 45.3262V48.5885H411.754C411.5 48.5885 411.342 48.7469 411.342 49.0002V50.2988C411.342 50.5522 411.5 50.6789 411.754 50.6789H413.274V60.4659C413.274 63.5382 415.523 63.5699 417.455 63.5699C417.708 63.5699 418.437 63.5382 419.007 63.4115C419.26 63.3482 419.387 63.2215 419.387 62.9681V61.6695C419.387 61.3845 419.26 61.2894 418.975 61.2894H417.645C416.219 61.2894 415.903 61.0044 415.903 59.8325V50.6789H418.753C419.038 50.6789 419.197 50.5522 419.197 50.2988V49.0002C419.197 48.7469 419.038 48.5885 418.753 48.5885H415.903V44.8194C415.903 44.5343 415.744 44.376 415.428 44.471L413.622 44.9144Z" fill="#FEFEFE"/>
<path d="M427.591 48.4307C422.46 48.4307 421.383 49.951 421.383 56.0322C421.383 62.0818 422.46 63.5704 427.591 63.5704C429.238 63.5704 430.726 63.5071 432.12 63.317C432.373 63.317 432.5 63.127 432.5 62.9053V61.7017C432.5 61.4167 432.373 61.29 432.088 61.29H427.622C424.74 61.29 424.107 60.4665 424.012 57.1725H432.658C433.514 57.1725 433.64 56.9507 433.64 56.4123V55.6205C433.577 49.8876 432.437 48.4307 427.591 48.4307ZM427.591 50.7111C430.41 50.7111 430.98 51.598 431.043 55.0504H423.98C424.043 51.598 424.645 50.7111 427.591 50.7111Z" fill="#FEFEFE"/>
<path d="M437.029 42.8555C436.776 42.8555 436.617 43.0138 436.617 43.2672V63.0313C436.617 63.3163 436.776 63.443 437.029 63.443H438.834C439.088 63.443 439.246 63.3163 439.246 63.0313V43.2672C439.246 43.0138 439.088 42.8555 438.834 42.8555H437.029Z" fill="#FEFEFE"/>
<path d="M444.283 42.6328C443.269 42.6328 442.699 43.2029 442.699 44.2165C442.699 45.2617 443.269 45.8318 444.283 45.8318C445.36 45.8318 445.898 45.2617 445.898 44.2165C445.898 43.2029 445.36 42.6328 444.283 42.6328ZM443.396 48.5557C443.111 48.5557 442.984 48.7141 442.984 48.9674V63.0303C442.984 63.3154 443.111 63.4421 443.396 63.4421H445.201C445.455 63.4421 445.613 63.3154 445.613 63.0303V48.9674C445.613 48.7141 445.455 48.5557 445.201 48.5557H443.396Z" fill="#FEFEFE"/>
<path d="M455.241 48.4307C450.015 48.4307 448.875 49.951 448.875 55.9689C448.875 62.0501 449.984 63.5704 455.115 63.5704C456.477 63.5704 457.522 63.5388 458.694 63.3487V63.5071C458.694 65.9776 458.029 66.7061 454.988 66.7061H451.124C450.839 66.7061 450.744 66.8328 450.744 67.1178V68.2897C450.744 68.5114 450.839 68.6698 451.092 68.7015C452.517 68.8915 453.974 68.9549 455.02 68.9549C460.246 68.9549 461.291 67.4029 461.323 62.0818V49.3492C461.323 49.0641 461.133 48.9374 460.879 48.9058C459.707 48.6524 457.839 48.4307 455.241 48.4307ZM458.694 50.7111V61.0999C457.617 61.2266 456.35 61.29 455.273 61.29C451.916 61.29 451.504 60.2448 451.504 56.0005C451.504 51.788 451.884 50.7111 455.21 50.7111H458.694Z" fill="#FEFEFE"/>
<path d="M470.76 48.4307C465.661 48.4307 464.584 49.951 464.584 56.0322C464.584 62.0818 465.661 63.5704 470.76 63.5704C472.407 63.5704 473.928 63.5071 475.29 63.317C475.543 63.317 475.67 63.127 475.67 62.9053V61.7017C475.67 61.4167 475.543 61.29 475.29 61.29H470.824C467.91 61.29 467.276 60.4665 467.213 57.1725H475.86C476.683 57.1725 476.841 56.9507 476.841 56.4123V55.6205C476.778 49.8876 475.638 48.4307 470.76 48.4307ZM470.76 50.7111C473.579 50.7111 474.149 51.598 474.213 55.0504H467.181C467.245 51.598 467.815 50.7111 470.76 50.7111Z" fill="#FEFEFE"/>
<path d="M485.837 48.4307C484.538 48.4307 482.321 48.4623 480.199 48.8741C479.914 48.9374 479.787 48.9374 479.787 49.3175V63.032C479.787 63.3171 479.914 63.4437 480.199 63.4437H482.004C482.258 63.4437 482.384 63.3171 482.384 63.032V50.7111H486.122C488.719 50.7111 489.542 50.8695 489.542 55.0187V63.032C489.542 63.3171 489.669 63.4437 489.954 63.4437H491.696C491.95 63.4437 492.14 63.3171 492.14 63.032V54.797C492.14 49.0325 490.714 48.4307 485.837 48.4307Z" fill="#FEFEFE"/>
<path d="M496.892 44.9144C496.638 44.9461 496.543 45.0728 496.543 45.3262V48.5885H495.023C494.738 48.5885 494.611 48.7469 494.611 49.0002V50.2988C494.611 50.5522 494.738 50.6789 495.023 50.6789H496.543V60.4659C496.543 63.5382 498.761 63.5699 500.724 63.5699C500.946 63.5699 501.706 63.5382 502.245 63.4115C502.498 63.3482 502.656 63.2215 502.656 62.9681V61.6695C502.656 61.3845 502.498 61.2894 502.213 61.2894H500.914C499.457 61.2894 499.141 61.0044 499.141 59.8325V50.6789H501.991C502.308 50.6789 502.435 50.5522 502.435 50.2988V49.0002C502.435 48.7469 502.308 48.5885 501.991 48.5885H499.141V44.8194C499.141 44.5343 498.982 44.376 498.665 44.471L496.892 44.9144Z" fill="#FEFEFE"/>
<path d="M510.827 48.4307C505.728 48.4307 504.619 49.951 504.619 56.0322C504.619 62.0818 505.728 63.5704 510.827 63.5704C512.474 63.5704 513.994 63.5071 515.356 63.317C515.61 63.317 515.736 63.127 515.736 62.9053V61.7017C515.736 61.4167 515.61 61.29 515.325 61.29H510.89C507.976 61.29 507.343 60.4665 507.28 57.1725H515.895C516.75 57.1725 516.877 56.9507 516.877 56.4123V55.6205C516.845 49.8876 515.705 48.4307 510.827 48.4307ZM510.827 50.7111C513.646 50.7111 514.216 51.598 514.279 55.0504H507.248C507.28 51.598 507.881 50.7111 510.827 50.7111Z" fill="#FEFEFE"/>
<path d="M301.373 83.3315C302.956 83.3315 303.748 82.7931 303.748 81.7162C303.748 81.3678 303.685 81.0827 303.526 80.861C303.4 80.6393 303.21 80.4176 302.956 80.2592C302.735 80.0692 302.449 79.9425 302.164 79.8158C301.848 79.6891 301.531 79.5624 301.183 79.4357C300.771 79.309 300.422 79.1507 300.042 78.9606C299.694 78.8023 299.409 78.6122 299.124 78.3589C298.87 78.1371 298.68 77.8521 298.522 77.5353C298.364 77.2186 298.3 76.8069 298.3 76.3634C298.3 75.4132 298.617 74.6848 299.25 74.1463C299.916 73.6079 300.802 73.3545 301.911 73.3545C302.576 73.3545 303.178 73.4178 303.716 73.5445C304.255 73.7029 304.635 73.8613 304.888 74.0196L304.413 75.2549C304.191 75.1282 303.875 74.9698 303.431 74.8431C302.988 74.7164 302.513 74.6531 301.911 74.6531C301.626 74.6531 301.373 74.6848 301.119 74.7481C300.866 74.8115 300.644 74.9065 300.454 75.0332C300.264 75.1599 300.137 75.3182 300.011 75.5083C299.916 75.6983 299.852 75.92 299.852 76.1734C299.852 76.4901 299.916 76.7118 300.011 76.9336C300.137 77.1236 300.296 77.282 300.517 77.4403C300.707 77.5987 300.961 77.7254 301.246 77.8521C301.499 77.9788 301.816 78.1055 302.133 78.2322C302.608 78.4222 303.051 78.6122 303.431 78.8023C303.811 78.9923 304.16 79.214 304.445 79.4674C304.73 79.7208 304.952 80.0375 305.11 80.3859C305.268 80.7343 305.332 81.1778 305.332 81.6845C305.332 82.6347 304.983 83.3632 304.318 83.87C303.621 84.3768 302.639 84.6301 301.373 84.6301C300.961 84.6301 300.549 84.5985 300.201 84.5668C299.852 84.5034 299.536 84.4401 299.25 84.3451C298.965 84.2817 298.712 84.1867 298.522 84.0917C298.3 84.0283 298.142 83.9333 298.047 83.87L298.49 82.6347C298.744 82.7614 299.092 82.9198 299.599 83.0782C300.074 83.2365 300.676 83.3315 301.373 83.3315Z" fill="#FEFEFE"/>
<path d="M306.631 80.354C306.631 79.6572 306.726 79.0237 306.916 78.4853C307.138 77.9468 307.423 77.5034 307.771 77.155C308.088 76.8066 308.5 76.5215 308.943 76.3632C309.386 76.1731 309.862 76.0781 310.305 76.0781C311.414 76.0781 312.237 76.4265 312.839 77.1233C313.409 77.7885 313.694 78.8337 313.694 80.2273C313.694 80.2907 313.694 80.354 313.694 80.4807C313.694 80.5757 313.694 80.6707 313.694 80.7341H308.119C308.183 81.5893 308.436 82.2227 308.88 82.6661C309.291 83.1096 309.957 83.2996 310.875 83.2996C311.382 83.2996 311.794 83.2679 312.142 83.1729C312.49 83.0779 312.744 83.0145 312.934 82.9195L313.124 84.1548C312.965 84.2181 312.649 84.3448 312.205 84.4398C311.762 84.5349 311.255 84.5982 310.717 84.5982C309.988 84.5982 309.386 84.4715 308.88 84.2815C308.373 84.0598 307.929 83.7747 307.613 83.3946C307.264 83.0145 307.011 82.5711 306.853 82.0644C306.694 81.5576 306.631 80.9875 306.631 80.354ZM312.174 79.5622C312.205 78.9287 312.047 78.3903 311.699 77.9468C311.35 77.5351 310.907 77.3134 310.305 77.3134C309.957 77.3134 309.671 77.3767 309.418 77.5351C309.165 77.6618 308.943 77.8201 308.785 78.0419C308.595 78.2319 308.468 78.4853 308.373 78.7387C308.246 79.0237 308.183 79.2771 308.151 79.5622H312.174Z" fill="#FEFEFE"/>
<path d="M320.883 83.5862C320.756 83.6812 320.503 83.7762 320.154 83.9029C319.774 84.0296 319.362 84.1246 318.887 84.1246C318.412 84.1246 317.937 84.0296 317.525 83.8713C317.082 83.7129 316.702 83.4912 316.385 83.1428C316.068 82.826 315.815 82.4143 315.625 81.9392C315.435 81.4324 315.34 80.8623 315.34 80.1655C315.34 79.5954 315.435 79.0569 315.593 78.5502C315.783 78.0434 316.037 77.6316 316.385 77.2832C316.702 76.9032 317.114 76.6181 317.62 76.4281C318.095 76.238 318.666 76.1113 319.267 76.1113C319.932 76.1113 320.534 76.1747 321.041 76.2697C321.548 76.3647 321.96 76.4597 322.308 76.5548V83.7762C322.308 85.0432 321.991 85.93 321.326 86.5001C320.693 87.0702 319.711 87.3236 318.412 87.3236C317.905 87.3236 317.43 87.292 316.955 87.2286C316.512 87.1336 316.132 87.0386 315.783 86.9119L316.068 85.6449C316.353 85.7716 316.702 85.8667 317.114 85.9617C317.557 86.0567 317.969 86.0884 318.444 86.0884C319.299 86.0884 319.932 85.93 320.313 85.5816C320.693 85.2332 320.883 84.6948 320.883 83.9346V83.5862ZM320.851 77.5683C320.724 77.5366 320.503 77.5049 320.281 77.4733C320.027 77.4099 319.711 77.4099 319.267 77.4099C318.507 77.4099 317.905 77.6633 317.494 78.1701C317.05 78.6769 316.86 79.342 316.86 80.1972C316.86 80.6723 316.892 81.0523 317.019 81.4007C317.145 81.7175 317.304 82.0025 317.525 82.2242C317.715 82.446 317.937 82.6043 318.222 82.6993C318.475 82.826 318.761 82.8577 319.046 82.8577C319.426 82.8577 319.774 82.7944 320.091 82.6993C320.408 82.6043 320.661 82.4776 320.851 82.3193V77.5683Z" fill="#FEFEFE"/>
<path d="M331.271 84.1874C330.923 84.2507 330.479 84.3458 329.941 84.4408C329.402 84.5358 328.769 84.5675 328.041 84.5675C327.407 84.5675 326.9 84.4725 326.457 84.3141C326.045 84.1241 325.697 83.8707 325.443 83.5223C325.19 83.2055 325 82.7938 324.873 82.3504C324.778 81.9069 324.715 81.4002 324.715 80.8617V76.3008H326.172V80.545C326.172 81.5269 326.299 82.2237 326.615 82.6671C326.932 83.0788 327.47 83.3005 328.199 83.3005C328.357 83.3005 328.516 83.3005 328.674 83.2689C328.864 83.2689 328.991 83.2689 329.149 83.2372C329.307 83.2372 329.434 83.2055 329.561 83.2055C329.656 83.1739 329.751 83.1739 329.814 83.1422V76.3008H331.271V84.1874Z" fill="#FEFEFE"/>
<path d="M336.753 76.1113C336.88 76.1113 337.006 76.143 337.165 76.143C337.323 76.1747 337.482 76.1747 337.64 76.2063C337.798 76.238 337.957 76.2697 338.083 76.3014C338.21 76.3014 338.305 76.333 338.368 76.3647L338.115 77.6316C338.02 77.5683 337.83 77.5366 337.545 77.4733C337.292 77.4099 336.943 77.3783 336.531 77.3783C336.246 77.3783 335.993 77.4099 335.74 77.4733C335.454 77.5366 335.296 77.5683 335.201 77.6V84.4097H333.744V76.6498C334.093 76.5231 334.536 76.3964 335.043 76.3014C335.55 76.1747 336.12 76.1113 336.753 76.1113Z" fill="#FEFEFE"/>
<path d="M342.515 83.363C342.864 83.363 343.149 83.363 343.434 83.3313C343.687 83.3313 343.909 83.2996 344.099 83.2363V80.8291C343.972 80.7974 343.814 80.7341 343.592 80.7024C343.339 80.6707 343.054 80.6391 342.737 80.6391C342.515 80.6391 342.293 80.6707 342.04 80.7024C341.787 80.7341 341.565 80.7974 341.375 80.8924C341.153 80.9875 340.995 81.1142 340.868 81.3042C340.741 81.4626 340.646 81.6843 340.646 81.9693C340.646 82.5078 340.836 82.8562 341.153 83.0462C341.502 83.2679 341.945 83.363 342.515 83.363ZM342.388 76.0781C342.959 76.0781 343.465 76.1731 343.877 76.3315C344.257 76.4582 344.574 76.6799 344.827 76.965C345.081 77.25 345.239 77.5668 345.366 77.9468C345.461 78.3269 345.492 78.7387 345.492 79.1821V84.2498C345.397 84.2815 345.207 84.3131 344.986 84.3448C344.764 84.3765 344.511 84.4082 344.225 84.4398C343.94 84.4715 343.655 84.5032 343.307 84.5349C342.99 84.5665 342.674 84.5665 342.357 84.5665C341.882 84.5665 341.47 84.5349 341.09 84.4398C340.71 84.3448 340.361 84.1865 340.076 83.9964C339.791 83.7747 339.57 83.5213 339.411 83.2046C339.284 82.8562 339.189 82.4444 339.189 82.001C339.189 81.5259 339.284 81.1458 339.475 80.8291C339.633 80.5124 339.886 80.259 340.203 80.0689C340.52 79.8472 340.868 79.7205 341.312 79.6255C341.723 79.5305 342.135 79.4672 342.61 79.4672C342.769 79.4672 342.895 79.4988 343.054 79.4988C343.212 79.5305 343.37 79.5305 343.497 79.5622C343.655 79.5938 343.782 79.6255 343.877 79.6255C343.972 79.6572 344.035 79.6572 344.099 79.6889V79.2771C344.099 79.0237 344.067 78.802 344.004 78.5803C343.972 78.3269 343.877 78.1369 343.719 77.9468C343.592 77.7568 343.402 77.5984 343.18 77.5034C342.959 77.4084 342.642 77.3451 342.262 77.3451C341.787 77.3451 341.375 77.3767 340.995 77.4401C340.646 77.5034 340.393 77.5668 340.203 77.6618L340.045 76.4582C340.235 76.3632 340.52 76.2998 340.963 76.2048C341.407 76.1415 341.882 76.0781 342.388 76.0781Z" fill="#FEFEFE"/>
<path d="M347.9 76.5231C348.249 76.4597 348.692 76.3647 349.231 76.2697C349.801 76.1747 350.434 76.1113 351.131 76.1113C351.796 76.1113 352.303 76.2063 352.746 76.3964C353.158 76.5864 353.507 76.8398 353.76 77.1565C354.013 77.5049 354.203 77.885 354.298 78.3284C354.393 78.8035 354.457 79.3103 354.457 79.8488V84.4097H353V80.1655C353 79.6587 352.968 79.247 352.905 78.8986C352.841 78.5185 352.715 78.2334 352.588 78.0434C352.43 77.8217 352.208 77.6633 351.955 77.5683C351.701 77.4416 351.353 77.4099 350.973 77.4099C350.814 77.4099 350.656 77.4099 350.498 77.4099C350.339 77.4416 350.181 77.4416 350.022 77.4733C349.864 77.4733 349.737 77.5049 349.611 77.5049C349.484 77.5366 349.421 77.5366 349.357 77.5683V84.4097H347.9V76.5231Z" fill="#FEFEFE"/>
<path d="M360.569 84.5982L360.411 84.9783C360.696 85.1366 360.918 85.295 361.044 85.4534C361.203 85.6434 361.266 85.8968 361.266 86.2135C361.266 86.3402 361.234 86.4669 361.171 86.5936C361.139 86.7203 361.044 86.847 360.918 86.9737C360.791 87.0687 360.632 87.1637 360.411 87.2587C360.221 87.3221 359.967 87.3538 359.651 87.3538C359.366 87.3538 359.144 87.3221 358.922 87.2904C358.7 87.2587 358.51 87.1954 358.384 87.1637L358.542 86.2452C358.669 86.3086 358.795 86.3402 358.954 86.3719C359.08 86.4036 359.239 86.4036 359.429 86.4036C359.777 86.4036 359.967 86.3086 359.967 86.0552C359.967 85.9285 359.936 85.8335 359.809 85.7701C359.682 85.7068 359.524 85.6117 359.334 85.5167L359.207 85.4851C359.271 85.3584 359.302 85.2 359.397 85.0416C359.461 84.8516 359.524 84.6932 359.619 84.5349C359.08 84.4715 358.637 84.3131 358.225 84.0598C357.814 83.838 357.497 83.5213 357.212 83.1729C356.958 82.8245 356.737 82.3811 356.61 81.906C356.483 81.4309 356.42 80.9241 356.42 80.354C356.42 79.7522 356.483 79.1821 356.673 78.6437C356.863 78.1369 357.117 77.6935 357.465 77.3134C357.782 76.9333 358.194 76.6166 358.669 76.4265C359.175 76.2048 359.682 76.0781 360.284 76.0781C360.664 76.0781 361.013 76.1098 361.393 76.1731C361.741 76.2365 362.089 76.3632 362.438 76.4899L362.089 77.7251C361.868 77.5984 361.614 77.5351 361.329 77.4717C361.044 77.4084 360.759 77.3767 360.442 77.3767C359.619 77.3767 358.985 77.6301 358.574 78.1369C358.13 78.6437 357.909 79.4038 357.909 80.354C357.909 80.7974 357.972 81.2092 358.067 81.5576C358.162 81.9377 358.32 82.2544 358.542 82.5078C358.764 82.7612 359.017 82.9512 359.366 83.1096C359.682 83.2363 360.094 83.2996 360.569 83.2996C360.949 83.2996 361.298 83.2679 361.614 83.2046C361.931 83.1412 362.184 83.0462 362.343 82.9829L362.565 84.1865C362.469 84.2181 362.343 84.2815 362.216 84.3131C362.089 84.3765 361.931 84.4082 361.741 84.4398C361.551 84.4715 361.361 84.5032 361.171 84.5349C360.981 84.5665 360.759 84.5665 360.569 84.5982Z" fill="#FEFEFE"/>
<path d="M366.841 83.363C367.189 83.363 367.506 83.363 367.759 83.3313C368.044 83.3313 368.266 83.2996 368.425 83.2363V80.8291C368.33 80.7974 368.171 80.7341 367.918 80.7024C367.696 80.6707 367.411 80.6391 367.063 80.6391C366.841 80.6391 366.619 80.6707 366.366 80.7024C366.144 80.7341 365.922 80.7974 365.701 80.8924C365.511 80.9875 365.352 81.1142 365.194 81.3042C365.067 81.4626 365.004 81.6843 365.004 81.9693C365.004 82.5078 365.162 82.8562 365.511 83.0462C365.827 83.2679 366.271 83.363 366.841 83.363ZM366.746 76.0781C367.316 76.0781 367.791 76.1731 368.203 76.3315C368.615 76.4582 368.931 76.6799 369.185 76.965C369.406 77.25 369.596 77.5668 369.691 77.9468C369.786 78.3269 369.85 78.7387 369.85 79.1821V84.2498C369.723 84.2815 369.565 84.3131 369.343 84.3448C369.09 84.3765 368.836 84.4082 368.583 84.4398C368.298 84.4715 367.981 84.5032 367.664 84.5349C367.316 84.5665 366.999 84.5665 366.683 84.5665C366.239 84.5665 365.796 84.5349 365.416 84.4398C365.036 84.3448 364.719 84.1865 364.434 83.9964C364.149 83.7747 363.927 83.5213 363.769 83.2046C363.61 82.8562 363.547 82.4444 363.547 82.001C363.547 81.5259 363.61 81.1458 363.8 80.8291C363.99 80.5124 364.244 80.259 364.56 80.0689C364.845 79.8472 365.226 79.7205 365.637 79.6255C366.049 79.5305 366.492 79.4672 366.936 79.4672C367.094 79.4672 367.253 79.4988 367.411 79.4988C367.569 79.5305 367.696 79.5305 367.854 79.5622C367.981 79.5938 368.108 79.6255 368.203 79.6255C368.33 79.6572 368.393 79.6572 368.425 79.6889V79.2771C368.425 79.0237 368.393 78.802 368.361 78.5803C368.298 78.3269 368.203 78.1369 368.076 77.9468C367.949 77.7568 367.759 77.5984 367.506 77.5034C367.284 77.4084 366.968 77.3451 366.619 77.3451C366.112 77.3451 365.701 77.3767 365.352 77.4401C365.004 77.5034 364.719 77.5668 364.56 77.6618L364.37 76.4582C364.56 76.3632 364.877 76.2998 365.321 76.2048C365.764 76.1415 366.207 76.0781 366.746 76.0781Z" fill="#FEFEFE"/>
<path d="M375.393 80.354C375.393 79.6572 375.519 79.0237 375.709 78.4853C375.931 77.9468 376.184 77.5034 376.533 77.155C376.881 76.8066 377.293 76.5215 377.736 76.3632C378.18 76.1731 378.623 76.0781 379.098 76.0781C380.175 76.0781 381.03 76.4265 381.601 77.1233C382.202 77.7885 382.487 78.8337 382.487 80.2273C382.487 80.2907 382.487 80.354 382.487 80.4807C382.487 80.5757 382.487 80.6707 382.456 80.7341H376.913C376.976 81.5893 377.23 82.2227 377.641 82.6661C378.085 83.1096 378.75 83.2996 379.637 83.2996C380.144 83.2996 380.587 83.2679 380.935 83.1729C381.284 83.0779 381.537 83.0145 381.727 82.9195L381.917 84.1548C381.727 84.2181 381.442 84.3448 380.999 84.4398C380.555 84.5349 380.049 84.5982 379.478 84.5982C378.782 84.5982 378.18 84.4715 377.641 84.2815C377.135 84.0598 376.723 83.7747 376.374 83.3946C376.058 83.0145 375.804 82.5711 375.646 82.0644C375.488 81.5576 375.393 80.9875 375.393 80.354ZM380.967 79.5622C380.967 78.9287 380.809 78.3903 380.492 77.9468C380.144 77.5351 379.668 77.3134 379.067 77.3134C378.75 77.3134 378.465 77.3767 378.211 77.5351C377.958 77.6618 377.736 77.8201 377.546 78.0419C377.388 78.2319 377.23 78.4853 377.135 78.7387C377.04 79.0237 376.976 79.2771 376.945 79.5622H380.967Z" fill="#FEFEFE"/>
<path d="M390.787 83.3315C392.371 83.3315 393.163 82.7931 393.163 81.7162C393.163 81.3678 393.068 81.0827 392.941 80.861C392.782 80.6393 392.592 80.4176 392.371 80.2592C392.117 80.0692 391.864 79.9425 391.547 79.8158C391.23 79.6891 390.914 79.5624 390.565 79.4357C390.185 79.309 389.805 79.1507 389.457 78.9606C389.108 78.8023 388.792 78.6122 388.538 78.3589C388.285 78.1371 388.063 77.8521 387.905 77.5353C387.778 77.2186 387.683 76.8069 387.683 76.3634C387.683 75.4132 388 74.6848 388.665 74.1463C389.298 73.6079 390.185 73.3545 391.325 73.3545C391.991 73.3545 392.561 73.4178 393.099 73.5445C393.638 73.7029 394.049 73.8613 394.271 74.0196L393.796 75.2549C393.574 75.1282 393.258 74.9698 392.814 74.8431C392.402 74.7164 391.896 74.6531 391.325 74.6531C391.04 74.6531 390.755 74.6848 390.502 74.7481C390.249 74.8115 390.059 74.9065 389.869 75.0332C389.678 75.1599 389.52 75.3182 389.425 75.5083C389.298 75.6983 389.235 75.92 389.235 76.1734C389.235 76.4901 389.298 76.7118 389.425 76.9336C389.52 77.1236 389.71 77.282 389.9 77.4403C390.122 77.5987 390.344 77.7254 390.629 77.8521C390.914 77.9788 391.199 78.1055 391.547 78.2322C392.022 78.4222 392.434 78.6122 392.814 78.8023C393.226 78.9923 393.543 79.214 393.828 79.4674C394.113 79.7208 394.334 80.0375 394.493 80.3859C394.651 80.7343 394.746 81.1778 394.746 81.6845C394.746 82.6347 394.398 83.3632 393.701 83.87C393.004 84.3768 392.022 84.6301 390.787 84.6301C390.344 84.6301 389.964 84.5985 389.615 84.5668C389.235 84.5034 388.918 84.4401 388.633 84.3451C388.348 84.2817 388.126 84.1867 387.905 84.0917C387.715 84.0283 387.556 83.9333 387.43 83.87L387.905 82.6347C388.126 82.7614 388.507 82.9198 388.982 83.0782C389.488 83.2365 390.059 83.3315 390.787 83.3315Z" fill="#FEFEFE"/>
<path d="M399.212 83.363C399.561 83.363 399.846 83.363 400.131 83.3313C400.384 83.3313 400.606 83.2996 400.796 83.2363V80.8291C400.669 80.7974 400.511 80.7341 400.289 80.7024C400.036 80.6707 399.751 80.6391 399.434 80.6391C399.212 80.6391 398.991 80.6707 398.737 80.7024C398.484 80.7341 398.262 80.7974 398.072 80.8924C397.85 80.9875 397.692 81.1142 397.565 81.3042C397.439 81.4626 397.344 81.6843 397.344 81.9693C397.344 82.5078 397.534 82.8562 397.85 83.0462C398.199 83.2679 398.642 83.363 399.212 83.363ZM399.086 76.0781C399.656 76.0781 400.163 76.1731 400.574 76.3315C400.954 76.4582 401.271 76.6799 401.525 76.965C401.778 77.25 401.936 77.5668 402.063 77.9468C402.158 78.3269 402.221 78.7387 402.221 79.1821V84.2498C402.095 84.2815 401.905 84.3131 401.683 84.3448C401.461 84.3765 401.208 84.4082 400.923 84.4398C400.638 84.4715 400.353 84.5032 400.004 84.5349C399.687 84.5665 399.371 84.5665 399.054 84.5665C398.579 84.5665 398.167 84.5349 397.787 84.4398C397.407 84.3448 397.059 84.1865 396.774 83.9964C396.489 83.7747 396.267 83.5213 396.14 83.2046C395.982 82.8562 395.887 82.4444 395.887 82.001C395.887 81.5259 395.982 81.1458 396.172 80.8291C396.362 80.5124 396.584 80.259 396.9 80.0689C397.217 79.8472 397.597 79.7205 398.009 79.6255C398.421 79.5305 398.864 79.4672 399.307 79.4672C399.466 79.4672 399.592 79.4988 399.751 79.4988C399.909 79.5305 400.068 79.5305 400.194 79.5622C400.353 79.5938 400.479 79.6255 400.574 79.6255C400.669 79.6572 400.733 79.6572 400.796 79.6889V79.2771C400.796 79.0237 400.764 78.802 400.701 78.5803C400.669 78.3269 400.574 78.1369 400.416 77.9468C400.289 77.7568 400.099 77.5984 399.878 77.5034C399.656 77.4084 399.339 77.3451 398.959 77.3451C398.484 77.3451 398.072 77.3767 397.724 77.4401C397.344 77.5034 397.09 77.5668 396.9 77.6618L396.742 76.4582C396.932 76.3632 397.249 76.2998 397.66 76.2048C398.104 76.1415 398.579 76.0781 399.086 76.0781Z" fill="#FEFEFE"/>
<path d="M411.056 84.188C410.74 84.2513 410.296 84.3463 409.758 84.4414C409.188 84.5364 408.554 84.5681 407.857 84.5681C407.224 84.5681 406.717 84.473 406.274 84.3147C405.862 84.1246 405.514 83.8713 405.26 83.5228C404.975 83.2061 404.785 82.7944 404.69 82.3509C404.563 81.9075 404.5 81.4007 404.5 80.8623V76.3014H405.957V80.5456C405.957 81.5274 406.115 82.2242 406.432 82.6677C406.749 83.0794 407.256 83.3011 408.016 83.3011C408.174 83.3011 408.332 83.3011 408.491 83.2695C408.649 83.2695 408.808 83.2695 408.966 83.2378C409.093 83.2378 409.251 83.2061 409.346 83.2061C409.473 83.1744 409.568 83.1744 409.599 83.1428V76.3014H411.056V84.188ZM409.663 73.2291L407.477 75.3512L406.749 74.7177L408.744 72.3105L409.663 73.2291Z" fill="#FEFEFE"/>
<path d="M418.785 78.0117C418.626 77.8533 418.373 77.7267 418.025 77.6C417.708 77.4416 417.328 77.3783 416.948 77.3783C416.536 77.3783 416.156 77.4733 415.871 77.6C415.586 77.7583 415.332 77.98 415.142 78.2334C414.952 78.5185 414.826 78.8035 414.731 79.1836C414.667 79.532 414.604 79.9438 414.604 80.3555C414.604 81.3057 414.857 82.0342 415.332 82.541C415.776 83.0477 416.409 83.3011 417.201 83.3011C417.581 83.3011 417.93 83.3011 418.183 83.2695C418.436 83.2378 418.658 83.1744 418.785 83.1428V78.0117ZM418.785 72.5639L420.242 72.3105V84.188C419.925 84.2513 419.482 84.3463 418.975 84.4414C418.436 84.5364 417.866 84.5997 417.169 84.5997C416.536 84.5997 415.997 84.5047 415.491 84.283C414.984 84.093 414.572 83.8079 414.224 83.4595C413.844 83.0794 413.59 82.636 413.4 82.1292C413.21 81.5908 413.115 81.0207 413.115 80.3555C413.115 79.7221 413.179 79.1519 413.337 78.6452C413.495 78.1067 413.749 77.6633 414.065 77.2832C414.382 76.9348 414.762 76.6181 415.206 76.4281C415.649 76.2063 416.188 76.1113 416.758 76.1113C417.233 76.1113 417.644 76.1747 417.993 76.3014C418.341 76.4281 418.626 76.5548 418.785 76.6498V72.5639Z" fill="#FEFEFE"/>
<path d="M422.301 80.354C422.301 79.6572 422.396 79.0237 422.618 78.4853C422.808 77.9468 423.093 77.5034 423.441 77.155C423.758 76.8066 424.169 76.5215 424.613 76.3632C425.056 76.1731 425.531 76.0781 425.975 76.0781C427.083 76.0781 427.907 76.4265 428.509 77.1233C429.079 77.7885 429.364 78.8337 429.364 80.2273C429.364 80.2907 429.364 80.354 429.364 80.4807C429.364 80.5757 429.364 80.6707 429.364 80.7341H423.789C423.853 81.5893 424.106 82.2227 424.55 82.6661C424.961 83.1096 425.626 83.2996 426.545 83.2996C427.052 83.2996 427.464 83.2679 427.812 83.1729C428.16 83.0779 428.414 83.0145 428.604 82.9195L428.794 84.1548C428.635 84.2181 428.319 84.3448 427.875 84.4398C427.432 84.5349 426.925 84.5982 426.387 84.5982C425.658 84.5982 425.056 84.4715 424.55 84.2815C424.043 84.0598 423.599 83.7747 423.283 83.3946C422.934 83.0145 422.681 82.5711 422.522 82.0644C422.364 81.5576 422.301 80.9875 422.301 80.354ZM427.844 79.5622C427.875 78.9287 427.717 78.3903 427.368 77.9468C427.02 77.5351 426.577 77.3134 425.975 77.3134C425.626 77.3134 425.341 77.3767 425.088 77.5351C424.835 77.6618 424.613 77.8201 424.455 78.0419C424.265 78.2319 424.138 78.4853 424.043 78.7387C423.916 79.0237 423.853 79.2771 423.821 79.5622H427.844Z" fill="#FEFEFE"/>
<path d="M435.064 76.5231C435.381 76.4597 435.825 76.3647 436.395 76.2697C436.933 76.1747 437.567 76.1113 438.295 76.1113C438.929 76.1113 439.467 76.2063 439.91 76.3964C440.322 76.5864 440.671 76.8398 440.924 77.1565C441.177 77.5049 441.336 77.885 441.462 78.3284C441.557 78.8035 441.621 79.3103 441.621 79.8488V84.4097H440.164V80.1655C440.164 79.6587 440.132 79.247 440.069 78.8986C440.005 78.5185 439.879 78.2334 439.72 78.0434C439.562 77.8217 439.372 77.6633 439.087 77.5683C438.834 77.4416 438.517 77.4099 438.137 77.4099C437.978 77.4099 437.82 77.4099 437.662 77.4099C437.472 77.4416 437.313 77.4416 437.187 77.4733C437.028 77.4733 436.901 77.5049 436.775 77.5049C436.648 77.5366 436.553 77.5366 436.521 77.5683V84.4097H435.064V76.5231Z" fill="#FEFEFE"/>
<path d="M451.156 80.354C451.156 80.9875 451.093 81.5893 450.903 82.096C450.713 82.6028 450.428 83.0779 450.111 83.4263C449.763 83.8064 449.351 84.0914 448.907 84.3131C448.432 84.5032 447.926 84.5982 447.355 84.5982C446.817 84.5982 446.31 84.5032 445.835 84.3131C445.36 84.0914 444.98 83.8064 444.632 83.4263C444.283 83.0779 444.03 82.6028 443.84 82.096C443.65 81.5893 443.555 80.9875 443.555 80.354C443.555 79.7205 443.65 79.1504 443.84 78.612C444.03 78.0735 444.283 77.6301 444.632 77.25C444.98 76.9016 445.36 76.5849 445.835 76.3949C446.31 76.2048 446.817 76.0781 447.355 76.0781C447.926 76.0781 448.432 76.2048 448.907 76.3949C449.351 76.5849 449.763 76.9016 450.111 77.25C450.428 77.6301 450.713 78.0735 450.903 78.612C451.093 79.1504 451.156 79.7205 451.156 80.354ZM449.668 80.354C449.668 79.4355 449.446 78.707 449.034 78.1686C448.622 77.6301 448.084 77.3767 447.355 77.3767C446.659 77.3767 446.089 77.6301 445.677 78.1686C445.265 78.707 445.075 79.4355 445.075 80.354C445.075 81.2725 445.265 82.001 445.677 82.5395C446.089 83.0462 446.659 83.3313 447.355 83.3313C448.084 83.3313 448.622 83.0462 449.034 82.5395C449.446 82.001 449.668 81.2725 449.668 80.354Z" fill="#FEFEFE"/>
<path d="M464.143 73.6104V74.909H460.722V84.4109H459.202V74.909H455.812V73.6104H464.143Z" fill="#FEFEFE"/>
<path d="M468.005 76.1113C468.132 76.1113 468.258 76.143 468.417 76.143C468.575 76.1747 468.734 76.1747 468.892 76.2063C469.05 76.238 469.209 76.2697 469.335 76.3014C469.462 76.3014 469.557 76.333 469.62 76.3647L469.367 77.6316C469.24 77.5683 469.05 77.5366 468.797 77.4733C468.543 77.4099 468.195 77.3783 467.783 77.3783C467.498 77.3783 467.245 77.4099 466.96 77.4733C466.706 77.5366 466.548 77.5683 466.453 77.6V84.4097H464.996V76.6498C465.344 76.5231 465.756 76.3964 466.295 76.3014C466.801 76.1747 467.372 76.1113 468.005 76.1113Z" fill="#FEFEFE"/>
<path d="M473.769 83.363C474.117 83.363 474.403 83.363 474.688 83.3313C474.941 83.3313 475.163 83.2996 475.353 83.2363V80.8291C475.226 80.7974 475.068 80.7341 474.846 80.7024C474.593 80.6707 474.307 80.6391 473.991 80.6391C473.769 80.6391 473.547 80.6707 473.294 80.7024C473.041 80.7341 472.819 80.7974 472.629 80.8924C472.407 80.9875 472.249 81.1142 472.122 81.3042C471.964 81.4626 471.9 81.6843 471.9 81.9693C471.9 82.5078 472.059 82.8562 472.407 83.0462C472.724 83.2679 473.199 83.363 473.769 83.363ZM473.642 76.0781C474.212 76.0781 474.719 76.1731 475.099 76.3315C475.511 76.4582 475.828 76.6799 476.081 76.965C476.335 77.25 476.493 77.5668 476.588 77.9468C476.715 78.3269 476.746 78.7387 476.746 79.1821V84.2498C476.62 84.2815 476.461 84.3131 476.24 84.3448C476.018 84.3765 475.764 84.4082 475.479 84.4398C475.194 84.4715 474.909 84.5032 474.561 84.5349C474.244 84.5665 473.927 84.5665 473.579 84.5665C473.136 84.5665 472.724 84.5349 472.344 84.4398C471.932 84.3448 471.615 84.1865 471.33 83.9964C471.045 83.7747 470.823 83.5213 470.665 83.2046C470.507 82.8562 470.443 82.4444 470.443 82.001C470.443 81.5259 470.538 81.1458 470.728 80.8291C470.887 80.5124 471.14 80.259 471.457 80.0689C471.774 79.8472 472.122 79.7205 472.534 79.6255C472.977 79.5305 473.389 79.4672 473.864 79.4672C473.991 79.4672 474.149 79.4988 474.307 79.4988C474.466 79.5305 474.624 79.5305 474.751 79.5622C474.909 79.5938 475.004 79.6255 475.131 79.6255C475.226 79.6572 475.289 79.6572 475.353 79.6889V79.2771C475.353 79.0237 475.321 78.802 475.258 78.5803C475.194 78.3269 475.099 78.1369 474.973 77.9468C474.846 77.7568 474.656 77.5984 474.434 77.5034C474.181 77.4084 473.896 77.3451 473.516 77.3451C473.041 77.3451 472.629 77.3767 472.249 77.4401C471.9 77.5034 471.647 77.5668 471.457 77.6618L471.299 76.4582C471.457 76.3632 471.774 76.2998 472.217 76.2048C472.66 76.1415 473.136 76.0781 473.642 76.0781Z" fill="#FEFEFE"/>
<path d="M480.611 76.6498C480.801 76.5548 481.055 76.4281 481.403 76.3014C481.783 76.1747 482.195 76.1113 482.638 76.1113C483.24 76.1113 483.747 76.2063 484.19 76.4281C484.665 76.6181 485.046 76.9348 485.362 77.2832C485.647 77.6633 485.901 78.1067 486.059 78.6452C486.217 79.1519 486.312 79.7221 486.312 80.3555C486.312 81.0207 486.217 81.5908 486.027 82.1292C485.806 82.636 485.552 83.0794 485.204 83.4595C484.855 83.8079 484.412 84.093 483.905 84.283C483.43 84.5047 482.86 84.5997 482.227 84.5997C481.561 84.5997 480.96 84.5364 480.453 84.4414C479.914 84.3463 479.503 84.2513 479.154 84.188V72.5639L480.611 72.3105V76.6498ZM480.611 83.1428C480.77 83.1744 480.96 83.2378 481.213 83.2695C481.498 83.3011 481.815 83.3011 482.227 83.3011C482.987 83.3011 483.62 83.0477 484.095 82.541C484.57 82.0342 484.792 81.3057 484.792 80.3555C484.792 79.9438 484.76 79.532 484.665 79.1836C484.57 78.8035 484.444 78.5185 484.254 78.2334C484.064 77.98 483.842 77.7583 483.525 77.6C483.24 77.4733 482.892 77.3783 482.48 77.3783C482.068 77.3783 481.72 77.4416 481.371 77.6C481.055 77.7267 480.801 77.8533 480.611 78.0117V83.1428Z" fill="#FEFEFE"/>
<path d="M491.095 83.363C491.444 83.363 491.729 83.363 492.014 83.3313C492.267 83.3313 492.489 83.2996 492.679 83.2363V80.8291C492.552 80.7974 492.394 80.7341 492.172 80.7024C491.919 80.6707 491.634 80.6391 491.317 80.6391C491.095 80.6391 490.842 80.6707 490.62 80.7024C490.367 80.7341 490.145 80.7974 489.955 80.8924C489.733 80.9875 489.575 81.1142 489.448 81.3042C489.29 81.4626 489.226 81.6843 489.226 81.9693C489.226 82.5078 489.385 82.8562 489.733 83.0462C490.05 83.2679 490.525 83.363 491.095 83.363ZM490.969 76.0781C491.539 76.0781 492.045 76.1731 492.425 76.3315C492.837 76.4582 493.154 76.6799 493.407 76.965C493.661 77.25 493.819 77.5668 493.914 77.9468C494.041 78.3269 494.072 78.7387 494.072 79.1821V84.2498C493.946 84.2815 493.787 84.3131 493.566 84.3448C493.344 84.3765 493.091 84.4082 492.806 84.4398C492.521 84.4715 492.204 84.5032 491.887 84.5349C491.57 84.5665 491.254 84.5665 490.905 84.5665C490.462 84.5665 490.05 84.5349 489.67 84.4398C489.258 84.3448 488.941 84.1865 488.656 83.9964C488.371 83.7747 488.15 83.5213 487.991 83.2046C487.833 82.8562 487.77 82.4444 487.77 82.001C487.77 81.5259 487.865 81.1458 488.055 80.8291C488.213 80.5124 488.466 80.259 488.783 80.0689C489.1 79.8472 489.448 79.7205 489.86 79.6255C490.303 79.5305 490.715 79.4672 491.19 79.4672C491.317 79.4672 491.475 79.4988 491.634 79.4988C491.792 79.5305 491.95 79.5305 492.077 79.5622C492.204 79.5938 492.33 79.6255 492.457 79.6255C492.552 79.6572 492.616 79.6572 492.679 79.6889V79.2771C492.679 79.0237 492.647 78.802 492.584 78.5803C492.521 78.3269 492.425 78.1369 492.299 77.9468C492.172 77.7568 491.982 77.5984 491.76 77.5034C491.507 77.4084 491.222 77.3451 490.842 77.3451C490.367 77.3451 489.955 77.3767 489.575 77.4401C489.226 77.5034 488.973 77.5668 488.783 77.6618L488.625 76.4582C488.783 76.3632 489.1 76.2998 489.543 76.2048C489.987 76.1415 490.462 76.0781 490.969 76.0781Z" fill="#FEFEFE"/>
<path d="M498.918 84.5681C498.031 84.5364 497.397 84.3463 497.017 83.9979C496.637 83.6179 496.447 83.0477 496.447 82.2876V72.5639L497.904 72.3105V82.0659C497.904 82.2876 497.936 82.4776 497.968 82.636C497.999 82.7944 498.063 82.9211 498.158 83.0161C498.253 83.1111 498.379 83.1744 498.538 83.2378C498.696 83.2695 498.886 83.3011 499.108 83.3328L498.918 84.5681Z" fill="#FEFEFE"/>
<path d="M500.756 84.4097V72.5639L502.181 72.3105V76.4597C502.466 76.3647 502.751 76.2697 503.068 76.2063C503.353 76.143 503.67 76.1113 503.955 76.1113C504.62 76.1113 505.158 76.2063 505.57 76.3964C506.014 76.5864 506.33 76.8398 506.584 77.1565C506.837 77.5049 507.027 77.885 507.122 78.3284C507.249 78.8035 507.281 79.3103 507.281 79.8488V84.4097H505.855V80.1655C505.855 79.6587 505.792 79.247 505.729 78.8986C505.665 78.5185 505.57 78.2334 505.412 78.0434C505.253 77.8217 505.032 77.6633 504.778 77.5683C504.525 77.4416 504.208 77.4099 503.828 77.4099C503.67 77.4099 503.511 77.4099 503.321 77.4416C503.163 77.4416 503.005 77.4733 502.846 77.5049C502.688 77.5366 502.561 77.5683 502.435 77.6C502.34 77.6316 502.244 77.6633 502.181 77.6633V84.4097H500.756Z" fill="#FEFEFE"/>
<path d="M516.813 80.354C516.813 80.9875 516.718 81.5893 516.528 82.096C516.338 82.6028 516.084 83.0779 515.736 83.4263C515.388 83.8064 515.008 84.0914 514.532 84.3131C514.057 84.5032 513.551 84.5982 512.98 84.5982C512.442 84.5982 511.935 84.5032 511.46 84.3131C510.985 84.0914 510.605 83.8064 510.257 83.4263C509.908 83.0779 509.655 82.6028 509.465 82.096C509.275 81.5893 509.18 80.9875 509.18 80.354C509.18 79.7205 509.275 79.1504 509.465 78.612C509.655 78.0735 509.908 77.6301 510.257 77.25C510.605 76.9016 510.985 76.5849 511.46 76.3949C511.935 76.2048 512.442 76.0781 512.98 76.0781C513.551 76.0781 514.057 76.2048 514.532 76.3949C515.008 76.5849 515.388 76.9016 515.736 77.25C516.084 77.6301 516.338 78.0735 516.528 78.612C516.718 79.1504 516.813 79.7205 516.813 80.354ZM515.293 80.354C515.293 79.4355 515.071 78.707 514.659 78.1686C514.247 77.6301 513.709 77.3767 512.98 77.3767C512.284 77.3767 511.745 77.6301 511.333 78.1686C510.922 78.707 510.7 79.4355 510.7 80.354C510.7 81.2725 510.922 82.001 511.333 82.5395C511.745 83.0462 512.284 83.3313 512.98 83.3313C513.709 83.3313 514.247 83.0462 514.659 82.5395C515.071 82.001 515.293 81.2725 515.293 80.354Z" fill="#FEFEFE"/>
</svg>
