<svg width="641" height="157" viewBox="0 0 641 157" fill="none" xmlns="http://www.w3.org/2000/svg">
<g clip-path="url(#clip0_4520_45007)">
<path fill-rule="evenodd" clip-rule="evenodd" d="M129.946 118.675C132.063 111.38 137.354 105.295 145.594 105.22C154.06 105.144 159.918 111.569 160.145 118.599C154.551 118.902 136.22 118.561 129.946 118.675ZM159.124 137.497C161.77 134.587 165.247 134.435 170.009 136.854C167.553 150.12 149.298 162.971 131.572 150.99C122.803 145.094 119.137 133.188 119.477 123.135C119.742 116.294 121.178 109.415 126.696 103.632C139.509 90.2527 159.049 93.2008 167.326 108.319C169.254 111.872 170.198 115.5 170.009 118.675C169.707 124.08 166.23 128.199 159.351 128.653C153.304 129.257 150.469 129.031 129.946 129.031C131.496 139.651 141.209 149.176 151.981 143.695C154.135 142.675 155.383 141.843 156.403 140.861C157.65 139.727 158.066 138.668 159.124 137.497Z" fill="#31978D"/>
<path fill-rule="evenodd" clip-rule="evenodd" d="M35.307 106.769L35.2314 96.3756C35.2314 86.9646 35.3826 80.5394 24.8377 80.9173C24.7243 92.6717 24.7999 106.505 24.8377 118.259C24.8377 123.286 24.8377 128.313 24.8377 133.339C24.8377 142.599 26.1606 147.739 31.4519 151.897C34.0598 153.938 37.2724 155.261 40.8251 155.752C44.0377 156.206 47.4771 155.979 50.9543 154.996C50.9543 150.612 49.8204 147.021 44.9448 145.963C44.4157 145.85 43.8109 145.736 43.2062 145.698C42.4503 145.623 41.5432 145.434 40.8251 145.207C40.4472 145.094 40.0314 144.943 39.5779 144.754C36.1007 143.317 35.2692 140.483 35.2314 135.72L35.2692 117.125L35.307 106.769Z" fill="#31978D"/>
<path fill-rule="evenodd" clip-rule="evenodd" d="M69.5495 111.985C69.5495 103.746 70.2298 96.111 59.1558 96.4889C59.0424 108.659 59.118 118.372 59.1558 130.542C59.118 142.713 59.0424 143.809 59.1558 155.941C69.7007 156.319 69.5495 149.894 69.5495 140.483C69.6629 126.461 69.6629 126.007 69.5495 111.985Z" fill="#31978D"/>
<path fill-rule="evenodd" clip-rule="evenodd" d="M11.3448 111.985C11.3448 103.746 12.0251 96.111 0.98888 96.4889C0.837699 108.659 0.913289 118.372 0.951085 130.542C0.913289 142.713 0.837699 143.809 0.98888 155.941C11.496 156.319 11.3448 149.894 11.3448 140.483C11.3826 136.325 11.3826 133.528 11.4204 131.298C11.4582 126.007 11.4204 121.812 11.3448 111.985Z" fill="#31978D"/>
<path fill-rule="evenodd" clip-rule="evenodd" d="M0.421964 80.9551C8.35897 80.6527 10.3999 84.1677 10.8157 88.5897C10.9291 90.026 10.7779 91.5378 10.7779 93.3897C2.95425 93.6921 0.837712 91.7268 0.384168 87.4559C0.195192 85.9819 0.384168 82.8827 0.421964 80.9551Z" fill="#31978D"/>
<path fill-rule="evenodd" clip-rule="evenodd" d="M58.6645 80.9551C66.6015 80.6527 68.6425 84.1677 69.0582 88.5897C69.2094 90.026 69.0582 91.5378 69.0204 93.3897C61.2346 93.6921 59.0803 91.7268 58.6267 87.4559C58.4756 85.9819 58.6645 82.8827 58.6645 80.9551Z" fill="#31978D"/>
<path fill-rule="evenodd" clip-rule="evenodd" d="M209.694 95.4685C212.831 96.2622 215.968 97.774 218.803 100.004C216.611 105.409 213.36 107.261 208.371 105.787C206.368 105.182 205.537 104.653 203.307 104.426C199.149 104.048 194.501 104.917 189.965 107.714C190.003 109.453 189.965 109.982 189.965 111.834C190.079 125.856 190.079 126.461 189.965 140.483C189.965 149.894 190.116 156.319 179.571 155.941C179.383 135.645 179.496 115.349 179.496 95.0528C181.499 95.015 188.453 94.448 189.965 95.5819C190.003 95.5819 189.927 97.5851 189.965 97.5473C192.913 94.9772 201.266 93.163 209.694 95.4685Z" fill="#31978D"/>
<path fill-rule="evenodd" clip-rule="evenodd" d="M233.845 96.3756C238.268 95.2417 242.954 94.637 247.187 95.1661C259.66 96.4134 263.439 107.109 263.25 119.771C263.326 127.481 263.439 135.456 263.175 143.128C263.061 146.87 262.986 149.478 261.814 151.028C261.209 151.821 260.416 152.502 259.319 152.917C247.112 157.453 229.348 157.906 222.242 148.684C218.69 144.073 217.971 136.854 219.861 130.845C222.394 122.681 230.784 118.486 238.797 117.692C243.597 117.201 248.586 117.617 252.97 118.637C253.612 107.223 247.49 103.935 238.91 105.522C237.36 105.824 236.189 106.278 234.753 106.656C229.612 107.979 226.4 105.824 224.359 99.8905C225.115 99.437 228.479 97.774 233.845 96.3756ZM250.249 128.653C252.97 129.257 252.97 129.598 253.008 129.9C253.008 133.15 253.083 136.476 252.932 139.727C252.857 141.428 252.819 142.637 252.214 143.355C251.874 143.733 251.458 144.035 250.853 144.224C244.353 146.303 234.866 146.53 231.086 142.259C229.31 140.256 228.857 137.232 229.612 134.549C230.822 130.429 235.32 128.35 239.931 127.972C242.463 127.746 245.146 127.935 250.249 128.653Z" fill="#31978D"/>
<path fill-rule="evenodd" clip-rule="evenodd" d="M97.8205 106.769V106.618H98.1607H107.043C113.959 106.505 114.791 103.028 113.581 96.3756H97.7449C97.7449 86.9646 97.8961 80.5394 87.3512 80.9173C87.3134 85.8307 87.2756 91.0842 87.2756 96.3756H81.6819C80.6237 102.045 80.6615 106.467 87.3134 106.618C87.3134 110.624 87.3134 114.555 87.3134 118.259C87.3512 123.286 87.3512 128.313 87.3512 133.339C87.3512 142.599 88.6741 147.739 93.9654 151.897C96.5733 153.938 99.7859 155.261 103.301 155.752C106.513 156.206 109.991 155.979 113.468 154.996C113.468 150.612 112.334 147.021 107.458 145.963C106.929 145.85 106.324 145.736 105.682 145.698C104.964 145.623 104.057 145.434 103.339 145.207C102.923 145.094 102.507 144.943 102.091 144.754C98.6142 143.317 97.7449 140.483 97.7071 135.72L97.7827 117.125L97.8205 106.769Z" fill="#31978D"/>
<path fill-rule="evenodd" clip-rule="evenodd" d="M204.857 50.1898C197.146 52.7598 190.797 54.6496 185.279 57.9378C179.043 61.6039 173.789 66.215 168.989 71.1283C177.569 73.2827 185.619 73.0559 193.48 71.1661C193.48 71.2039 193.48 71.2417 193.48 71.2795C200.095 65.1189 204.29 58.2024 204.857 50.1898Z" fill="#E98442"/>
<path fill-rule="evenodd" clip-rule="evenodd" d="M133.083 73.4339C142.835 68.0292 155.685 67.0087 166.419 69.9945C166.872 70.1079 168.309 70.4481 169.14 70.7126C169.556 70.826 169.858 71.0528 169.82 71.0528C169.82 71.015 169.707 71.3551 169.291 71.8087C168.649 72.5268 167.591 73.5473 167.364 73.774C161.052 79.8591 153.153 84.0166 144.724 86.0575C139.698 83.1473 134.633 79.141 133.083 73.4339C133.235 73.1693 132.932 73.7362 133.083 73.4339Z" fill="#E98442"/>
<path fill-rule="evenodd" clip-rule="evenodd" d="M116.983 52.3819C109.461 58.5803 108.668 60.3567 106.74 69.8055C118.419 73.8118 119.439 74.7945 131.156 74.2276C132.063 74.152 132.97 73.9252 133.877 73.8874C133.915 73.8118 133.235 72.5646 133.159 72.3378C131.95 68.6339 130.854 66.8953 128.926 63.078C125.827 58.7693 121.821 54.6874 116.983 52.3819Z" fill="#E98442"/>
<path fill-rule="evenodd" clip-rule="evenodd" d="M117.209 52.7976C121.178 48.0354 123.068 46.0701 125.524 40.2496C126.961 36.848 127.641 34.0512 128.699 28.722C117.776 32.2748 113.43 35.7898 105.493 43.5378C108.365 48.8669 112.334 51.7772 117.247 52.7976C117.209 52.7976 117.209 52.7976 117.209 52.7976Z" fill="#E98442"/>
<path fill-rule="evenodd" clip-rule="evenodd" d="M164.832 11.7142V11.6764C164.151 11.4874 163.131 11.4118 162.337 11.2606C155.383 9.71101 145.594 10.2779 139.017 11.9031C132.63 17.9882 130.438 21.6921 128.246 28.2307C127.754 29.7047 127.754 29.7047 127.754 29.7047C128.17 29.6291 128.586 29.5535 129.002 29.4401C141.096 26.6811 154.702 20.3315 162.261 13.7551C162.942 13.1504 164.454 12.1299 164.832 11.7142Z" fill="#E98442"/>
<path fill-rule="evenodd" clip-rule="evenodd" d="M196.504 11.185C202.929 9.52204 211.055 9.06849 219.37 11.6008C220.617 14.5488 219.786 18.9709 217.783 23.2039C216.535 25.8496 216.157 25.774 214.57 27.7394C212.869 26.9079 211.357 26.1142 209.959 25.3205C205.537 22.7126 202.287 19.8401 199.074 15.0023C198.205 13.8307 197.373 12.3567 196.504 11.185Z" fill="#E98442"/>
<path fill-rule="evenodd" clip-rule="evenodd" d="M203.987 51.2481C204.479 42.404 206.104 37.793 211.357 31.4433C212.453 30.0827 213.172 28.6465 214.154 27.5882C214.457 27.2481 214.457 26.9079 214.457 26.8701C214.494 26.8701 214.91 27.3237 215.515 27.7016C217.064 28.6843 217.518 28.8733 218.69 29.5536C222.961 31.9725 224.435 35.2229 226.06 39.1158C221.26 44.5205 216.384 47.6953 203.987 51.2481Z" fill="#E98442"/>
<path fill-rule="evenodd" clip-rule="evenodd" d="M163.433 12.0543C164.151 10.5047 172.731 5.0622 174.356 4.2685C177.871 2.64331 181.839 1.35827 186.375 0.111023C192.46 3.09685 195.181 5.32677 197.6 11.4874C188.491 13.2638 180.895 13.7551 172.391 12.9236C170.312 12.7346 165.172 12.4701 163.433 12.0543Z" fill="#E98442"/>
<path d="M388.617 58.1646C380.718 58.1646 378.753 61.037 378.753 70.6748C378.753 80.2748 380.718 83.0338 388.617 83.0338C391.49 83.0338 395.874 83.0338 396.554 81.5976C396.63 81.4086 396.668 81.2953 396.668 80.9551V71.2795C396.668 70.9394 396.516 70.7504 396.176 70.7504H394.06C393.72 70.7504 393.568 70.9394 393.568 71.2795V80.1614H388.617C383.024 80.1614 382.041 78.0449 382.041 70.6748C382.041 63.2291 383.024 61.0748 388.617 61.0748H394.891C395.194 61.0748 395.383 60.8858 395.383 60.5834V59.0338C395.383 58.7315 395.194 58.5425 394.853 58.5047C393.228 58.2779 390.62 58.1646 388.617 58.1646Z" fill="#31978D"/>
<path d="M407.477 64.9677C401.354 64.9677 400.069 66.7819 400.069 74.0386C400.069 81.2575 401.354 83.0339 407.477 83.0339C409.443 83.0339 411.219 82.9961 412.882 82.7693C413.184 82.7315 413.335 82.5425 413.335 82.2402V80.8039C413.335 80.5016 413.184 80.3126 412.844 80.3126H407.553C404.076 80.3126 403.32 79.3677 403.206 75.3992H413.524C414.545 75.3992 414.696 75.1346 414.696 74.4921V73.5472C414.621 66.7063 413.26 64.9677 407.477 64.9677ZM407.477 67.689C410.841 67.689 411.521 68.7472 411.597 72.8669H403.206C403.244 68.7472 403.962 67.689 407.477 67.689Z" fill="#31978D"/>
<path d="M424.258 64.9677C420.781 64.9677 417.682 65.4591 417.682 69.0496V69.7299C417.682 71.5063 418.286 73.3961 420.781 74.3409L425.392 76.1173C426.904 76.722 427.282 77.3268 427.282 78.2716V78.6496C427.282 80.048 426.488 80.3504 423.88 80.3504H417.871C417.568 80.3504 417.379 80.5016 417.379 80.8417V82.2779C417.379 82.5425 417.493 82.7315 417.871 82.7693C418.438 82.8071 421.008 83.0339 423.805 83.0339C428.189 83.0339 430.381 82.3157 430.381 78.6874V78.3472C430.381 76.5709 430.116 74.9079 427.131 73.774L422.822 72.0354C421.235 71.4685 420.781 70.6748 420.781 69.7677V69.352C420.781 68.1803 421.688 67.689 423.162 67.689H429.209C429.512 67.689 429.701 67.5 429.701 67.1976V65.7992C429.701 65.4968 429.512 65.3079 429.247 65.2701C427.357 65.0433 425.694 64.9677 424.258 64.9677Z" fill="#31978D"/>
<path d="M435.219 60.7725C434.954 60.848 434.803 60.9614 434.803 61.3016V65.1945H432.989C432.687 65.1945 432.498 65.3457 432.498 65.648V67.1977C432.498 67.5 432.687 67.689 432.989 67.689H434.803V79.3677C434.803 82.9961 437.487 83.0339 439.792 83.0339C440.094 83.0339 440.964 82.9961 441.606 82.8449C441.946 82.7693 442.098 82.6181 442.098 82.3158V80.7662C442.098 80.4638 441.946 80.3126 441.606 80.3126H440.019C438.318 80.3126 437.94 80.0102 437.94 78.574V67.689H441.342C441.682 67.689 441.833 67.5 441.833 67.1977V65.648C441.833 65.3457 441.682 65.1945 441.342 65.1945H437.94V60.6591C437.94 60.3189 437.713 60.1677 437.373 60.2433L435.219 60.7725Z" fill="#31978D"/>
<path d="M448.901 58.8827C447.313 58.8827 446.671 59.4874 445.915 61.9819C445.801 62.4355 445.915 62.5866 446.255 62.7L447.011 62.889C447.313 63.0024 447.427 62.9646 447.616 62.5866C447.994 61.7173 448.296 61.4906 449.127 61.4906C450.223 61.4906 452.038 62.7756 453.474 62.7756C455.137 62.7756 455.779 62.1331 456.535 59.6764C456.611 59.2229 456.497 59.0339 456.195 58.9205L455.439 58.7315C455.099 58.6181 454.986 58.6559 454.834 59.0717C454.419 59.941 454.116 60.1677 453.323 60.1677C452.189 60.1677 450.412 58.8827 448.901 58.8827ZM450.677 64.9677C449.316 64.9677 447.691 65.0433 445.764 65.3835C445.461 65.4213 445.31 65.4969 445.31 65.8748V67.2355C445.31 67.6134 445.423 67.689 445.801 67.689H450.677C453.701 67.689 454.872 68.5961 454.872 70.637V72.7914L449.657 72.8292C445.953 72.8292 443.912 73.9252 443.912 77.8181C443.912 82.1646 445.915 83.0339 450.186 83.0339C453.436 83.0339 456.233 82.7693 457.367 82.3158C458.009 82.089 458.009 81.711 458.009 81.4087V70.0701C458.009 66.5551 455.742 64.9677 450.677 64.9677ZM454.872 75.3236V80.0103C453.663 80.3126 451.735 80.3882 450.715 80.3882C448.069 80.3882 447.011 79.8969 447.011 77.7425C447.011 75.9284 447.956 75.3236 449.732 75.3236H454.872Z" fill="#31978D"/>
<path d="M469.348 64.9677C463.074 64.9677 461.789 66.7819 461.789 74.0386C461.789 81.2575 463.074 83.0339 469.348 83.0339C475.622 83.0339 476.869 81.2575 476.869 74.0386C476.869 66.7819 475.622 64.9677 469.348 64.9677ZM469.348 67.689C473.279 67.689 473.77 68.974 473.77 74.0386C473.77 79.0654 473.279 80.3126 469.348 80.3126C465.38 80.3126 464.888 79.0654 464.888 74.0386C464.888 68.974 465.38 67.689 469.348 67.689Z" fill="#31978D"/>
<path d="M489.039 58.3157C488.699 58.3157 488.548 58.5047 488.548 58.8449V82.3913C488.548 82.7315 488.699 82.8827 489.039 82.8827H491.345C491.647 82.8827 491.836 82.7315 491.836 82.3913V58.8449C491.836 58.5047 491.647 58.3157 491.345 58.3157H489.039Z" fill="#31978D"/>
<path d="M503.931 64.9677C502.381 64.9677 499.697 65.0055 497.165 65.4968C496.863 65.5724 496.674 65.6102 496.674 66.026V82.3913C496.674 82.7315 496.863 82.8827 497.165 82.8827H499.319C499.66 82.8827 499.811 82.7315 499.811 82.3913V67.689H504.233C507.37 67.689 508.315 67.8779 508.315 72.8291V82.3913C508.315 82.7315 508.504 82.8827 508.806 82.8827H510.885C511.225 82.8827 511.452 82.7315 511.452 82.3913V72.5646C511.452 65.6858 509.713 64.9677 503.931 64.9677Z" fill="#31978D"/>
<path d="M517.083 60.7725C516.781 60.848 516.668 60.9614 516.668 61.3016V65.1945H514.853C514.513 65.1945 514.362 65.3457 514.362 65.648V67.1977C514.362 67.5 514.513 67.689 514.853 67.689H516.668V79.3677C516.668 82.9961 519.313 83.0339 521.657 83.0339C521.959 83.0339 522.828 82.9961 523.471 82.8449C523.811 82.7693 523.962 82.6181 523.962 82.3158V80.7662C523.962 80.4638 523.811 80.3126 523.433 80.3126H521.883C520.183 80.3126 519.767 80.0102 519.767 78.574V67.689H523.168C523.546 67.689 523.697 67.5 523.697 67.1977V65.648C523.697 65.3457 523.546 65.1945 523.168 65.1945H519.767V60.6591C519.767 60.3189 519.578 60.1677 519.238 60.2433L517.083 60.7725Z" fill="#31978D"/>
<path d="M533.713 64.9677C527.628 64.9677 526.343 66.7819 526.343 74.0386C526.343 81.2575 527.628 83.0339 533.713 83.0339C535.716 83.0339 537.493 82.9961 539.156 82.7693C539.42 82.7315 539.609 82.5425 539.609 82.2402V80.8039C539.609 80.5016 539.42 80.3126 539.118 80.3126H533.789C530.312 80.3126 529.594 79.3677 529.48 75.3992H539.798C540.781 75.3992 540.97 75.1346 540.97 74.4921V73.5472C540.894 66.7063 539.534 64.9677 533.713 64.9677ZM533.713 67.689C537.115 67.689 537.795 68.7472 537.833 72.8669H529.442C529.518 68.7472 530.236 67.689 533.713 67.689Z" fill="#31978D"/>
<path d="M545.014 58.3157C544.674 58.3157 544.523 58.5047 544.523 58.8071V82.3913C544.523 82.7315 544.674 82.8827 545.014 82.8827H547.168C547.471 82.8827 547.66 82.7315 547.66 82.3913V58.8071C547.66 58.5047 547.471 58.3157 547.168 58.3157H545.014Z" fill="#31978D"/>
<path d="M553.669 58.089C552.46 58.089 551.742 58.7315 551.742 59.941C551.742 61.1882 552.46 61.8685 553.669 61.8685C554.954 61.8685 555.597 61.1882 555.597 59.941C555.597 58.7315 554.954 58.089 553.669 58.089ZM552.611 65.1567C552.271 65.1567 552.12 65.3079 552.12 65.648V82.3914C552.12 82.7315 552.271 82.8827 552.611 82.8827H554.728C555.068 82.8827 555.219 82.7315 555.219 82.3914V65.648C555.219 65.3079 555.068 65.1567 554.728 65.1567H552.611Z" fill="#31978D"/>
<path d="M566.746 64.9677C560.472 64.9677 559.149 66.7819 559.149 73.963C559.149 81.2197 560.434 83.0339 566.595 83.0339C568.22 83.0339 569.468 82.9961 570.866 82.7693V82.9961C570.866 85.9063 570.034 86.7756 566.406 86.7756H561.833C561.493 86.7756 561.342 86.9268 561.342 87.2669V88.6653C561.342 88.9677 561.493 89.1567 561.795 89.1945C563.458 89.4213 565.234 89.4591 566.482 89.4591C572.718 89.4591 573.927 87.6071 573.965 81.2575V66.1016C573.965 65.7236 573.776 65.5724 573.474 65.5346C572.075 65.2323 569.808 64.9677 566.746 64.9677ZM570.866 67.689V80.0858C569.581 80.2748 568.031 80.3126 566.784 80.3126C562.74 80.3126 562.286 79.0654 562.286 74.0008C562.286 68.974 562.74 67.689 566.708 67.689H570.866Z" fill="#31978D"/>
<path d="M585.266 64.9677C579.181 64.9677 577.858 66.7819 577.858 74.0386C577.858 81.2575 579.181 83.0339 585.266 83.0339C587.231 83.0339 589.008 82.9961 590.671 82.7693C590.973 82.7315 591.124 82.5425 591.124 82.2402V80.8039C591.124 80.5016 590.973 80.3126 590.633 80.3126H585.342C581.864 80.3126 581.109 79.3677 580.995 75.3992H591.313C592.334 75.3992 592.485 75.1346 592.485 74.4921V73.5472C592.447 66.7063 591.049 64.9677 585.266 64.9677ZM585.266 67.689C588.63 67.689 589.31 68.7472 589.386 72.8669H580.995C581.033 68.7472 581.751 67.689 585.266 67.689Z" fill="#31978D"/>
<path d="M603.256 64.9677C601.707 64.9677 599.061 65.0055 596.529 65.4968C596.189 65.5724 596.038 65.6102 596.038 66.026V82.3913C596.038 82.7315 596.189 82.8827 596.529 82.8827H598.645C598.986 82.8827 599.137 82.7315 599.137 82.3913V67.689H603.597C606.696 67.689 607.679 67.8779 607.679 72.8291V82.3913C607.679 82.7315 607.83 82.8827 608.17 82.8827H610.249C610.551 82.8827 610.778 82.7315 610.778 82.3913V72.5646C610.778 65.6858 609.077 64.9677 603.256 64.9677Z" fill="#31978D"/>
<path d="M616.447 60.7725C616.145 60.848 615.993 60.9614 615.993 61.3016V65.1945H614.179C613.877 65.1945 613.688 65.3457 613.688 65.648V67.1977C613.688 67.5 613.877 67.689 614.179 67.689H615.993V79.3677C615.993 82.9961 618.677 83.0339 621.02 83.0339C621.285 83.0339 622.154 82.9961 622.834 82.8449C623.137 82.7693 623.288 82.6181 623.288 82.3158V80.7662C623.288 80.4638 623.137 80.3126 622.797 80.3126H621.247C619.508 80.3126 619.131 80.0102 619.131 78.574V67.689H622.532C622.872 67.689 623.061 67.5 623.061 67.1977V65.648C623.061 65.3457 622.872 65.1945 622.532 65.1945H619.131V60.6591C619.131 60.3189 618.942 60.1677 618.564 60.2433L616.447 60.7725Z" fill="#31978D"/>
<path d="M633.077 64.9677C626.954 64.9677 625.669 66.7819 625.669 74.0386C625.669 81.2575 626.954 83.0339 633.077 83.0339C635.042 83.0339 636.819 82.9961 638.482 82.7693C638.784 82.7315 638.935 82.5425 638.935 82.2402V80.8039C638.935 80.5016 638.784 80.3126 638.444 80.3126H633.115C629.675 80.3126 628.92 79.3677 628.806 75.3992H639.124C640.145 75.3992 640.296 75.1346 640.296 74.4921V73.5472C640.22 66.7063 638.86 64.9677 633.077 64.9677ZM633.077 67.689C636.441 67.689 637.121 68.7472 637.197 72.8669H628.768C628.844 68.7472 629.562 67.689 633.077 67.689Z" fill="#31978D"/>
<path d="M383.137 106.618C385.027 106.618 385.972 105.976 385.972 104.691C385.972 104.275 385.858 103.935 385.707 103.67C385.556 103.405 385.329 103.141 385.027 102.952C384.762 102.725 384.422 102.574 384.044 102.423C383.704 102.272 383.288 102.12 382.872 101.969C382.419 101.818 381.965 101.629 381.55 101.44C381.134 101.213 380.756 100.987 380.453 100.684C380.151 100.42 379.887 100.08 379.735 99.7016C379.546 99.3236 379.433 98.8701 379.433 98.3031C379.433 97.1693 379.849 96.3 380.605 95.6575C381.361 95.0149 382.419 94.7126 383.779 94.7126C384.573 94.7126 385.291 94.7882 385.896 94.9772C386.539 95.1283 387.03 95.3173 387.332 95.5063L386.728 96.9803C386.463 96.8291 386.085 96.6779 385.594 96.5268C385.065 96.3378 384.46 96.2622 383.779 96.2622C383.439 96.2622 383.099 96.3 382.835 96.3756C382.532 96.4512 382.268 96.5646 382.041 96.7157C381.814 96.8669 381.625 97.0559 381.512 97.2827C381.361 97.5094 381.323 97.774 381.323 98.1142C381.323 98.4543 381.361 98.7567 381.512 98.9835C381.663 99.2102 381.852 99.437 382.079 99.5882C382.343 99.7772 382.646 99.9283 382.948 100.08C383.288 100.231 383.666 100.382 384.044 100.533C384.611 100.76 385.102 100.987 385.594 101.213C386.047 101.44 386.463 101.705 386.803 102.007C387.143 102.309 387.408 102.687 387.597 103.103C387.748 103.557 387.861 104.048 387.861 104.653C387.861 105.787 387.446 106.656 386.614 107.261C385.783 107.865 384.649 108.168 383.137 108.168C382.608 108.168 382.154 108.168 381.739 108.092C381.285 108.017 380.907 107.941 380.567 107.828C380.265 107.752 379.962 107.639 379.735 107.563C379.471 107.45 379.282 107.336 379.168 107.261L379.698 105.787C379.962 105.938 380.416 106.127 380.983 106.316C381.587 106.543 382.305 106.618 383.137 106.618Z" fill="#31978D"/>
<path d="M389.373 103.103C389.373 102.234 389.524 101.478 389.751 100.835C390.016 100.193 390.318 99.6638 390.734 99.248C391.149 98.8323 391.641 98.5299 392.17 98.3032C392.699 98.0764 393.228 98.0008 393.795 98.0008C395.08 98.0008 396.101 98.3787 396.781 99.2102C397.499 100.004 397.839 101.251 397.839 102.914C397.839 102.99 397.839 103.103 397.839 103.217C397.839 103.33 397.839 103.443 397.801 103.519H391.187C391.263 104.539 391.565 105.295 392.057 105.824C392.586 106.354 393.379 106.618 394.438 106.618C395.042 106.618 395.571 106.543 395.987 106.429C396.403 106.354 396.705 106.24 396.932 106.127L397.159 107.601C396.97 107.714 396.592 107.828 396.063 107.941C395.534 108.054 394.929 108.13 394.249 108.13C393.417 108.13 392.699 108.017 392.057 107.752C391.452 107.487 390.96 107.147 390.545 106.694C390.167 106.24 389.864 105.711 389.675 105.106C389.486 104.502 389.373 103.821 389.373 103.103ZM396.025 102.12C396.025 101.365 395.836 100.722 395.458 100.231C395.042 99.7016 394.475 99.4748 393.757 99.4748C393.379 99.4748 393.039 99.5504 392.737 99.7016C392.434 99.8528 392.17 100.042 391.943 100.306C391.754 100.533 391.565 100.835 391.452 101.138C391.338 101.478 391.263 101.818 391.225 102.12H396.025Z" fill="#31978D"/>
<path d="M406.381 106.958C406.23 107.034 405.965 107.185 405.512 107.336C405.096 107.487 404.605 107.563 404.038 107.563C403.433 107.563 402.904 107.45 402.375 107.261C401.883 107.072 401.43 106.807 401.014 106.391C400.636 106.013 400.334 105.522 400.107 104.955C399.88 104.35 399.805 103.67 399.805 102.876C399.805 102.158 399.88 101.516 400.107 100.911C400.296 100.344 400.636 99.815 401.014 99.3992C401.43 98.9835 401.921 98.6433 402.488 98.3787C403.093 98.152 403.735 98.0386 404.491 98.0386C405.285 98.0386 406.003 98.0764 406.57 98.1898C407.175 98.3031 407.704 98.4165 408.12 98.5299V107.147C408.12 108.659 407.704 109.717 406.948 110.398C406.192 111.078 405.02 111.418 403.471 111.418C402.828 111.418 402.261 111.343 401.732 111.267C401.203 111.154 400.712 111.04 400.334 110.889L400.636 109.415C400.976 109.528 401.43 109.642 401.921 109.755C402.413 109.868 402.942 109.906 403.471 109.906C404.529 109.906 405.247 109.717 405.701 109.302C406.154 108.886 406.381 108.243 406.381 107.336V106.958ZM406.381 99.7394C406.192 99.7016 405.965 99.6638 405.663 99.626C405.398 99.5882 404.983 99.5504 404.491 99.5504C403.546 99.5504 402.866 99.8527 402.337 100.457C401.846 101.062 401.581 101.894 401.581 102.876C401.581 103.443 401.657 103.935 401.808 104.313C401.959 104.728 402.148 105.031 402.375 105.295C402.639 105.56 402.904 105.749 403.206 105.862C403.546 106.013 403.849 106.051 404.189 106.051C404.642 106.051 405.058 106.013 405.474 105.862C405.852 105.749 406.154 105.598 406.381 105.409V99.7394Z" fill="#31978D"/>
<path d="M418.778 107.639C418.4 107.714 417.871 107.828 417.228 107.941C416.548 108.054 415.792 108.13 414.961 108.13C414.205 108.13 413.562 108.017 413.071 107.79C412.58 107.563 412.164 107.261 411.861 106.883C411.521 106.467 411.295 106.013 411.181 105.446C411.03 104.917 410.954 104.313 410.954 103.67V98.2275H412.693V103.292C412.693 104.464 412.882 105.333 413.26 105.824C413.638 106.316 414.243 106.58 415.15 106.58C415.339 106.58 415.528 106.58 415.717 106.58C415.906 106.542 416.095 106.542 416.283 106.505C416.435 106.505 416.624 106.467 416.737 106.467C416.888 106.429 417.002 106.429 417.039 106.391V98.2275H418.778V107.639Z" fill="#31978D"/>
<path d="M425.316 98.0386C425.468 98.0386 425.657 98.0386 425.846 98.0386C426.035 98.0764 426.224 98.1142 426.412 98.1142C426.601 98.152 426.753 98.1898 426.942 98.2276C427.093 98.2653 427.206 98.2653 427.282 98.3031L426.979 99.815C426.828 99.7772 426.601 99.7016 426.299 99.626C425.959 99.5504 425.581 99.5504 425.09 99.5504C424.749 99.5504 424.447 99.5504 424.107 99.626C423.805 99.7016 423.578 99.7394 423.502 99.7772V107.903H421.764V98.6433C422.179 98.4921 422.671 98.3409 423.275 98.2276C423.88 98.0764 424.561 98.0386 425.316 98.0386Z" fill="#31978D"/>
<path d="M432.233 106.656C432.611 106.656 432.989 106.656 433.291 106.618C433.631 106.618 433.896 106.58 434.085 106.543V103.632C433.971 103.594 433.783 103.519 433.48 103.481C433.216 103.443 432.875 103.406 432.497 103.406C432.233 103.406 431.931 103.443 431.666 103.481C431.364 103.519 431.099 103.594 430.834 103.708C430.608 103.821 430.419 103.972 430.23 104.199C430.079 104.388 430.003 104.653 430.003 104.993C430.003 105.635 430.192 106.051 430.608 106.316C430.986 106.543 431.553 106.656 432.233 106.656ZM432.082 98.0008C432.762 98.0008 433.367 98.0764 433.82 98.2654C434.312 98.4543 434.69 98.6811 434.992 99.0213C435.257 99.3614 435.483 99.7394 435.597 100.193C435.748 100.646 435.786 101.138 435.786 101.705V107.752C435.634 107.752 435.446 107.79 435.181 107.828C434.916 107.903 434.614 107.941 434.274 107.979C433.934 108.017 433.556 108.017 433.178 108.054C432.8 108.092 432.384 108.13 432.006 108.13C431.477 108.13 430.986 108.054 430.494 107.941C430.041 107.828 429.663 107.639 429.323 107.412C428.983 107.185 428.718 106.845 428.529 106.467C428.34 106.051 428.264 105.598 428.264 105.031C428.264 104.502 428.378 104.048 428.567 103.632C428.794 103.254 429.096 102.952 429.474 102.725C429.852 102.498 430.268 102.309 430.759 102.196C431.25 102.083 431.779 102.045 432.346 102.045C432.497 102.045 432.686 102.045 432.875 102.045C433.064 102.083 433.216 102.083 433.405 102.12C433.556 102.158 433.707 102.196 433.82 102.196C433.971 102.234 434.047 102.272 434.085 102.272V101.78C434.085 101.516 434.085 101.213 434.009 100.949C433.934 100.646 433.82 100.42 433.669 100.193C433.518 99.9661 433.291 99.815 433.027 99.6638C432.724 99.5504 432.384 99.4748 431.931 99.4748C431.364 99.4748 430.834 99.5126 430.419 99.5882C430.003 99.6638 429.663 99.7772 429.474 99.8528L429.247 98.4165C429.474 98.3032 429.852 98.2276 430.381 98.1142C430.91 98.0386 431.477 98.0008 432.082 98.0008Z" fill="#31978D"/>
<path d="M438.658 98.4921C439.074 98.4165 439.565 98.3031 440.246 98.1898C440.888 98.0764 441.644 98.0386 442.513 98.0386C443.269 98.0386 443.912 98.152 444.441 98.3409C444.932 98.5677 445.348 98.8701 445.65 99.248C445.953 99.6638 446.179 100.117 446.293 100.684C446.406 101.213 446.482 101.818 446.482 102.461V107.903H444.743V102.839C444.743 102.234 444.705 101.743 444.63 101.327C444.554 100.911 444.403 100.571 444.214 100.306C444.025 100.042 443.798 99.8527 443.496 99.7394C443.156 99.626 442.778 99.5504 442.324 99.5504C442.135 99.5504 441.946 99.5504 441.757 99.5882C441.531 99.5882 441.342 99.5882 441.19 99.626C441.002 99.626 440.85 99.6638 440.699 99.7016C440.548 99.7016 440.435 99.7394 440.397 99.7394V107.903H438.658V98.4921Z" fill="#31978D"/>
<path d="M453.776 108.13L453.55 108.583C453.928 108.772 454.192 108.961 454.343 109.15C454.494 109.377 454.57 109.68 454.57 110.057C454.57 110.209 454.57 110.36 454.494 110.511C454.419 110.662 454.343 110.813 454.192 110.965C454.041 111.078 453.814 111.191 453.587 111.305C453.323 111.38 453.02 111.418 452.68 111.418C452.34 111.418 452.038 111.418 451.773 111.343C451.509 111.305 451.32 111.229 451.131 111.191L451.357 110.133C451.509 110.171 451.66 110.209 451.811 110.246C452 110.284 452.189 110.322 452.378 110.322C452.831 110.322 453.058 110.171 453.058 109.869C453.058 109.755 452.983 109.642 452.869 109.528C452.718 109.453 452.529 109.339 452.265 109.264L452.151 109.188C452.189 109.037 452.265 108.848 452.34 108.659C452.453 108.432 452.529 108.243 452.642 108.054C452 107.979 451.433 107.79 450.979 107.525C450.488 107.223 450.072 106.883 449.77 106.429C449.43 106.013 449.203 105.522 449.052 104.955C448.863 104.388 448.787 103.746 448.787 103.103C448.787 102.347 448.901 101.667 449.128 101.024C449.354 100.42 449.657 99.8906 450.035 99.437C450.45 98.9835 450.942 98.6433 451.509 98.3787C452.076 98.1142 452.718 98.0008 453.436 98.0008C453.852 98.0008 454.305 98.0386 454.721 98.1142C455.175 98.1898 455.591 98.3032 455.968 98.4543L455.591 99.9284C455.326 99.815 455.024 99.7016 454.683 99.626C454.343 99.5504 454.003 99.5126 453.587 99.5126C452.642 99.5126 451.887 99.815 451.395 100.42C450.866 101.024 450.602 101.932 450.602 103.103C450.602 103.594 450.677 104.086 450.791 104.539C450.904 104.955 451.093 105.333 451.357 105.635C451.584 105.938 451.924 106.202 452.302 106.354C452.718 106.505 453.209 106.618 453.776 106.618C454.23 106.618 454.646 106.58 455.024 106.467C455.402 106.391 455.666 106.278 455.893 106.202L456.12 107.639C456.044 107.714 455.893 107.752 455.742 107.79C455.553 107.865 455.364 107.903 455.175 107.941C454.948 107.979 454.721 108.017 454.494 108.054C454.23 108.092 454.003 108.13 453.776 108.13Z" fill="#31978D"/>
<path d="M461.26 106.656C461.676 106.656 462.053 106.656 462.356 106.618C462.658 106.618 462.923 106.58 463.15 106.543V103.632C463.036 103.594 462.809 103.519 462.545 103.481C462.28 103.443 461.94 103.406 461.524 103.406C461.26 103.406 460.995 103.443 460.693 103.481C460.39 103.519 460.126 103.594 459.899 103.708C459.672 103.821 459.446 103.972 459.294 104.199C459.143 104.388 459.068 104.653 459.068 104.993C459.068 105.635 459.257 106.051 459.635 106.316C460.05 106.543 460.579 106.656 461.26 106.656ZM461.109 98.0008C461.827 98.0008 462.394 98.0764 462.885 98.2654C463.339 98.4543 463.754 98.6811 464.019 99.0213C464.321 99.3614 464.51 99.7394 464.661 100.193C464.775 100.646 464.85 101.138 464.85 101.705V107.752C464.699 107.752 464.472 107.79 464.208 107.828C463.943 107.903 463.641 107.941 463.301 107.979C462.961 108.017 462.62 108.017 462.242 108.054C461.827 108.092 461.449 108.13 461.071 108.13C460.504 108.13 460.013 108.054 459.559 107.941C459.105 107.828 458.69 107.639 458.35 107.412C458.047 107.185 457.783 106.845 457.594 106.467C457.405 106.051 457.291 105.598 457.291 105.031C457.291 104.502 457.405 104.048 457.631 103.632C457.858 103.254 458.123 102.952 458.501 102.725C458.879 102.498 459.332 102.309 459.824 102.196C460.315 102.083 460.844 102.045 461.373 102.045C461.562 102.045 461.713 102.045 461.902 102.045C462.091 102.083 462.28 102.083 462.431 102.12C462.62 102.158 462.772 102.196 462.885 102.196C462.998 102.234 463.112 102.272 463.15 102.272V101.78C463.15 101.516 463.112 101.213 463.036 100.949C462.998 100.646 462.885 100.42 462.734 100.193C462.545 99.9661 462.318 99.815 462.053 99.6638C461.789 99.5504 461.411 99.4748 460.957 99.4748C460.39 99.4748 459.899 99.5126 459.483 99.5882C459.03 99.6638 458.727 99.7772 458.501 99.8528L458.312 98.4165C458.539 98.3032 458.916 98.2276 459.408 98.1142C459.937 98.0386 460.504 98.0008 461.109 98.0008Z" fill="#31978D"/>
<path d="M471.464 103.103C471.464 102.234 471.578 101.478 471.842 100.835C472.069 100.193 472.409 99.6638 472.825 99.248C473.241 98.8323 473.694 98.5299 474.223 98.3032C474.753 98.0764 475.319 98.0008 475.886 98.0008C477.171 98.0008 478.192 98.3787 478.872 99.2102C479.553 100.004 479.893 101.251 479.893 102.914C479.893 102.99 479.893 103.103 479.893 103.217C479.893 103.33 479.893 103.443 479.893 103.519H473.279C473.354 104.539 473.619 105.295 474.148 105.824C474.639 106.354 475.433 106.618 476.529 106.618C477.134 106.618 477.663 106.543 478.079 106.429C478.494 106.354 478.797 106.24 478.986 106.127L479.25 107.601C479.023 107.714 478.645 107.828 478.116 107.941C477.625 108.054 477.02 108.13 476.34 108.13C475.508 108.13 474.753 108.017 474.148 107.752C473.543 107.487 473.014 107.147 472.636 106.694C472.22 106.24 471.956 105.711 471.767 105.106C471.578 104.502 471.464 103.821 471.464 103.103ZM478.116 102.12C478.116 101.365 477.927 100.722 477.512 100.231C477.134 99.7016 476.567 99.4748 475.849 99.4748C475.471 99.4748 475.093 99.5504 474.79 99.7016C474.488 99.8528 474.223 100.042 474.034 100.306C473.808 100.533 473.656 100.835 473.543 101.138C473.43 101.478 473.354 101.818 473.316 102.12H478.116Z" fill="#31978D"/>
<path d="M489.795 106.618C491.685 106.618 492.63 105.976 492.63 104.691C492.63 104.275 492.554 103.935 492.403 103.67C492.214 103.405 491.987 103.141 491.723 102.952C491.42 102.725 491.08 102.574 490.74 102.423C490.362 102.272 489.984 102.12 489.568 101.969C489.115 101.818 488.661 101.629 488.246 101.44C487.792 101.213 487.452 100.987 487.149 100.684C486.809 100.42 486.583 100.08 486.394 99.7016C486.205 99.3236 486.129 98.8701 486.129 98.3031C486.129 97.1693 486.507 96.3 487.263 95.6575C488.057 95.0149 489.115 94.7126 490.475 94.7126C491.231 94.7126 491.949 94.7882 492.592 94.9772C493.235 95.1283 493.688 95.3173 493.99 95.5063L493.424 96.9803C493.159 96.8291 492.781 96.6779 492.252 96.5268C491.761 96.3378 491.156 96.2622 490.475 96.2622C490.098 96.2622 489.795 96.3 489.493 96.3756C489.19 96.4512 488.926 96.5646 488.699 96.7157C488.472 96.8669 488.321 97.0559 488.17 97.2827C488.057 97.5094 487.981 97.774 487.981 98.1142C487.981 98.4543 488.057 98.7567 488.208 98.9835C488.321 99.2102 488.51 99.437 488.775 99.5882C489.001 99.7772 489.304 99.9283 489.644 100.08C489.946 100.231 490.324 100.382 490.74 100.533C491.269 100.76 491.798 100.987 492.252 101.213C492.705 101.44 493.121 101.705 493.461 102.007C493.801 102.309 494.066 102.687 494.255 103.103C494.444 103.557 494.52 104.048 494.52 104.653C494.52 105.787 494.142 106.656 493.31 107.261C492.479 107.865 491.307 108.168 489.795 108.168C489.304 108.168 488.85 108.168 488.397 108.092C487.981 108.017 487.603 107.941 487.263 107.828C486.923 107.752 486.62 107.639 486.394 107.563C486.167 107.45 485.978 107.336 485.827 107.261L486.356 105.787C486.658 105.938 487.074 106.127 487.679 106.316C488.246 106.543 488.964 106.618 489.795 106.618Z" fill="#31978D"/>
<path d="M499.886 106.656C500.302 106.656 500.642 106.656 500.983 106.618C501.285 106.618 501.549 106.58 501.738 106.543V103.632C501.625 103.594 501.436 103.519 501.134 103.481C500.869 103.443 500.529 103.406 500.151 103.406C499.886 103.406 499.584 103.443 499.32 103.481C499.017 103.519 498.753 103.594 498.526 103.708C498.261 103.821 498.072 103.972 497.921 104.199C497.732 104.388 497.657 104.653 497.657 104.993C497.657 105.635 497.846 106.051 498.261 106.316C498.639 106.543 499.206 106.656 499.886 106.656ZM499.735 98.0008C500.416 98.0008 501.02 98.0764 501.474 98.2654C501.965 98.4543 502.343 98.6811 502.646 99.0213C502.948 99.3614 503.137 99.7394 503.25 100.193C503.401 100.646 503.439 101.138 503.439 101.705V107.752C503.288 107.752 503.099 107.79 502.835 107.828C502.57 107.903 502.268 107.941 501.927 107.979C501.587 108.017 501.209 108.017 500.831 108.054C500.453 108.092 500.075 108.13 499.66 108.13C499.131 108.13 498.639 108.054 498.148 107.941C497.694 107.828 497.316 107.639 496.976 107.412C496.636 107.185 496.372 106.845 496.183 106.467C495.994 106.051 495.918 105.598 495.918 105.031C495.918 104.502 496.031 104.048 496.258 103.632C496.447 103.254 496.749 102.952 497.127 102.725C497.505 102.498 497.921 102.309 498.412 102.196C498.904 102.083 499.433 102.045 500 102.045C500.151 102.045 500.34 102.045 500.529 102.045C500.718 102.083 500.907 102.083 501.058 102.12C501.209 102.158 501.36 102.196 501.512 102.196C501.625 102.234 501.701 102.272 501.738 102.272V101.78C501.738 101.516 501.738 101.213 501.663 100.949C501.587 100.646 501.474 100.42 501.323 100.193C501.172 99.9661 500.945 99.815 500.68 99.6638C500.378 99.5504 500.038 99.4748 499.584 99.4748C499.017 99.4748 498.526 99.5126 498.072 99.5882C497.657 99.6638 497.316 99.7772 497.127 99.8528L496.901 98.4165C497.127 98.3032 497.505 98.2276 498.035 98.1142C498.564 98.0386 499.131 98.0008 499.735 98.0008Z" fill="#31978D"/>
<path d="M514.022 107.639C513.606 107.714 513.115 107.828 512.434 107.941C511.792 108.054 511.036 108.13 510.205 108.13C509.449 108.13 508.806 108.017 508.315 107.79C507.786 107.563 507.408 107.261 507.068 106.883C506.765 106.467 506.538 106.013 506.425 105.446C506.274 104.917 506.198 104.313 506.198 103.67V98.2275H507.937V103.292C507.937 104.464 508.126 105.333 508.504 105.824C508.882 106.316 509.486 106.58 510.356 106.58C510.545 106.58 510.734 106.58 510.96 106.58C511.149 106.542 511.338 106.542 511.49 106.505C511.679 106.505 511.83 106.467 511.981 106.467C512.132 106.429 512.245 106.429 512.283 106.391V98.2275H514.022V107.639ZM512.359 94.5614L509.751 97.1315L508.882 96.3378L511.263 93.4653L512.359 94.5614Z" fill="#31978D"/>
<path d="M523.244 100.268C523.055 100.117 522.753 99.9283 522.337 99.7771C521.959 99.626 521.505 99.5504 521.052 99.5504C520.523 99.5504 520.107 99.626 519.767 99.8149C519.389 99.9661 519.124 100.231 518.898 100.533C518.671 100.873 518.52 101.251 518.406 101.667C518.331 102.12 518.255 102.574 518.255 103.065C518.255 104.199 518.557 105.068 519.087 105.673C519.654 106.316 520.409 106.618 521.317 106.618C521.808 106.618 522.186 106.58 522.526 106.542C522.828 106.505 523.093 106.467 523.244 106.391V100.268ZM523.244 93.7677L524.983 93.4653V107.639C524.567 107.752 524.076 107.865 523.471 107.979C522.828 108.092 522.11 108.13 521.317 108.13C520.561 108.13 519.918 108.017 519.313 107.79C518.709 107.525 518.217 107.223 517.764 106.769C517.348 106.354 517.046 105.824 516.819 105.182C516.554 104.539 516.441 103.859 516.441 103.065C516.441 102.309 516.554 101.629 516.743 101.024C516.932 100.42 517.235 99.8527 517.575 99.437C517.953 98.9834 518.406 98.6433 518.973 98.3787C519.502 98.1142 520.107 98.0008 520.825 98.0008C521.354 98.0008 521.846 98.0764 522.299 98.2275C522.715 98.3787 523.055 98.5299 523.244 98.6433V93.7677Z" fill="#31978D"/>
<path d="M527.401 103.103C527.401 102.234 527.553 101.478 527.779 100.835C528.044 100.193 528.384 99.6638 528.762 99.248C529.178 98.8323 529.669 98.5299 530.198 98.3032C530.727 98.0764 531.256 98.0008 531.823 98.0008C533.146 98.0008 534.129 98.3787 534.809 99.2102C535.527 100.004 535.868 101.251 535.868 102.914C535.868 102.99 535.868 103.103 535.868 103.217C535.868 103.33 535.868 103.443 535.83 103.519H529.216C529.291 104.539 529.593 105.295 530.085 105.824C530.614 106.354 531.408 106.618 532.466 106.618C533.071 106.618 533.6 106.543 534.016 106.429C534.431 106.354 534.734 106.24 534.96 106.127L535.187 107.601C534.998 107.714 534.62 107.828 534.091 107.941C533.562 108.054 532.957 108.13 532.277 108.13C531.445 108.13 530.727 108.017 530.123 107.752C529.48 107.487 528.989 107.147 528.573 106.694C528.195 106.24 527.893 105.711 527.704 105.106C527.515 104.502 527.401 103.821 527.401 103.103ZM534.053 102.12C534.091 101.365 533.864 100.722 533.486 100.231C533.071 99.7016 532.504 99.4748 531.823 99.4748C531.408 99.4748 531.068 99.5504 530.765 99.7016C530.463 99.8528 530.198 100.042 529.971 100.306C529.782 100.533 529.593 100.835 529.48 101.138C529.367 101.478 529.291 101.818 529.253 102.12H534.053Z" fill="#31978D"/>
<path d="M542.671 98.4921C543.049 98.4165 543.578 98.3031 544.221 98.1898C544.901 98.0764 545.657 98.0386 546.526 98.0386C547.282 98.0386 547.924 98.152 548.416 98.3409C548.945 98.5677 549.323 98.8701 549.663 99.248C549.965 99.6638 550.154 100.117 550.268 100.684C550.419 101.213 550.457 101.818 550.457 102.461V107.903H548.756V102.839C548.756 102.234 548.718 101.743 548.605 101.327C548.529 100.911 548.416 100.571 548.227 100.306C548.038 100.042 547.773 99.8527 547.471 99.7394C547.169 99.626 546.791 99.5504 546.337 99.5504C546.148 99.5504 545.959 99.5504 545.732 99.5882C545.543 99.5882 545.354 99.5882 545.165 99.626C545.014 99.626 544.825 99.6638 544.712 99.7016C544.561 99.7016 544.447 99.7394 544.372 99.7394V107.903H542.671V98.4921Z" fill="#31978D"/>
<path d="M561.871 103.065C561.871 103.821 561.757 104.539 561.531 105.144C561.304 105.787 561.001 106.316 560.586 106.769C560.208 107.185 559.716 107.563 559.149 107.79C558.62 108.017 557.978 108.168 557.335 108.168C556.693 108.168 556.088 108.017 555.521 107.79C554.954 107.563 554.463 107.185 554.085 106.769C553.669 106.316 553.367 105.787 553.14 105.144C552.913 104.539 552.8 103.821 552.8 103.065C552.8 102.309 552.913 101.629 553.14 100.987C553.367 100.382 553.669 99.815 554.085 99.3992C554.463 98.9457 554.954 98.6055 555.521 98.341C556.088 98.1142 556.693 98.0008 557.335 98.0008C557.978 98.0008 558.62 98.1142 559.149 98.341C559.716 98.6055 560.208 98.9457 560.586 99.3992C561.001 99.815 561.304 100.382 561.531 100.987C561.757 101.629 561.871 102.309 561.871 103.065ZM560.056 103.065C560.056 101.969 559.83 101.1 559.338 100.457C558.847 99.8528 558.167 99.5126 557.335 99.5126C556.504 99.5126 555.823 99.8528 555.332 100.457C554.841 101.1 554.614 101.969 554.614 103.065C554.614 104.161 554.841 105.031 555.332 105.673C555.823 106.316 556.504 106.618 557.335 106.618C558.167 106.618 558.847 106.316 559.338 105.673C559.83 105.031 560.056 104.161 560.056 103.065Z" fill="#31978D"/>
<path d="M577.329 95.015V96.5646H573.285V107.903H571.471V96.5646H567.427V95.015H577.329Z" fill="#31978D"/>
<path d="M581.94 98.0386C582.091 98.0386 582.28 98.0386 582.469 98.0386C582.658 98.0764 582.847 98.1142 583.036 98.1142C583.225 98.152 583.376 98.1898 583.565 98.2276C583.716 98.2653 583.83 98.2653 583.905 98.3031L583.603 99.815C583.452 99.7772 583.225 99.7016 582.923 99.626C582.582 99.5504 582.205 99.5504 581.713 99.5504C581.373 99.5504 581.071 99.5504 580.731 99.626C580.428 99.7016 580.201 99.7394 580.126 99.7772V107.903H578.387V98.6433C578.803 98.4921 579.294 98.3409 579.899 98.2276C580.504 98.0764 581.184 98.0386 581.94 98.0386Z" fill="#31978D"/>
<path d="M588.857 106.656C589.235 106.656 589.613 106.656 589.915 106.618C590.255 106.618 590.52 106.58 590.709 106.543V103.632C590.595 103.594 590.406 103.519 590.104 103.481C589.839 103.443 589.499 103.406 589.083 103.406C588.857 103.406 588.554 103.443 588.29 103.481C587.987 103.519 587.723 103.594 587.458 103.708C587.231 103.821 587.043 103.972 586.854 104.199C586.702 104.388 586.627 104.653 586.627 104.993C586.627 105.635 586.816 106.051 587.231 106.316C587.609 106.543 588.176 106.656 588.857 106.656ZM588.706 98.0008C589.386 98.0008 589.991 98.0764 590.444 98.2654C590.935 98.4543 591.313 98.6811 591.616 99.0213C591.88 99.3614 592.107 99.7394 592.22 100.193C592.334 100.646 592.409 101.138 592.409 101.705V107.752C592.258 107.752 592.069 107.79 591.805 107.828C591.54 107.903 591.238 107.941 590.898 107.979C590.557 108.017 590.18 108.017 589.802 108.054C589.424 108.092 589.008 108.13 588.63 108.13C588.101 108.13 587.572 108.054 587.118 107.941C586.665 107.828 586.287 107.639 585.946 107.412C585.606 107.185 585.342 106.845 585.153 106.467C584.964 106.051 584.888 105.598 584.888 105.031C584.888 104.502 585.002 104.048 585.191 103.632C585.417 103.254 585.72 102.952 586.098 102.725C586.476 102.498 586.891 102.309 587.383 102.196C587.874 102.083 588.403 102.045 588.97 102.045C589.121 102.045 589.31 102.045 589.499 102.045C589.688 102.083 589.839 102.083 590.028 102.12C590.18 102.158 590.331 102.196 590.444 102.196C590.595 102.234 590.671 102.272 590.709 102.272V101.78C590.709 101.516 590.671 101.213 590.633 100.949C590.557 100.646 590.444 100.42 590.293 100.193C590.142 99.9661 589.915 99.815 589.65 99.6638C589.348 99.5504 589.008 99.4748 588.554 99.4748C587.987 99.4748 587.458 99.5126 587.043 99.5882C586.627 99.6638 586.287 99.7772 586.098 99.8528L585.871 98.4165C586.098 98.3032 586.476 98.2276 587.005 98.1142C587.534 98.0386 588.101 98.0008 588.706 98.0008Z" fill="#31978D"/>
<path d="M597.02 98.6433C597.209 98.5299 597.549 98.3787 597.965 98.2275C598.381 98.0764 598.872 98.0008 599.439 98.0008C600.157 98.0008 600.762 98.1142 601.291 98.3787C601.82 98.6433 602.312 98.9834 602.652 99.437C603.03 99.8527 603.332 100.42 603.521 101.024C603.71 101.629 603.786 102.309 603.786 103.065C603.786 103.859 603.672 104.539 603.446 105.182C603.219 105.824 602.916 106.354 602.463 106.769C602.047 107.223 601.556 107.525 600.951 107.79C600.346 108.017 599.704 108.13 598.948 108.13C598.154 108.13 597.436 108.092 596.794 107.979C596.189 107.865 595.66 107.752 595.282 107.639V93.7677L597.02 93.4653V98.6433ZM597.02 106.391C597.172 106.467 597.436 106.505 597.738 106.542C598.079 106.58 598.457 106.618 598.91 106.618C599.855 106.618 600.611 106.316 601.178 105.673C601.707 105.068 602.009 104.199 602.009 103.065C602.009 102.574 601.934 102.12 601.858 101.667C601.745 101.251 601.594 100.873 601.367 100.533C601.14 100.231 600.838 99.9661 600.497 99.8149C600.157 99.626 599.704 99.5504 599.212 99.5504C598.759 99.5504 598.305 99.626 597.927 99.7771C597.512 99.9283 597.209 100.117 597.02 100.268V106.391Z" fill="#31978D"/>
<path d="M609.531 106.656C609.908 106.656 610.286 106.656 610.589 106.618C610.929 106.618 611.194 106.58 611.382 106.543V103.632C611.269 103.594 611.08 103.519 610.778 103.481C610.513 103.443 610.173 103.406 609.757 103.406C609.531 103.406 609.228 103.443 608.964 103.481C608.661 103.519 608.397 103.594 608.132 103.708C607.905 103.821 607.716 103.972 607.527 104.199C607.376 104.388 607.301 104.653 607.301 104.993C607.301 105.635 607.49 106.051 607.905 106.316C608.283 106.543 608.85 106.656 609.531 106.656ZM609.379 98.0008C610.06 98.0008 610.664 98.0764 611.118 98.2654C611.609 98.4543 611.987 98.6811 612.29 99.0213C612.554 99.3614 612.781 99.7394 612.894 100.193C613.008 100.646 613.083 101.138 613.083 101.705V107.752C612.932 107.752 612.743 107.79 612.479 107.828C612.214 107.903 611.912 107.941 611.571 107.979C611.231 108.017 610.853 108.017 610.475 108.054C610.097 108.092 609.682 108.13 609.304 108.13C608.775 108.13 608.245 108.054 607.792 107.941C607.338 107.828 606.96 107.639 606.62 107.412C606.28 107.185 606.016 106.845 605.827 106.467C605.638 106.051 605.562 105.598 605.562 105.031C605.562 104.502 605.675 104.048 605.864 103.632C606.091 103.254 606.394 102.952 606.771 102.725C607.149 102.498 607.565 102.309 608.056 102.196C608.548 102.083 609.077 102.045 609.644 102.045C609.795 102.045 609.984 102.045 610.173 102.045C610.362 102.083 610.513 102.083 610.702 102.12C610.853 102.158 611.005 102.196 611.118 102.196C611.269 102.234 611.345 102.272 611.382 102.272V101.78C611.382 101.516 611.345 101.213 611.307 100.949C611.231 100.646 611.118 100.42 610.967 100.193C610.816 99.9661 610.589 99.815 610.286 99.6638C610.022 99.5504 609.682 99.4748 609.228 99.4748C608.661 99.4748 608.132 99.5126 607.716 99.5882C607.301 99.6638 606.96 99.7772 606.771 99.8528L606.545 98.4165C606.771 98.3032 607.149 98.2276 607.679 98.1142C608.208 98.0386 608.775 98.0008 609.379 98.0008Z" fill="#31978D"/>
<path d="M618.866 108.092C617.77 108.054 617.014 107.828 616.598 107.412C616.145 106.958 615.918 106.278 615.918 105.371V93.7677L617.657 93.4653V105.106C617.657 105.371 617.657 105.635 617.732 105.787C617.77 105.976 617.846 106.127 617.959 106.24C618.072 106.354 618.223 106.429 618.412 106.505C618.601 106.542 618.828 106.618 619.093 106.656L618.866 108.092Z" fill="#31978D"/>
<path d="M621.021 107.903V93.7677L622.759 93.4653V98.4165C623.099 98.3031 623.439 98.1897 623.78 98.1142C624.158 98.0764 624.535 98.0386 624.876 98.0386C625.669 98.0386 626.274 98.1519 626.803 98.3409C627.295 98.5677 627.71 98.8701 628.013 99.248C628.315 99.6638 628.542 100.117 628.655 100.684C628.769 101.213 628.844 101.818 628.844 102.461V107.903H627.106V102.839C627.106 102.234 627.068 101.742 626.992 101.327C626.917 100.911 626.765 100.571 626.614 100.306C626.425 100.042 626.161 99.8527 625.858 99.7393C625.556 99.626 625.14 99.5504 624.687 99.5504C624.498 99.5504 624.309 99.5504 624.12 99.5882C623.931 99.626 623.742 99.626 623.553 99.6638C623.364 99.7016 623.213 99.7393 623.061 99.7771C622.91 99.8149 622.835 99.8527 622.759 99.8527V107.903H621.021Z" fill="#31978D"/>
<path d="M640.183 103.065C640.183 103.821 640.069 104.539 639.88 105.144C639.654 105.787 639.313 106.316 638.935 106.769C638.52 107.185 638.028 107.563 637.499 107.79C636.932 108.017 636.328 108.168 635.647 108.168C635.005 108.168 634.4 108.017 633.833 107.79C633.266 107.563 632.813 107.185 632.397 106.769C631.981 106.316 631.679 105.787 631.452 105.144C631.225 104.539 631.112 103.821 631.112 103.065C631.112 102.309 631.225 101.629 631.452 100.987C631.679 100.382 631.981 99.815 632.397 99.3992C632.813 98.9457 633.266 98.6055 633.833 98.341C634.4 98.1142 635.005 98.0008 635.647 98.0008C636.328 98.0008 636.932 98.1142 637.499 98.341C638.028 98.6055 638.52 98.9457 638.935 99.3992C639.313 99.815 639.654 100.382 639.88 100.987C640.069 101.629 640.183 102.309 640.183 103.065ZM638.406 103.065C638.406 101.969 638.142 101.1 637.65 100.457C637.159 99.8528 636.517 99.5126 635.647 99.5126C634.816 99.5126 634.135 99.8528 633.644 100.457C633.153 101.1 632.926 101.969 632.926 103.065C632.926 104.161 633.153 105.031 633.644 105.673C634.135 106.316 634.816 106.618 635.647 106.618C636.517 106.618 637.159 106.316 637.65 105.673C638.142 105.031 638.406 104.161 638.406 103.065Z" fill="#31978D"/>
<path d="M312.8 3.62598C312.8 2.75668 313.518 2.03857 314.387 2.03857C315.256 2.03857 315.975 2.75668 315.975 3.62598L326.746 79.4811L315.975 155.336C315.975 156.206 315.256 156.924 314.387 156.924C313.518 156.924 312.8 156.206 312.8 155.336V3.62598Z" fill="#E98442"/>
</g>
<defs>
<clipPath id="clip0_4520_45007">
<rect width="641" height="157" fill="white"/>
</clipPath>
</defs>
</svg>
